<?xml version="1.0" encoding="UTF-8" standalone="no"?>
<!DOCTYPE svg PUBLIC "-//W3C//DTD SVG 1.1//EN" "http://www.w3.org/Graphics/SVG/1.1/DTD/svg11.dtd">
<svg width="100%" height="100%" viewBox="0 0 800 502" version="1.1" xmlns="http://www.w3.org/2000/svg" xmlns:xlink="http://www.w3.org/1999/xlink" xml:space="preserve" xmlns:serif="http://www.serif.com/" style="fill-rule:evenodd;clip-rule:evenodd;stroke-linecap:round;stroke-linejoin:round;stroke-miterlimit:1.5;">
    <g id="Artboard1" transform="matrix(1,0,0,0.836667,0,0)">
        <rect x="0" y="0" width="800" height="600" style="fill:none;"/>
        <clipPath id="_clip1">
            <rect x="0" y="0" width="800" height="600"/>
        </clipPath>
        <g clip-path="url(#_clip1)">
            <g transform="matrix(1,0,0,0.648764,0,140.16)">
                <rect x="0" y="169" width="800" height="167.649" style="fill:url(#_Linear2);"/>
            </g>
            <g transform="matrix(1,0,0,1.4615,0,111.572)">
                <rect x="0" y="169" width="800" height="167.649" style="fill:url(#_Linear3);"/>
            </g>
            <g transform="matrix(5.88394,0,0,7.0326,-348.383,-621.952)">
                <g transform="matrix(12,0,0,12,65.0552,102.15)">
                    <path d="M0.053,-0.38C0.053,-0.486 0.092,-0.578 0.169,-0.654C0.247,-0.73 0.34,-0.768 0.449,-0.768C0.556,-0.768 0.648,-0.73 0.725,-0.653C0.802,-0.576 0.841,-0.484 0.841,-0.376C0.841,-0.268 0.802,-0.176 0.725,-0.1C0.647,-0.024 0.553,0.014 0.443,0.014C0.346,0.014 0.258,-0.02 0.181,-0.087C0.095,-0.162 0.053,-0.26 0.053,-0.38ZM0.167,-0.379C0.167,-0.296 0.195,-0.227 0.251,-0.173C0.307,-0.12 0.371,-0.093 0.444,-0.093C0.523,-0.093 0.59,-0.12 0.645,-0.175C0.699,-0.23 0.726,-0.298 0.726,-0.377C0.726,-0.457 0.699,-0.525 0.646,-0.579C0.592,-0.634 0.526,-0.661 0.447,-0.661C0.369,-0.661 0.303,-0.634 0.249,-0.579C0.194,-0.525 0.167,-0.458 0.167,-0.379Z" style="fill:rgb(128,128,128);fill-rule:nonzero;"/>
                </g>
                <g transform="matrix(12,0,0,12,75.0579,102.15)">
                    <path d="M0.053,-0.38C0.053,-0.486 0.092,-0.578 0.169,-0.654C0.247,-0.73 0.34,-0.768 0.449,-0.768C0.556,-0.768 0.648,-0.73 0.725,-0.653C0.802,-0.576 0.841,-0.484 0.841,-0.376C0.841,-0.268 0.802,-0.176 0.725,-0.1C0.647,-0.024 0.553,0.014 0.443,0.014C0.346,0.014 0.258,-0.02 0.181,-0.087C0.095,-0.162 0.053,-0.26 0.053,-0.38ZM0.167,-0.379C0.167,-0.296 0.195,-0.227 0.251,-0.173C0.307,-0.12 0.371,-0.093 0.444,-0.093C0.523,-0.093 0.59,-0.12 0.645,-0.175C0.699,-0.23 0.726,-0.298 0.726,-0.377C0.726,-0.457 0.699,-0.525 0.646,-0.579C0.592,-0.634 0.526,-0.661 0.447,-0.661C0.369,-0.661 0.303,-0.634 0.249,-0.579C0.194,-0.525 0.167,-0.458 0.167,-0.379Z" style="fill:rgb(128,128,128);fill-rule:nonzero;"/>
                </g>
                <g transform="matrix(12,0,0,12,85.0605,102.15)">
                    <path d="M0.204,-0.306L0.204,0L0.09,0L0.09,-0.754L0.219,-0.754C0.282,-0.754 0.33,-0.75 0.362,-0.741C0.395,-0.732 0.424,-0.715 0.448,-0.691C0.492,-0.649 0.513,-0.595 0.513,-0.531C0.513,-0.462 0.49,-0.407 0.444,-0.367C0.398,-0.326 0.335,-0.306 0.257,-0.306L0.204,-0.306ZM0.204,-0.412L0.247,-0.412C0.351,-0.412 0.403,-0.452 0.403,-0.532C0.403,-0.61 0.349,-0.649 0.242,-0.649L0.204,-0.649L0.204,-0.412Z" style="fill:rgb(128,128,128);fill-rule:nonzero;"/>
                </g>
                <g transform="matrix(6.11835,0,0,6.11835,65.0552,107.751)">
                    <path d="M0.053,-0.38C0.053,-0.486 0.092,-0.578 0.169,-0.654C0.247,-0.73 0.34,-0.768 0.449,-0.768C0.556,-0.768 0.648,-0.73 0.725,-0.653C0.802,-0.576 0.841,-0.484 0.841,-0.376C0.841,-0.268 0.802,-0.176 0.725,-0.1C0.647,-0.024 0.553,0.014 0.443,0.014C0.346,0.014 0.258,-0.02 0.181,-0.087C0.095,-0.162 0.053,-0.26 0.053,-0.38ZM0.167,-0.379C0.167,-0.296 0.195,-0.227 0.251,-0.173C0.307,-0.12 0.371,-0.093 0.444,-0.093C0.523,-0.093 0.59,-0.12 0.645,-0.175C0.699,-0.23 0.726,-0.298 0.726,-0.377C0.726,-0.457 0.699,-0.525 0.646,-0.579C0.592,-0.634 0.526,-0.661 0.447,-0.661C0.369,-0.661 0.303,-0.634 0.249,-0.579C0.194,-0.525 0.167,-0.458 0.167,-0.379Z" style="fill:rgb(128,128,128);fill-rule:nonzero;"/>
                </g>
                <g transform="matrix(6.11835,0,0,6.11835,70.5223,107.751)">
                    <path d="M0.179,-0.825L0.179,-0.42C0.223,-0.466 0.273,-0.489 0.329,-0.489C0.393,-0.489 0.446,-0.465 0.489,-0.417C0.531,-0.369 0.553,-0.31 0.553,-0.239C0.553,-0.166 0.531,-0.105 0.488,-0.058C0.446,-0.01 0.392,0.014 0.327,0.014C0.272,0.014 0.222,-0.007 0.179,-0.05L0.179,0L0.069,0L0.069,-0.825L0.179,-0.825ZM0.44,-0.234C0.44,-0.28 0.428,-0.317 0.403,-0.346C0.378,-0.375 0.347,-0.39 0.309,-0.39C0.269,-0.39 0.236,-0.375 0.21,-0.347C0.185,-0.319 0.173,-0.283 0.173,-0.238C0.173,-0.192 0.185,-0.155 0.21,-0.127C0.235,-0.099 0.267,-0.084 0.308,-0.084C0.346,-0.084 0.377,-0.099 0.402,-0.127C0.428,-0.156 0.44,-0.191 0.44,-0.234Z" style="fill:rgb(128,128,128);fill-rule:nonzero;"/>
                </g>
                <g transform="matrix(6.11835,0,0,6.11835,74.1909,107.751)">
                    <path d="M0.179,-0.476L0.179,0.259L0.069,0.259L0.069,-0.476L0.179,-0.476ZM0.053,-0.673C0.053,-0.693 0.06,-0.709 0.074,-0.723C0.088,-0.737 0.104,-0.744 0.124,-0.744C0.144,-0.744 0.161,-0.737 0.175,-0.723C0.189,-0.709 0.196,-0.693 0.196,-0.673C0.196,-0.653 0.189,-0.636 0.175,-0.622C0.161,-0.608 0.144,-0.601 0.125,-0.601C0.105,-0.601 0.088,-0.608 0.074,-0.622C0.06,-0.636 0.053,-0.653 0.053,-0.673Z" style="fill:rgb(128,128,128);fill-rule:nonzero;"/>
                </g>
                <g transform="matrix(6.11835,0,0,6.11835,75.7145,107.751)">
                    <path d="M0.502,-0.212L0.162,-0.212C0.165,-0.173 0.177,-0.142 0.2,-0.119C0.222,-0.096 0.251,-0.084 0.286,-0.084C0.313,-0.084 0.336,-0.091 0.354,-0.104C0.372,-0.117 0.392,-0.141 0.414,-0.176L0.507,-0.125C0.493,-0.1 0.477,-0.079 0.461,-0.062C0.445,-0.044 0.428,-0.03 0.41,-0.019C0.392,-0.008 0.372,0.001 0.351,0.006C0.33,0.011 0.307,0.014 0.282,0.014C0.211,0.014 0.154,-0.009 0.111,-0.055C0.068,-0.101 0.047,-0.161 0.047,-0.237C0.047,-0.313 0.068,-0.373 0.109,-0.42C0.151,-0.466 0.207,-0.489 0.276,-0.489C0.346,-0.489 0.402,-0.466 0.442,-0.422C0.483,-0.378 0.503,-0.316 0.503,-0.238L0.502,-0.212ZM0.39,-0.302C0.374,-0.36 0.337,-0.39 0.279,-0.39C0.265,-0.39 0.253,-0.388 0.241,-0.384C0.229,-0.379 0.219,-0.374 0.209,-0.366C0.2,-0.358 0.191,-0.349 0.185,-0.338C0.178,-0.328 0.173,-0.315 0.169,-0.302L0.39,-0.302Z" style="fill:rgb(128,128,128);fill-rule:nonzero;"/>
                </g>
                <g transform="matrix(6.11835,0,0,6.11835,79.0993,107.751)">
                    <path d="M0.439,-0.455L0.439,-0.309C0.414,-0.34 0.392,-0.361 0.372,-0.372C0.353,-0.384 0.33,-0.39 0.303,-0.39C0.262,-0.39 0.228,-0.375 0.2,-0.346C0.173,-0.317 0.159,-0.281 0.159,-0.237C0.159,-0.193 0.172,-0.156 0.199,-0.127C0.225,-0.099 0.259,-0.084 0.301,-0.084C0.327,-0.084 0.35,-0.09 0.371,-0.102C0.39,-0.113 0.413,-0.134 0.439,-0.166L0.439,-0.021C0.395,0.002 0.35,0.014 0.306,0.014C0.232,0.014 0.171,-0.01 0.121,-0.058C0.072,-0.105 0.047,-0.165 0.047,-0.236C0.047,-0.307 0.072,-0.367 0.122,-0.416C0.172,-0.464 0.234,-0.489 0.307,-0.489C0.354,-0.489 0.398,-0.478 0.439,-0.455Z" style="fill:rgb(128,128,128);fill-rule:nonzero;"/>
                </g>
                <g transform="matrix(6.11835,0,0,6.11835,82.0151,107.751)">
                    <path d="M0.183,-0.373L0.183,0L0.073,0L0.073,-0.373L0.026,-0.373L0.026,-0.476L0.073,-0.476L0.073,-0.65L0.183,-0.65L0.183,-0.476L0.268,-0.476L0.268,-0.373L0.183,-0.373Z" style="fill:rgb(128,128,128);fill-rule:nonzero;"/>
                </g>
            </g>
            <g transform="matrix(0.378438,0,0,0.659676,17.3625,225.311)">
                <path d="M438,268.402C438,231.754 394.606,202 341.156,202L136.844,202C83.394,202 40,231.754 40,268.402L40,472.598C40,509.246 83.394,539 136.844,539L341.156,539C394.606,539 438,509.246 438,472.598L438,268.402Z" style="fill:white;stroke:rgb(64,64,64);stroke-width:7.4px;"/>
            </g>
            <g transform="matrix(0.373413,0,0,0.659676,603.945,225.311)">
                <path d="M438,268.402C438,231.754 394.022,202 339.853,202L138.147,202C83.978,202 40,231.754 40,268.402L40,472.598C40,509.246 83.978,539 138.147,539L339.853,539C394.022,539 438,509.246 438,472.598L438,268.402Z" style="fill:white;stroke:rgb(64,64,64);stroke-width:7.43px;"/>
            </g>
            <g transform="matrix(-1,-1.46372e-16,9.0604e-17,-0.884268,171.149,515.081)">
                <g transform="matrix(-1,1.65529e-16,-1.22465e-16,-1.35165,171.149,582.495)">
                    <path d="M85.978,225.828L52.321,225.828L69.149,209L85.978,225.828ZM61.978,221.828L76.321,221.828L69.149,214.657L61.978,221.828Z" style="fill:rgb(64,64,64);"/>
                    <path d="M69.149,223.828L69.149,300" style="fill:none;stroke:rgb(64,64,64);stroke-width:4px;stroke-linecap:butt;"/>
                </g>
            </g>
            <g transform="matrix(-1,-1.46372e-16,9.0604e-17,-0.884268,208.649,515.081)">
                <g transform="matrix(-1,1.65529e-16,-1.22465e-16,-1.35165,208.649,582.495)">
                    <path d="M123.478,225.828L89.821,225.828L106.649,209L123.478,225.828ZM99.478,221.828L113.821,221.828L106.649,214.657L99.478,221.828Z" style="fill:rgb(64,64,64);"/>
                    <path d="M106.649,223.828L106.649,300" style="fill:none;stroke:rgb(64,64,64);stroke-width:4px;stroke-linecap:butt;"/>
                </g>
            </g>
            <g transform="matrix(-1,-1.46372e-16,9.0604e-17,-0.884268,246.149,515.081)">
                <g transform="matrix(-1,1.65529e-16,-1.22465e-16,-1.35165,246.149,582.495)">
                    <path d="M160.978,225.828L127.321,225.828L144.149,209L160.978,225.828ZM136.978,221.828L151.321,221.828L144.149,214.657L136.978,221.828Z" style="fill:rgb(64,64,64);"/>
                    <path d="M144.149,223.828L144.149,300" style="fill:none;stroke:rgb(64,64,64);stroke-width:4px;stroke-linecap:butt;"/>
                </g>
            </g>
            <g transform="matrix(-1,-1.46372e-16,9.0604e-17,-0.884268,758,515.081)">
                <g transform="matrix(-1,1.65529e-16,-1.22465e-16,-1.35165,758,582.495)">
                    <path d="M672.828,225.828L639.172,225.828L656,209L672.828,225.828ZM648.828,221.828L663.172,221.828L656,214.657L648.828,221.828Z" style="fill:rgb(64,64,64);"/>
                    <path d="M656,223.828L656,300" style="fill:none;stroke:rgb(64,64,64);stroke-width:4px;stroke-linecap:butt;"/>
                </g>
            </g>
            <g transform="matrix(-1,-1.46372e-16,9.0604e-17,-0.884268,795.5,515.081)">
                <g transform="matrix(-1,1.65529e-16,-1.22465e-16,-1.35165,795.5,582.495)">
                    <path d="M710.328,225.828L676.672,225.828L693.5,209L710.328,225.828ZM686.328,221.828L700.672,221.828L693.5,214.657L686.328,221.828Z" style="fill:rgb(64,64,64);"/>
                    <path d="M693.5,223.828L693.5,300" style="fill:none;stroke:rgb(64,64,64);stroke-width:4px;stroke-linecap:butt;"/>
                </g>
            </g>
            <g transform="matrix(-1,-1.46372e-16,9.0604e-17,-0.884268,833,515.081)">
                <g transform="matrix(-1,1.65529e-16,-1.22465e-16,-1.35165,833,582.495)">
                    <path d="M747.828,225.828L714.172,225.828L731,209L747.828,225.828ZM723.828,221.828L738.172,221.828L731,214.657L723.828,221.828Z" style="fill:rgb(64,64,64);"/>
                    <path d="M731,223.828L731,300" style="fill:none;stroke:rgb(64,64,64);stroke-width:4px;stroke-linecap:butt;"/>
                </g>
            </g>
            <g transform="matrix(5.88394,0,0,7.0326,220.946,-621.952)">
                <g transform="matrix(12,0,0,12,61.1941,102.15)">
                    <path d="M0.346,-0.321L0.579,0L0.44,0L0.225,-0.309L0.204,-0.309L0.204,0L0.09,0L0.09,-0.754L0.224,-0.754C0.323,-0.754 0.395,-0.735 0.439,-0.698C0.488,-0.656 0.513,-0.601 0.513,-0.533C0.513,-0.479 0.497,-0.433 0.467,-0.395C0.436,-0.357 0.396,-0.332 0.346,-0.321ZM0.204,-0.408L0.24,-0.408C0.348,-0.408 0.402,-0.449 0.402,-0.531C0.402,-0.608 0.349,-0.647 0.245,-0.647L0.204,-0.647L0.204,-0.408Z" style="fill:rgb(128,128,128);fill-rule:nonzero;"/>
                </g>
                <g transform="matrix(12,0,0,12,67.9854,102.15)">
                    <path d="M0.502,-0.212L0.162,-0.212C0.165,-0.173 0.177,-0.142 0.2,-0.119C0.222,-0.096 0.251,-0.084 0.286,-0.084C0.313,-0.084 0.336,-0.091 0.354,-0.104C0.372,-0.117 0.392,-0.141 0.414,-0.176L0.507,-0.125C0.493,-0.1 0.477,-0.079 0.461,-0.062C0.445,-0.044 0.428,-0.03 0.41,-0.019C0.392,-0.008 0.372,0.001 0.351,0.006C0.33,0.011 0.307,0.014 0.282,0.014C0.211,0.014 0.154,-0.009 0.111,-0.055C0.068,-0.101 0.047,-0.161 0.047,-0.237C0.047,-0.313 0.068,-0.373 0.109,-0.42C0.151,-0.466 0.207,-0.489 0.276,-0.489C0.346,-0.489 0.402,-0.466 0.442,-0.422C0.483,-0.378 0.503,-0.316 0.503,-0.238L0.502,-0.212ZM0.39,-0.302C0.374,-0.36 0.337,-0.39 0.279,-0.39C0.265,-0.39 0.253,-0.388 0.241,-0.384C0.229,-0.379 0.219,-0.374 0.209,-0.366C0.2,-0.358 0.191,-0.349 0.185,-0.338C0.178,-0.328 0.173,-0.315 0.169,-0.302L0.39,-0.302Z" style="fill:rgb(128,128,128);fill-rule:nonzero;"/>
                </g>
                <g transform="matrix(12,0,0,12,74.504,102.15)">
                    <path d="M0.42,-0.476L0.53,-0.476L0.53,0L0.42,0L0.42,-0.05C0.375,-0.007 0.326,0.014 0.274,0.014C0.208,0.014 0.154,-0.01 0.111,-0.058C0.068,-0.106 0.047,-0.167 0.047,-0.239C0.047,-0.311 0.068,-0.37 0.111,-0.417C0.153,-0.465 0.207,-0.489 0.271,-0.489C0.326,-0.489 0.376,-0.466 0.42,-0.42L0.42,-0.476ZM0.159,-0.239C0.159,-0.194 0.171,-0.157 0.196,-0.128C0.221,-0.099 0.252,-0.084 0.291,-0.084C0.331,-0.084 0.364,-0.098 0.389,-0.126C0.414,-0.155 0.427,-0.192 0.427,-0.237C0.427,-0.281 0.414,-0.318 0.389,-0.347C0.364,-0.375 0.332,-0.39 0.292,-0.39C0.254,-0.39 0.222,-0.375 0.197,-0.347C0.172,-0.318 0.159,-0.282 0.159,-0.239Z" style="fill:rgb(128,128,128);fill-rule:nonzero;"/>
                </g>
                <g transform="matrix(12,0,0,12,81.4594,102.15)">
                    <path d="M0.439,-0.455L0.439,-0.309C0.414,-0.34 0.392,-0.361 0.372,-0.372C0.353,-0.384 0.33,-0.39 0.303,-0.39C0.262,-0.39 0.228,-0.375 0.2,-0.346C0.173,-0.317 0.159,-0.281 0.159,-0.237C0.159,-0.193 0.172,-0.156 0.199,-0.127C0.225,-0.099 0.259,-0.084 0.301,-0.084C0.327,-0.084 0.35,-0.09 0.371,-0.102C0.39,-0.113 0.413,-0.134 0.439,-0.166L0.439,-0.021C0.395,0.002 0.35,0.014 0.306,0.014C0.232,0.014 0.171,-0.01 0.121,-0.058C0.072,-0.105 0.047,-0.165 0.047,-0.236C0.047,-0.307 0.072,-0.367 0.122,-0.416C0.172,-0.464 0.234,-0.489 0.307,-0.489C0.354,-0.489 0.398,-0.478 0.439,-0.455Z" style="fill:rgb(128,128,128);fill-rule:nonzero;"/>
                </g>
                <g transform="matrix(12,0,0,12,87.1781,102.15)">
                    <path d="M0.183,-0.373L0.183,0L0.073,0L0.073,-0.373L0.026,-0.373L0.026,-0.476L0.073,-0.476L0.073,-0.65L0.183,-0.65L0.183,-0.476L0.268,-0.476L0.268,-0.373L0.183,-0.373Z" style="fill:rgb(128,128,128);fill-rule:nonzero;"/>
                </g>
                <g transform="matrix(6.11835,0,0,6.11835,59.3843,107.751)">
                    <path d="M0.647,-0.713L0.647,-0.579C0.582,-0.634 0.514,-0.661 0.443,-0.661C0.366,-0.661 0.301,-0.633 0.248,-0.578C0.194,-0.522 0.167,-0.455 0.167,-0.375C0.167,-0.295 0.194,-0.229 0.248,-0.174C0.301,-0.12 0.366,-0.093 0.444,-0.093C0.484,-0.093 0.518,-0.099 0.546,-0.112C0.562,-0.119 0.578,-0.128 0.594,-0.139C0.611,-0.15 0.629,-0.163 0.647,-0.179L0.647,-0.042C0.582,-0.005 0.514,0.014 0.442,0.014C0.335,0.014 0.243,-0.024 0.167,-0.099C0.091,-0.175 0.053,-0.266 0.053,-0.374C0.053,-0.47 0.084,-0.555 0.148,-0.63C0.226,-0.722 0.327,-0.769 0.451,-0.769C0.519,-0.769 0.584,-0.75 0.647,-0.713Z" style="fill:rgb(128,128,128);fill-rule:nonzero;"/>
                </g>
                <g transform="matrix(6.11835,0,0,6.11835,63.5489,107.751)">
                    <path d="M0.047,-0.241C0.047,-0.31 0.071,-0.368 0.121,-0.417C0.17,-0.465 0.23,-0.489 0.3,-0.489C0.371,-0.489 0.431,-0.465 0.481,-0.416C0.53,-0.368 0.554,-0.308 0.554,-0.237C0.554,-0.166 0.53,-0.106 0.48,-0.058C0.431,-0.01 0.37,0.014 0.298,0.014C0.227,0.014 0.167,-0.011 0.119,-0.06C0.071,-0.108 0.047,-0.168 0.047,-0.241ZM0.159,-0.239C0.159,-0.192 0.172,-0.154 0.197,-0.126C0.223,-0.098 0.258,-0.084 0.3,-0.084C0.343,-0.084 0.378,-0.098 0.403,-0.126C0.429,-0.154 0.442,-0.191 0.442,-0.237C0.442,-0.283 0.429,-0.32 0.403,-0.348C0.377,-0.376 0.343,-0.39 0.3,-0.39C0.258,-0.39 0.224,-0.376 0.198,-0.348C0.172,-0.32 0.159,-0.284 0.159,-0.239Z" style="fill:rgb(128,128,128);fill-rule:nonzero;"/>
                </g>
                <g transform="matrix(6.11835,0,0,6.11835,67.1041,107.751)">
                    <path d="M0.069,-0.476L0.179,-0.476L0.179,-0.432C0.2,-0.454 0.218,-0.469 0.233,-0.477C0.249,-0.485 0.269,-0.489 0.293,-0.489C0.347,-0.489 0.39,-0.465 0.421,-0.418C0.455,-0.465 0.502,-0.489 0.561,-0.489C0.668,-0.489 0.722,-0.424 0.722,-0.294L0.722,0L0.611,0L0.611,-0.264C0.611,-0.31 0.606,-0.342 0.595,-0.361C0.583,-0.38 0.565,-0.39 0.539,-0.39C0.508,-0.39 0.486,-0.378 0.472,-0.355C0.459,-0.333 0.452,-0.296 0.452,-0.246L0.452,0L0.341,0L0.341,-0.263C0.341,-0.347 0.317,-0.39 0.268,-0.39C0.237,-0.39 0.215,-0.378 0.2,-0.355C0.186,-0.332 0.179,-0.295 0.179,-0.246L0.179,0L0.069,0L0.069,-0.476Z" style="fill:rgb(128,128,128);fill-rule:nonzero;"/>
                </g>
                <g transform="matrix(6.11835,0,0,6.11835,71.8962,107.751)">
                    <path d="M0.179,0.259L0.069,0.259L0.069,-0.476L0.179,-0.476L0.179,-0.424C0.222,-0.467 0.272,-0.489 0.327,-0.489C0.392,-0.489 0.446,-0.465 0.488,-0.417C0.531,-0.369 0.553,-0.308 0.553,-0.235C0.553,-0.164 0.531,-0.105 0.489,-0.057C0.446,-0.01 0.393,0.014 0.329,0.014C0.273,0.014 0.223,-0.009 0.179,-0.053L0.179,0.259ZM0.44,-0.235C0.44,-0.28 0.428,-0.318 0.403,-0.346C0.378,-0.375 0.347,-0.39 0.309,-0.39C0.268,-0.39 0.236,-0.376 0.21,-0.348C0.185,-0.32 0.173,-0.283 0.173,-0.237C0.173,-0.193 0.185,-0.156 0.21,-0.127C0.235,-0.099 0.268,-0.084 0.308,-0.084C0.346,-0.084 0.378,-0.099 0.402,-0.127C0.428,-0.156 0.44,-0.192 0.44,-0.235Z" style="fill:rgb(128,128,128);fill-rule:nonzero;"/>
                </g>
                <g transform="matrix(6.11835,0,0,6.11835,75.4424,107.751)">
                    <path d="M0.047,-0.241C0.047,-0.31 0.071,-0.368 0.121,-0.417C0.17,-0.465 0.23,-0.489 0.3,-0.489C0.371,-0.489 0.431,-0.465 0.481,-0.416C0.53,-0.368 0.554,-0.308 0.554,-0.237C0.554,-0.166 0.53,-0.106 0.48,-0.058C0.431,-0.01 0.37,0.014 0.298,0.014C0.227,0.014 0.167,-0.011 0.119,-0.06C0.071,-0.108 0.047,-0.168 0.047,-0.241ZM0.159,-0.239C0.159,-0.192 0.172,-0.154 0.197,-0.126C0.223,-0.098 0.258,-0.084 0.3,-0.084C0.343,-0.084 0.378,-0.098 0.403,-0.126C0.429,-0.154 0.442,-0.191 0.442,-0.237C0.442,-0.283 0.429,-0.32 0.403,-0.348C0.377,-0.376 0.343,-0.39 0.3,-0.39C0.258,-0.39 0.224,-0.376 0.198,-0.348C0.172,-0.32 0.159,-0.284 0.159,-0.239Z" style="fill:rgb(128,128,128);fill-rule:nonzero;"/>
                </g>
                <g transform="matrix(6.11835,0,0,6.11835,78.9976,107.751)">
                    <path d="M0.069,-0.476L0.18,-0.476L0.18,-0.432C0.218,-0.47 0.261,-0.489 0.31,-0.489C0.365,-0.489 0.408,-0.471 0.439,-0.437C0.466,-0.407 0.479,-0.359 0.479,-0.292L0.479,0L0.369,0L0.369,-0.266C0.369,-0.313 0.362,-0.345 0.349,-0.363C0.336,-0.381 0.313,-0.39 0.28,-0.39C0.243,-0.39 0.217,-0.378 0.202,-0.354C0.187,-0.33 0.18,-0.289 0.18,-0.229L0.18,0L0.069,0L0.069,-0.476Z" style="fill:rgb(128,128,128);fill-rule:nonzero;"/>
                </g>
                <g transform="matrix(6.11835,0,0,6.11835,82.2302,107.751)">
                    <path d="M0.502,-0.212L0.162,-0.212C0.165,-0.173 0.177,-0.142 0.2,-0.119C0.222,-0.096 0.251,-0.084 0.286,-0.084C0.313,-0.084 0.336,-0.091 0.354,-0.104C0.372,-0.117 0.392,-0.141 0.414,-0.176L0.507,-0.125C0.493,-0.1 0.477,-0.079 0.461,-0.062C0.445,-0.044 0.428,-0.03 0.41,-0.019C0.392,-0.008 0.372,0.001 0.351,0.006C0.33,0.011 0.307,0.014 0.282,0.014C0.211,0.014 0.154,-0.009 0.111,-0.055C0.068,-0.101 0.047,-0.161 0.047,-0.237C0.047,-0.313 0.068,-0.373 0.109,-0.42C0.151,-0.466 0.207,-0.489 0.276,-0.489C0.346,-0.489 0.402,-0.466 0.442,-0.422C0.483,-0.378 0.503,-0.316 0.503,-0.238L0.502,-0.212ZM0.39,-0.302C0.374,-0.36 0.337,-0.39 0.279,-0.39C0.265,-0.39 0.253,-0.388 0.241,-0.384C0.229,-0.379 0.219,-0.374 0.209,-0.366C0.2,-0.358 0.191,-0.349 0.185,-0.338C0.178,-0.328 0.173,-0.315 0.169,-0.302L0.39,-0.302Z" style="fill:rgb(128,128,128);fill-rule:nonzero;"/>
                </g>
                <g transform="matrix(6.11835,0,0,6.11835,85.4926,107.751)">
                    <path d="M0.069,-0.476L0.18,-0.476L0.18,-0.432C0.218,-0.47 0.261,-0.489 0.31,-0.489C0.365,-0.489 0.408,-0.471 0.439,-0.437C0.466,-0.407 0.479,-0.359 0.479,-0.292L0.479,0L0.369,0L0.369,-0.266C0.369,-0.313 0.362,-0.345 0.349,-0.363C0.336,-0.381 0.313,-0.39 0.28,-0.39C0.243,-0.39 0.217,-0.378 0.202,-0.354C0.187,-0.33 0.18,-0.289 0.18,-0.229L0.18,0L0.069,0L0.069,-0.476Z" style="fill:rgb(128,128,128);fill-rule:nonzero;"/>
                </g>
                <g transform="matrix(6.11835,0,0,6.11835,88.7864,107.751)">
                    <path d="M0.183,-0.373L0.183,0L0.073,0L0.073,-0.373L0.026,-0.373L0.026,-0.476L0.073,-0.476L0.073,-0.65L0.183,-0.65L0.183,-0.476L0.268,-0.476L0.268,-0.373L0.183,-0.373Z" style="fill:rgb(128,128,128);fill-rule:nonzero;"/>
                </g>
            </g>
            <g transform="matrix(0.547575,0,0,0.654472,158.594,138.963)">
                <g transform="matrix(27.3935,0,0,27.3935,416.408,241)">
                    <path d="M0.298,-0.647L0.298,0L0.185,0L0.185,-0.647L0.011,-0.647L0.011,-0.754L0.471,-0.754L0.471,-0.647L0.298,-0.647Z" style="fill:rgb(102,102,102);fill-rule:nonzero;"/>
                </g>
                <g transform="matrix(27.3935,0,0,27.3935,429.075,241)">
                    <path d="M0.204,-0.459L0.529,-0.459L0.529,-0.754L0.643,-0.754L0.643,0L0.529,0L0.529,-0.352L0.204,-0.352L0.204,0L0.09,0L0.09,-0.754L0.204,-0.754L0.204,-0.459Z" style="fill:rgb(102,102,102);fill-rule:nonzero;"/>
                </g>
                <g transform="matrix(27.3935,0,0,27.3935,448.618,241)">
                    <path d="M0.506,-0.647L0.204,-0.647L0.204,-0.466L0.498,-0.466L0.498,-0.359L0.204,-0.359L0.204,-0.107L0.506,-0.107L0.506,0L0.09,0L0.09,-0.754L0.506,-0.754L0.506,-0.647Z" style="fill:rgb(102,102,102);fill-rule:nonzero;"/>
                </g>
                <g transform="matrix(27.3935,0,0,27.3935,368.771,269.209)">
                    <rect x="0.09" y="-0.754" width="0.114" height="0.754" style="fill:rgb(102,102,102);fill-rule:nonzero;"/>
                </g>
                <g transform="matrix(27.3935,0,0,27.3935,376.85,269.209)">
                    <path d="M0.09,0L0.09,-0.805L0.64,-0.23L0.64,-0.754L0.754,-0.754L0.754,0.046L0.204,-0.528L0.204,0L0.09,0Z" style="fill:rgb(102,102,102);fill-rule:nonzero;"/>
                </g>
                <g transform="matrix(27.3935,0,0,27.3935,399.977,269.209)">
                    <path d="M0.298,-0.647L0.298,0L0.185,0L0.185,-0.647L0.011,-0.647L0.011,-0.754L0.471,-0.754L0.471,-0.647L0.298,-0.647Z" style="fill:rgb(102,102,102);fill-rule:nonzero;"/>
                </g>
                <g transform="matrix(27.3935,0,0,27.3935,413.192,269.209)">
                    <path d="M0.506,-0.647L0.204,-0.647L0.204,-0.466L0.498,-0.466L0.498,-0.359L0.204,-0.359L0.204,-0.107L0.506,-0.107L0.506,0L0.09,0L0.09,-0.754L0.506,-0.754L0.506,-0.647Z" style="fill:rgb(102,102,102);fill-rule:nonzero;"/>
                </g>
                <g transform="matrix(27.3935,0,0,27.3935,428.681,269.209)">
                    <path d="M0.346,-0.321L0.579,0L0.44,0L0.225,-0.309L0.204,-0.309L0.204,0L0.09,0L0.09,-0.754L0.224,-0.754C0.323,-0.754 0.395,-0.735 0.439,-0.698C0.488,-0.656 0.513,-0.601 0.513,-0.533C0.513,-0.479 0.497,-0.433 0.467,-0.395C0.436,-0.357 0.396,-0.332 0.346,-0.321ZM0.204,-0.408L0.24,-0.408C0.348,-0.408 0.402,-0.449 0.402,-0.531C0.402,-0.608 0.349,-0.647 0.245,-0.647L0.204,-0.647L0.204,-0.408Z" style="fill:rgb(102,102,102);fill-rule:nonzero;"/>
                </g>
                <g transform="matrix(27.3935,0,0,27.3935,445.173,269.209)">
                    <path d="M0.467,-0.647L0.204,-0.647L0.204,-0.466L0.458,-0.466L0.458,-0.359L0.204,-0.359L0.204,0L0.09,0L0.09,-0.754L0.467,-0.754L0.467,-0.647Z" style="fill:rgb(102,102,102);fill-rule:nonzero;"/>
                </g>
                <g transform="matrix(27.3935,0,0,27.3935,457.733,269.209)">
                    <path d="M0.533,-0.183L0.21,-0.183L0.126,0L0.004,0L0.377,-0.801L0.737,0L0.612,0L0.533,-0.183ZM0.487,-0.29L0.375,-0.546L0.258,-0.29L0.487,-0.29Z" style="fill:rgb(102,102,102);fill-rule:nonzero;"/>
                </g>
                <g transform="matrix(27.3935,0,0,27.3935,477.061,269.209)">
                    <path d="M0.647,-0.713L0.647,-0.579C0.582,-0.634 0.514,-0.661 0.443,-0.661C0.366,-0.661 0.301,-0.633 0.248,-0.578C0.194,-0.522 0.167,-0.455 0.167,-0.375C0.167,-0.295 0.194,-0.229 0.248,-0.174C0.301,-0.12 0.366,-0.093 0.444,-0.093C0.484,-0.093 0.518,-0.099 0.546,-0.112C0.562,-0.119 0.578,-0.128 0.594,-0.139C0.611,-0.15 0.629,-0.163 0.647,-0.179L0.647,-0.042C0.582,-0.005 0.514,0.014 0.442,0.014C0.335,0.014 0.243,-0.024 0.167,-0.099C0.091,-0.175 0.053,-0.266 0.053,-0.374C0.053,-0.47 0.084,-0.555 0.148,-0.63C0.226,-0.722 0.327,-0.769 0.451,-0.769C0.519,-0.769 0.584,-0.75 0.647,-0.713Z" style="fill:rgb(102,102,102);fill-rule:nonzero;"/>
                </g>
                <g transform="matrix(27.3935,0,0,27.3935,496.255,269.209)">
                    <path d="M0.506,-0.647L0.204,-0.647L0.204,-0.466L0.498,-0.466L0.498,-0.359L0.204,-0.359L0.204,-0.107L0.506,-0.107L0.506,0L0.09,0L0.09,-0.754L0.506,-0.754L0.506,-0.647Z" style="fill:rgb(102,102,102);fill-rule:nonzero;"/>
                </g>
            </g>
            <g transform="matrix(0.547575,0,0,0.654472,158.926,248.747)">
                <g transform="matrix(27.3935,0,0,27.3935,416.134,241)">
                    <path d="M0.298,-0.647L0.298,0L0.185,0L0.185,-0.647L0.011,-0.647L0.011,-0.754L0.471,-0.754L0.471,-0.647L0.298,-0.647Z" style="fill:rgb(102,102,102);fill-rule:nonzero;"/>
                </g>
                <g transform="matrix(27.3935,0,0,27.3935,429.075,241)">
                    <path d="M0.204,-0.459L0.529,-0.459L0.529,-0.754L0.643,-0.754L0.643,0L0.529,0L0.529,-0.352L0.204,-0.352L0.204,0L0.09,0L0.09,-0.754L0.204,-0.754L0.204,-0.459Z" style="fill:rgb(102,102,102);fill-rule:nonzero;"/>
                </g>
                <g transform="matrix(27.3935,0,0,27.3935,448.892,241)">
                    <path d="M0.506,-0.647L0.204,-0.647L0.204,-0.466L0.498,-0.466L0.498,-0.359L0.204,-0.359L0.204,-0.107L0.506,-0.107L0.506,0L0.09,0L0.09,-0.754L0.506,-0.754L0.506,-0.647Z" style="fill:rgb(102,102,102);fill-rule:nonzero;"/>
                </g>
                <g transform="matrix(27.3935,0,0,27.3935,324.636,269.209)">
                    <rect x="0.09" y="-0.754" width="0.114" height="0.754" style="fill:rgb(102,102,102);fill-rule:nonzero;"/>
                </g>
                <g transform="matrix(27.3935,0,0,27.3935,331.893,269.209)">
                    <path d="M0.064,0L0.223,-0.811L0.481,-0.225L0.75,-0.811L0.892,0L0.775,0L0.703,-0.455L0.479,0.035L0.263,-0.456L0.182,0L0.064,0Z" style="fill:rgb(102,102,102);fill-rule:nonzero;"/>
                </g>
                <g transform="matrix(27.3935,0,0,27.3935,357.408,269.209)">
                    <path d="M0.204,-0.306L0.204,0L0.09,0L0.09,-0.754L0.219,-0.754C0.282,-0.754 0.33,-0.75 0.362,-0.741C0.395,-0.732 0.424,-0.715 0.448,-0.691C0.492,-0.649 0.513,-0.595 0.513,-0.531C0.513,-0.462 0.49,-0.407 0.444,-0.367C0.398,-0.326 0.335,-0.306 0.257,-0.306L0.204,-0.306ZM0.204,-0.412L0.247,-0.412C0.351,-0.412 0.403,-0.452 0.403,-0.532C0.403,-0.61 0.349,-0.649 0.242,-0.649L0.204,-0.649L0.204,-0.412Z" style="fill:rgb(102,102,102);fill-rule:nonzero;"/>
                </g>
                <g transform="matrix(27.3935,0,0,27.3935,371.38,269.209)">
                    <path d="M0.204,-0.754L0.204,-0.107L0.426,-0.107L0.426,0L0.09,0L0.09,-0.754L0.204,-0.754Z" style="fill:rgb(102,102,102);fill-rule:nonzero;"/>
                </g>
                <g transform="matrix(27.3935,0,0,27.3935,382.703,269.209)">
                    <path d="M0.506,-0.647L0.204,-0.647L0.204,-0.466L0.498,-0.466L0.498,-0.359L0.204,-0.359L0.204,-0.107L0.506,-0.107L0.506,0L0.09,0L0.09,-0.754L0.506,-0.754L0.506,-0.647Z" style="fill:rgb(102,102,102);fill-rule:nonzero;"/>
                </g>
                <g transform="matrix(27.3935,0,0,27.3935,397.37,269.209)">
                    <path d="M0.064,0L0.223,-0.811L0.481,-0.225L0.75,-0.811L0.892,0L0.775,0L0.703,-0.455L0.479,0.035L0.263,-0.456L0.182,0L0.064,0Z" style="fill:rgb(102,102,102);fill-rule:nonzero;"/>
                </g>
                <g transform="matrix(27.3935,0,0,27.3935,422.885,269.209)">
                    <path d="M0.506,-0.647L0.204,-0.647L0.204,-0.466L0.498,-0.466L0.498,-0.359L0.204,-0.359L0.204,-0.107L0.506,-0.107L0.506,0L0.09,0L0.09,-0.754L0.506,-0.754L0.506,-0.647Z" style="fill:rgb(102,102,102);fill-rule:nonzero;"/>
                </g>
                <g transform="matrix(27.3935,0,0,27.3935,437.553,269.209)">
                    <path d="M0.09,0L0.09,-0.805L0.64,-0.23L0.64,-0.754L0.754,-0.754L0.754,0.046L0.204,-0.528L0.204,0L0.09,0Z" style="fill:rgb(102,102,102);fill-rule:nonzero;"/>
                </g>
                <g transform="matrix(27.3935,0,0,27.3935,459.858,269.209)">
                    <path d="M0.298,-0.647L0.298,0L0.185,0L0.185,-0.647L0.011,-0.647L0.011,-0.754L0.471,-0.754L0.471,-0.647L0.298,-0.647Z" style="fill:rgb(102,102,102);fill-rule:nonzero;"/>
                </g>
                <g transform="matrix(27.3935,0,0,27.3935,471.127,269.209)">
                    <path d="M0.533,-0.183L0.21,-0.183L0.126,0L0.004,0L0.377,-0.801L0.737,0L0.612,0L0.533,-0.183ZM0.487,-0.29L0.375,-0.546L0.258,-0.29L0.487,-0.29Z" style="fill:rgb(102,102,102);fill-rule:nonzero;"/>
                </g>
                <g transform="matrix(27.3935,0,0,27.3935,489.446,269.209)">
                    <path d="M0.298,-0.647L0.298,0L0.185,0L0.185,-0.647L0.011,-0.647L0.011,-0.754L0.471,-0.754L0.471,-0.647L0.298,-0.647Z" style="fill:rgb(102,102,102);fill-rule:nonzero;"/>
                </g>
                <g transform="matrix(27.3935,0,0,27.3935,501.84,269.209)">
                    <rect x="0.09" y="-0.754" width="0.114" height="0.754" style="fill:rgb(102,102,102);fill-rule:nonzero;"/>
                </g>
                <g transform="matrix(27.3935,0,0,27.3935,509.097,269.209)">
                    <path d="M0.053,-0.38C0.053,-0.486 0.092,-0.578 0.169,-0.654C0.247,-0.73 0.34,-0.768 0.449,-0.768C0.556,-0.768 0.648,-0.73 0.725,-0.653C0.802,-0.576 0.841,-0.484 0.841,-0.376C0.841,-0.268 0.802,-0.176 0.725,-0.1C0.647,-0.024 0.553,0.014 0.443,0.014C0.346,0.014 0.258,-0.02 0.181,-0.087C0.095,-0.162 0.053,-0.26 0.053,-0.38ZM0.167,-0.379C0.167,-0.296 0.195,-0.227 0.251,-0.173C0.307,-0.12 0.371,-0.093 0.444,-0.093C0.523,-0.093 0.59,-0.12 0.645,-0.175C0.699,-0.23 0.726,-0.298 0.726,-0.377C0.726,-0.457 0.699,-0.525 0.646,-0.579C0.592,-0.634 0.526,-0.661 0.447,-0.661C0.369,-0.661 0.303,-0.634 0.249,-0.579C0.194,-0.525 0.167,-0.458 0.167,-0.379Z" style="fill:rgb(102,102,102);fill-rule:nonzero;"/>
                </g>
                <g transform="matrix(27.3935,0,0,27.3935,532.753,269.209)">
                    <path d="M0.09,0L0.09,-0.805L0.64,-0.23L0.64,-0.754L0.754,-0.754L0.754,0.046L0.204,-0.528L0.204,0L0.09,0Z" style="fill:rgb(102,102,102);fill-rule:nonzero;"/>
                </g>
            </g>
            <g transform="matrix(0.48258,0,0,0.576789,125.405,141.676)">
                <g transform="matrix(38.8017,0,0,38.8017,168.121,253.161)">
                    <path d="M0.204,-0.306L0.204,0L0.09,0L0.09,-0.754L0.219,-0.754C0.282,-0.754 0.33,-0.75 0.362,-0.741C0.395,-0.732 0.424,-0.715 0.448,-0.691C0.492,-0.649 0.513,-0.595 0.513,-0.531C0.513,-0.462 0.49,-0.407 0.444,-0.367C0.398,-0.326 0.335,-0.306 0.257,-0.306L0.204,-0.306ZM0.204,-0.412L0.247,-0.412C0.351,-0.412 0.403,-0.452 0.403,-0.532C0.403,-0.61 0.349,-0.649 0.242,-0.649L0.204,-0.649L0.204,-0.412Z" style="fill:rgb(64,64,64);fill-rule:nonzero;"/>
                </g>
                <g transform="matrix(38.8017,0,0,38.8017,189.076,253.161)">
                    <path d="M0.204,-0.754L0.204,-0.3C0.204,-0.235 0.215,-0.188 0.236,-0.158C0.267,-0.114 0.312,-0.093 0.369,-0.093C0.427,-0.093 0.471,-0.114 0.503,-0.158C0.524,-0.187 0.535,-0.234 0.535,-0.3L0.535,-0.754L0.648,-0.754L0.648,-0.269C0.648,-0.189 0.624,-0.124 0.574,-0.072C0.519,-0.015 0.45,0.014 0.369,0.014C0.288,0.014 0.22,-0.015 0.165,-0.072C0.115,-0.124 0.09,-0.189 0.09,-0.269L0.09,-0.754L0.204,-0.754Z" style="fill:rgb(64,64,64);fill-rule:nonzero;"/>
                </g>
                <g transform="matrix(38.8017,0,0,38.8017,217.741,253.161)">
                    <path d="M0.09,0L0.09,-0.754L0.204,-0.754C0.254,-0.754 0.294,-0.75 0.324,-0.742C0.354,-0.734 0.38,-0.721 0.401,-0.703C0.422,-0.683 0.439,-0.66 0.451,-0.631C0.464,-0.602 0.47,-0.573 0.47,-0.543C0.47,-0.489 0.45,-0.443 0.408,-0.406C0.448,-0.392 0.48,-0.368 0.503,-0.334C0.526,-0.3 0.538,-0.261 0.538,-0.216C0.538,-0.157 0.517,-0.107 0.476,-0.066C0.451,-0.041 0.422,-0.024 0.391,-0.014C0.357,-0.005 0.314,0 0.263,0L0.09,0ZM0.204,-0.43L0.24,-0.43C0.282,-0.43 0.313,-0.44 0.333,-0.458C0.352,-0.477 0.362,-0.505 0.362,-0.541C0.362,-0.576 0.352,-0.603 0.332,-0.622C0.312,-0.64 0.283,-0.649 0.244,-0.649L0.204,-0.649L0.204,-0.43ZM0.204,-0.107L0.274,-0.107C0.326,-0.107 0.364,-0.117 0.388,-0.137C0.413,-0.159 0.426,-0.187 0.426,-0.22C0.426,-0.253 0.414,-0.28 0.389,-0.302C0.365,-0.324 0.323,-0.335 0.262,-0.335L0.204,-0.335L0.204,-0.107Z" style="fill:rgb(64,64,64);fill-rule:nonzero;"/>
                </g>
                <g transform="matrix(38.8017,0,0,38.8017,240.685,253.161)">
                    <path d="M0.204,-0.754L0.204,-0.107L0.426,-0.107L0.426,0L0.09,0L0.09,-0.754L0.204,-0.754Z" style="fill:rgb(64,64,64);fill-rule:nonzero;"/>
                </g>
                <g transform="matrix(38.8017,0,0,38.8017,257.888,253.161)">
                    <rect x="0.09" y="-0.754" width="0.114" height="0.754" style="fill:rgb(64,64,64);fill-rule:nonzero;"/>
                </g>
                <g transform="matrix(38.8017,0,0,38.8017,269.332,253.161)">
                    <path d="M0.647,-0.713L0.647,-0.579C0.582,-0.634 0.514,-0.661 0.443,-0.661C0.366,-0.661 0.301,-0.633 0.248,-0.578C0.194,-0.522 0.167,-0.455 0.167,-0.375C0.167,-0.295 0.194,-0.229 0.248,-0.174C0.301,-0.12 0.366,-0.093 0.444,-0.093C0.484,-0.093 0.518,-0.099 0.546,-0.112C0.562,-0.119 0.578,-0.128 0.594,-0.139C0.611,-0.15 0.629,-0.163 0.647,-0.179L0.647,-0.042C0.582,-0.005 0.514,0.014 0.442,0.014C0.335,0.014 0.243,-0.024 0.167,-0.099C0.091,-0.175 0.053,-0.266 0.053,-0.374C0.053,-0.47 0.084,-0.555 0.148,-0.63C0.226,-0.722 0.327,-0.769 0.451,-0.769C0.519,-0.769 0.584,-0.75 0.647,-0.713Z" style="fill:rgb(64,64,64);fill-rule:nonzero;"/>
                </g>
                <g transform="matrix(38.8017,0,0,38.8017,168.121,298.113)">
                    <path d="M0.204,-0.306L0.204,0L0.09,0L0.09,-0.754L0.219,-0.754C0.282,-0.754 0.33,-0.75 0.362,-0.741C0.395,-0.732 0.424,-0.715 0.448,-0.691C0.492,-0.649 0.513,-0.595 0.513,-0.531C0.513,-0.462 0.49,-0.407 0.444,-0.367C0.398,-0.326 0.335,-0.306 0.257,-0.306L0.204,-0.306ZM0.204,-0.412L0.247,-0.412C0.351,-0.412 0.403,-0.452 0.403,-0.532C0.403,-0.61 0.349,-0.649 0.242,-0.649L0.204,-0.649L0.204,-0.412Z" style="fill:rgb(64,64,64);fill-rule:nonzero;"/>
                </g>
                <g transform="matrix(38.8017,0,0,38.8017,189.076,298.113)">
                    <path d="M0.346,-0.321L0.579,0L0.44,0L0.225,-0.309L0.204,-0.309L0.204,0L0.09,0L0.09,-0.754L0.224,-0.754C0.323,-0.754 0.395,-0.735 0.439,-0.698C0.488,-0.656 0.513,-0.601 0.513,-0.533C0.513,-0.479 0.497,-0.433 0.467,-0.395C0.436,-0.357 0.396,-0.332 0.346,-0.321ZM0.204,-0.408L0.24,-0.408C0.348,-0.408 0.402,-0.449 0.402,-0.531C0.402,-0.608 0.349,-0.647 0.245,-0.647L0.204,-0.647L0.204,-0.408Z" style="fill:rgb(64,64,64);fill-rule:nonzero;"/>
                </g>
                <g transform="matrix(38.8017,0,0,38.8017,211.773,298.113)">
                    <path d="M0.053,-0.38C0.053,-0.486 0.092,-0.578 0.169,-0.654C0.247,-0.73 0.34,-0.768 0.449,-0.768C0.556,-0.768 0.648,-0.73 0.725,-0.653C0.802,-0.576 0.841,-0.484 0.841,-0.376C0.841,-0.268 0.802,-0.176 0.725,-0.1C0.647,-0.024 0.553,0.014 0.443,0.014C0.346,0.014 0.258,-0.02 0.181,-0.087C0.095,-0.162 0.053,-0.26 0.053,-0.38ZM0.167,-0.379C0.167,-0.296 0.195,-0.227 0.251,-0.173C0.307,-0.12 0.371,-0.093 0.444,-0.093C0.523,-0.093 0.59,-0.12 0.645,-0.175C0.699,-0.23 0.726,-0.298 0.726,-0.377C0.726,-0.457 0.699,-0.525 0.646,-0.579C0.592,-0.634 0.526,-0.661 0.447,-0.661C0.369,-0.661 0.303,-0.634 0.249,-0.579C0.194,-0.525 0.167,-0.458 0.167,-0.379Z" style="fill:rgb(64,64,64);fill-rule:nonzero;"/>
                </g>
                <g transform="matrix(38.8017,0,0,38.8017,246.445,298.113)">
                    <path d="M0.204,-0.306L0.204,0L0.09,0L0.09,-0.754L0.219,-0.754C0.282,-0.754 0.33,-0.75 0.362,-0.741C0.395,-0.732 0.424,-0.715 0.448,-0.691C0.492,-0.649 0.513,-0.595 0.513,-0.531C0.513,-0.462 0.49,-0.407 0.444,-0.367C0.398,-0.326 0.335,-0.306 0.257,-0.306L0.204,-0.306ZM0.204,-0.412L0.247,-0.412C0.351,-0.412 0.403,-0.452 0.403,-0.532C0.403,-0.61 0.349,-0.649 0.242,-0.649L0.204,-0.649L0.204,-0.412Z" style="fill:rgb(64,64,64);fill-rule:nonzero;"/>
                </g>
                <g transform="matrix(38.8017,0,0,38.8017,267.399,298.113)">
                    <path d="M0.506,-0.647L0.204,-0.647L0.204,-0.466L0.498,-0.466L0.498,-0.359L0.204,-0.359L0.204,-0.107L0.506,-0.107L0.506,0L0.09,0L0.09,-0.754L0.506,-0.754L0.506,-0.647Z" style="fill:rgb(64,64,64);fill-rule:nonzero;"/>
                </g>
                <g transform="matrix(38.8017,0,0,38.8017,289.339,298.113)">
                    <path d="M0.346,-0.321L0.579,0L0.44,0L0.225,-0.309L0.204,-0.309L0.204,0L0.09,0L0.09,-0.754L0.224,-0.754C0.323,-0.754 0.395,-0.735 0.439,-0.698C0.488,-0.656 0.513,-0.601 0.513,-0.533C0.513,-0.479 0.497,-0.433 0.467,-0.395C0.436,-0.357 0.396,-0.332 0.346,-0.321ZM0.204,-0.408L0.24,-0.408C0.348,-0.408 0.402,-0.449 0.402,-0.531C0.402,-0.608 0.349,-0.647 0.245,-0.647L0.204,-0.647L0.204,-0.408Z" style="fill:rgb(64,64,64);fill-rule:nonzero;"/>
                </g>
                <g transform="matrix(38.8017,0,0,38.8017,312.358,298.113)">
                    <path d="M0.298,-0.647L0.298,0L0.185,0L0.185,-0.647L0.011,-0.647L0.011,-0.754L0.471,-0.754L0.471,-0.647L0.298,-0.647Z" style="fill:rgb(64,64,64);fill-rule:nonzero;"/>
                </g>
                <g transform="matrix(38.8017,0,0,38.8017,331.077,298.113)">
                    <rect x="0.09" y="-0.754" width="0.114" height="0.754" style="fill:rgb(64,64,64);fill-rule:nonzero;"/>
                </g>
                <g transform="matrix(38.8017,0,0,38.8017,342.52,298.113)">
                    <path d="M0.506,-0.647L0.204,-0.647L0.204,-0.466L0.498,-0.466L0.498,-0.359L0.204,-0.359L0.204,-0.107L0.506,-0.107L0.506,0L0.09,0L0.09,-0.754L0.506,-0.754L0.506,-0.647Z" style="fill:rgb(64,64,64);fill-rule:nonzero;"/>
                </g>
                <g transform="matrix(38.8017,0,0,38.8017,364.46,298.113)">
                    <path d="M0.517,-0.642L0.424,-0.587C0.407,-0.617 0.391,-0.636 0.375,-0.646C0.359,-0.656 0.338,-0.661 0.312,-0.661C0.28,-0.661 0.254,-0.652 0.233,-0.634C0.213,-0.617 0.202,-0.595 0.202,-0.568C0.202,-0.531 0.229,-0.501 0.284,-0.479L0.359,-0.448C0.421,-0.424 0.465,-0.393 0.494,-0.358C0.522,-0.322 0.536,-0.278 0.536,-0.227C0.536,-0.157 0.513,-0.1 0.467,-0.055C0.42,-0.009 0.362,0.014 0.293,0.014C0.228,0.014 0.174,-0.006 0.131,-0.044C0.089,-0.083 0.063,-0.138 0.053,-0.208L0.168,-0.233C0.173,-0.189 0.182,-0.159 0.195,-0.142C0.219,-0.109 0.253,-0.093 0.298,-0.093C0.333,-0.093 0.363,-0.105 0.386,-0.128C0.41,-0.152 0.421,-0.182 0.421,-0.219C0.421,-0.233 0.419,-0.247 0.415,-0.259C0.411,-0.271 0.405,-0.282 0.396,-0.293C0.388,-0.303 0.376,-0.313 0.363,-0.322C0.349,-0.33 0.333,-0.339 0.314,-0.347L0.241,-0.377C0.138,-0.421 0.086,-0.485 0.086,-0.569C0.086,-0.625 0.108,-0.673 0.151,-0.711C0.195,-0.749 0.249,-0.769 0.313,-0.769C0.4,-0.769 0.468,-0.726 0.517,-0.642Z" style="fill:rgb(64,64,64);fill-rule:nonzero;"/>
                </g>
                <g transform="matrix(38.8017,0,0,38.8017,168.121,343.065)">
                    <path d="M0.387,-0.419L0.522,-0.255L0.527,-0.26C0.542,-0.276 0.555,-0.292 0.568,-0.307C0.581,-0.322 0.594,-0.338 0.606,-0.354L0.68,-0.277C0.671,-0.264 0.659,-0.249 0.644,-0.232C0.629,-0.215 0.612,-0.195 0.591,-0.172L0.731,0L0.589,0L0.514,-0.092C0.445,-0.021 0.373,0.015 0.299,0.015C0.232,0.015 0.175,-0.007 0.129,-0.049C0.083,-0.092 0.061,-0.145 0.061,-0.208C0.061,-0.284 0.097,-0.346 0.169,-0.396L0.218,-0.43L0.229,-0.438C0.179,-0.491 0.154,-0.543 0.154,-0.594C0.154,-0.645 0.17,-0.686 0.204,-0.718C0.237,-0.75 0.281,-0.766 0.334,-0.766C0.386,-0.766 0.429,-0.751 0.463,-0.72C0.497,-0.689 0.514,-0.65 0.514,-0.603C0.514,-0.57 0.504,-0.541 0.486,-0.514C0.468,-0.488 0.435,-0.456 0.387,-0.419ZM0.296,-0.355L0.29,-0.351C0.243,-0.319 0.212,-0.293 0.195,-0.273C0.178,-0.254 0.17,-0.233 0.17,-0.211C0.17,-0.18 0.182,-0.152 0.208,-0.125C0.234,-0.1 0.262,-0.088 0.293,-0.088C0.337,-0.088 0.388,-0.117 0.445,-0.174L0.296,-0.355ZM0.321,-0.5L0.33,-0.506C0.346,-0.518 0.359,-0.529 0.37,-0.538C0.38,-0.547 0.388,-0.554 0.392,-0.561C0.402,-0.573 0.407,-0.587 0.407,-0.605C0.407,-0.625 0.4,-0.641 0.387,-0.653C0.373,-0.666 0.355,-0.672 0.333,-0.672C0.313,-0.672 0.295,-0.666 0.281,-0.653C0.267,-0.641 0.26,-0.625 0.26,-0.606C0.26,-0.584 0.269,-0.563 0.287,-0.541L0.315,-0.507C0.316,-0.505 0.318,-0.503 0.321,-0.5Z" style="fill:rgb(64,64,64);fill-rule:nonzero;"/>
                </g>
                <g transform="matrix(38.8017,0,0,38.8017,208.458,343.065)">
                    <path d="M0.064,0L0.223,-0.811L0.481,-0.225L0.75,-0.811L0.892,0L0.775,0L0.703,-0.455L0.479,0.035L0.263,-0.456L0.182,0L0.064,0Z" style="fill:rgb(64,64,64);fill-rule:nonzero;"/>
                </g>
                <g transform="matrix(38.8017,0,0,38.8017,245.763,343.065)">
                    <path d="M0.506,-0.647L0.204,-0.647L0.204,-0.466L0.498,-0.466L0.498,-0.359L0.204,-0.359L0.204,-0.107L0.506,-0.107L0.506,0L0.09,0L0.09,-0.754L0.506,-0.754L0.506,-0.647Z" style="fill:rgb(64,64,64);fill-rule:nonzero;"/>
                </g>
                <g transform="matrix(38.8017,0,0,38.8017,267.702,343.065)">
                    <path d="M0.298,-0.647L0.298,0L0.185,0L0.185,-0.647L0.011,-0.647L0.011,-0.754L0.471,-0.754L0.471,-0.647L0.298,-0.647Z" style="fill:rgb(64,64,64);fill-rule:nonzero;"/>
                </g>
                <g transform="matrix(38.8017,0,0,38.8017,286.421,343.065)">
                    <path d="M0.204,-0.459L0.529,-0.459L0.529,-0.754L0.643,-0.754L0.643,0L0.529,0L0.529,-0.352L0.204,-0.352L0.204,0L0.09,0L0.09,-0.754L0.204,-0.754L0.204,-0.459Z" style="fill:rgb(64,64,64);fill-rule:nonzero;"/>
                </g>
                <g transform="matrix(38.8017,0,0,38.8017,314.878,343.065)">
                    <path d="M0.053,-0.38C0.053,-0.486 0.092,-0.578 0.169,-0.654C0.247,-0.73 0.34,-0.768 0.449,-0.768C0.556,-0.768 0.648,-0.73 0.725,-0.653C0.802,-0.576 0.841,-0.484 0.841,-0.376C0.841,-0.268 0.802,-0.176 0.725,-0.1C0.647,-0.024 0.553,0.014 0.443,0.014C0.346,0.014 0.258,-0.02 0.181,-0.087C0.095,-0.162 0.053,-0.26 0.053,-0.38ZM0.167,-0.379C0.167,-0.296 0.195,-0.227 0.251,-0.173C0.307,-0.12 0.371,-0.093 0.444,-0.093C0.523,-0.093 0.59,-0.12 0.645,-0.175C0.699,-0.23 0.726,-0.298 0.726,-0.377C0.726,-0.457 0.699,-0.525 0.646,-0.579C0.592,-0.634 0.526,-0.661 0.447,-0.661C0.369,-0.661 0.303,-0.634 0.249,-0.579C0.194,-0.525 0.167,-0.458 0.167,-0.379Z" style="fill:rgb(64,64,64);fill-rule:nonzero;"/>
                </g>
                <g transform="matrix(38.8017,0,0,38.8017,349.549,343.065)">
                    <path d="M0.09,0L0.09,-0.754L0.249,-0.754C0.324,-0.754 0.384,-0.746 0.428,-0.731C0.475,-0.717 0.518,-0.692 0.557,-0.657C0.634,-0.586 0.673,-0.493 0.673,-0.377C0.673,-0.261 0.633,-0.167 0.552,-0.096C0.511,-0.06 0.468,-0.035 0.424,-0.021C0.382,-0.007 0.323,0 0.247,0L0.09,0ZM0.204,-0.107L0.255,-0.107C0.306,-0.107 0.349,-0.112 0.383,-0.123C0.417,-0.134 0.447,-0.153 0.475,-0.177C0.531,-0.228 0.559,-0.295 0.559,-0.377C0.559,-0.46 0.531,-0.527 0.476,-0.578C0.426,-0.624 0.352,-0.647 0.255,-0.647L0.204,-0.647L0.204,-0.107Z" style="fill:rgb(64,64,64);fill-rule:nonzero;"/>
                </g>
                <g transform="matrix(38.8017,0,0,38.8017,377.722,343.065)">
                    <path d="M0.517,-0.642L0.424,-0.587C0.407,-0.617 0.391,-0.636 0.375,-0.646C0.359,-0.656 0.338,-0.661 0.312,-0.661C0.28,-0.661 0.254,-0.652 0.233,-0.634C0.213,-0.617 0.202,-0.595 0.202,-0.568C0.202,-0.531 0.229,-0.501 0.284,-0.479L0.359,-0.448C0.421,-0.424 0.465,-0.393 0.494,-0.358C0.522,-0.322 0.536,-0.278 0.536,-0.227C0.536,-0.157 0.513,-0.1 0.467,-0.055C0.42,-0.009 0.362,0.014 0.293,0.014C0.228,0.014 0.174,-0.006 0.131,-0.044C0.089,-0.083 0.063,-0.138 0.053,-0.208L0.168,-0.233C0.173,-0.189 0.182,-0.159 0.195,-0.142C0.219,-0.109 0.253,-0.093 0.298,-0.093C0.333,-0.093 0.363,-0.105 0.386,-0.128C0.41,-0.152 0.421,-0.182 0.421,-0.219C0.421,-0.233 0.419,-0.247 0.415,-0.259C0.411,-0.271 0.405,-0.282 0.396,-0.293C0.388,-0.303 0.376,-0.313 0.363,-0.322C0.349,-0.33 0.333,-0.339 0.314,-0.347L0.241,-0.377C0.138,-0.421 0.086,-0.485 0.086,-0.569C0.086,-0.625 0.108,-0.673 0.151,-0.711C0.195,-0.749 0.249,-0.769 0.313,-0.769C0.4,-0.769 0.468,-0.726 0.517,-0.642Z" style="fill:rgb(64,64,64);fill-rule:nonzero;"/>
                </g>
            </g>
            <g transform="matrix(0.48258,0,0,0.576789,126.466,297.673)">
                <g transform="matrix(38.8017,0,0,38.8017,168.121,253.161)">
                    <path d="M0.204,-0.306L0.204,0L0.09,0L0.09,-0.754L0.219,-0.754C0.282,-0.754 0.33,-0.75 0.362,-0.741C0.395,-0.732 0.424,-0.715 0.448,-0.691C0.492,-0.649 0.513,-0.595 0.513,-0.531C0.513,-0.462 0.49,-0.407 0.444,-0.367C0.398,-0.326 0.335,-0.306 0.257,-0.306L0.204,-0.306ZM0.204,-0.412L0.247,-0.412C0.351,-0.412 0.403,-0.452 0.403,-0.532C0.403,-0.61 0.349,-0.649 0.242,-0.649L0.204,-0.649L0.204,-0.412Z" style="fill:rgb(64,64,64);fill-rule:nonzero;"/>
                </g>
                <g transform="matrix(38.8017,0,0,38.8017,189.076,253.161)">
                    <path d="M0.346,-0.321L0.579,0L0.44,0L0.225,-0.309L0.204,-0.309L0.204,0L0.09,0L0.09,-0.754L0.224,-0.754C0.323,-0.754 0.395,-0.735 0.439,-0.698C0.488,-0.656 0.513,-0.601 0.513,-0.533C0.513,-0.479 0.497,-0.433 0.467,-0.395C0.436,-0.357 0.396,-0.332 0.346,-0.321ZM0.204,-0.408L0.24,-0.408C0.348,-0.408 0.402,-0.449 0.402,-0.531C0.402,-0.608 0.349,-0.647 0.245,-0.647L0.204,-0.647L0.204,-0.408Z" style="fill:rgb(64,64,64);fill-rule:nonzero;"/>
                </g>
                <g transform="matrix(38.8017,0,0,38.8017,212.436,253.161)">
                    <rect x="0.09" y="-0.754" width="0.114" height="0.754" style="fill:rgb(64,64,64);fill-rule:nonzero;"/>
                </g>
                <g transform="matrix(38.8017,0,0,38.8017,223.88,253.161)">
                    <path d="M0.128,-0.754L0.337,-0.231L0.548,-0.754L0.673,-0.754L0.334,0.057L0.004,-0.754L0.128,-0.754Z" style="fill:rgb(64,64,64);fill-rule:nonzero;"/>
                </g>
                <g transform="matrix(38.8017,0,0,38.8017,247.676,253.161)">
                    <path d="M0.533,-0.183L0.21,-0.183L0.126,0L0.004,0L0.377,-0.801L0.737,0L0.612,0L0.533,-0.183ZM0.487,-0.29L0.375,-0.546L0.258,-0.29L0.487,-0.29Z" style="fill:rgb(64,64,64);fill-rule:nonzero;"/>
                </g>
                <g transform="matrix(38.8017,0,0,38.8017,274.788,253.161)">
                    <path d="M0.298,-0.647L0.298,0L0.185,0L0.185,-0.647L0.011,-0.647L0.011,-0.754L0.471,-0.754L0.471,-0.647L0.298,-0.647Z" style="fill:rgb(64,64,64);fill-rule:nonzero;"/>
                </g>
                <g transform="matrix(38.8017,0,0,38.8017,293.507,253.161)">
                    <path d="M0.506,-0.647L0.204,-0.647L0.204,-0.466L0.498,-0.466L0.498,-0.359L0.204,-0.359L0.204,-0.107L0.506,-0.107L0.506,0L0.09,0L0.09,-0.754L0.506,-0.754L0.506,-0.647Z" style="fill:rgb(64,64,64);fill-rule:nonzero;"/>
                </g>
                <g transform="matrix(38.8017,0,0,38.8017,168.121,298.113)">
                    <path d="M0.204,-0.306L0.204,0L0.09,0L0.09,-0.754L0.219,-0.754C0.282,-0.754 0.33,-0.75 0.362,-0.741C0.395,-0.732 0.424,-0.715 0.448,-0.691C0.492,-0.649 0.513,-0.595 0.513,-0.531C0.513,-0.462 0.49,-0.407 0.444,-0.367C0.398,-0.326 0.335,-0.306 0.257,-0.306L0.204,-0.306ZM0.204,-0.412L0.247,-0.412C0.351,-0.412 0.403,-0.452 0.403,-0.532C0.403,-0.61 0.349,-0.649 0.242,-0.649L0.204,-0.649L0.204,-0.412Z" style="fill:rgb(64,64,64);fill-rule:nonzero;"/>
                </g>
                <g transform="matrix(38.8017,0,0,38.8017,189.076,298.113)">
                    <path d="M0.346,-0.321L0.579,0L0.44,0L0.225,-0.309L0.204,-0.309L0.204,0L0.09,0L0.09,-0.754L0.224,-0.754C0.323,-0.754 0.395,-0.735 0.439,-0.698C0.488,-0.656 0.513,-0.601 0.513,-0.533C0.513,-0.479 0.497,-0.433 0.467,-0.395C0.436,-0.357 0.396,-0.332 0.346,-0.321ZM0.204,-0.408L0.24,-0.408C0.348,-0.408 0.402,-0.449 0.402,-0.531C0.402,-0.608 0.349,-0.647 0.245,-0.647L0.204,-0.647L0.204,-0.408Z" style="fill:rgb(64,64,64);fill-rule:nonzero;"/>
                </g>
                <g transform="matrix(38.8017,0,0,38.8017,211.773,298.113)">
                    <path d="M0.053,-0.38C0.053,-0.486 0.092,-0.578 0.169,-0.654C0.247,-0.73 0.34,-0.768 0.449,-0.768C0.556,-0.768 0.648,-0.73 0.725,-0.653C0.802,-0.576 0.841,-0.484 0.841,-0.376C0.841,-0.268 0.802,-0.176 0.725,-0.1C0.647,-0.024 0.553,0.014 0.443,0.014C0.346,0.014 0.258,-0.02 0.181,-0.087C0.095,-0.162 0.053,-0.26 0.053,-0.38ZM0.167,-0.379C0.167,-0.296 0.195,-0.227 0.251,-0.173C0.307,-0.12 0.371,-0.093 0.444,-0.093C0.523,-0.093 0.59,-0.12 0.645,-0.175C0.699,-0.23 0.726,-0.298 0.726,-0.377C0.726,-0.457 0.699,-0.525 0.646,-0.579C0.592,-0.634 0.526,-0.661 0.447,-0.661C0.369,-0.661 0.303,-0.634 0.249,-0.579C0.194,-0.525 0.167,-0.458 0.167,-0.379Z" style="fill:rgb(64,64,64);fill-rule:nonzero;"/>
                </g>
                <g transform="matrix(38.8017,0,0,38.8017,246.445,298.113)">
                    <path d="M0.204,-0.306L0.204,0L0.09,0L0.09,-0.754L0.219,-0.754C0.282,-0.754 0.33,-0.75 0.362,-0.741C0.395,-0.732 0.424,-0.715 0.448,-0.691C0.492,-0.649 0.513,-0.595 0.513,-0.531C0.513,-0.462 0.49,-0.407 0.444,-0.367C0.398,-0.326 0.335,-0.306 0.257,-0.306L0.204,-0.306ZM0.204,-0.412L0.247,-0.412C0.351,-0.412 0.403,-0.452 0.403,-0.532C0.403,-0.61 0.349,-0.649 0.242,-0.649L0.204,-0.649L0.204,-0.412Z" style="fill:rgb(64,64,64);fill-rule:nonzero;"/>
                </g>
                <g transform="matrix(38.8017,0,0,38.8017,267.399,298.113)">
                    <path d="M0.506,-0.647L0.204,-0.647L0.204,-0.466L0.498,-0.466L0.498,-0.359L0.204,-0.359L0.204,-0.107L0.506,-0.107L0.506,0L0.09,0L0.09,-0.754L0.506,-0.754L0.506,-0.647Z" style="fill:rgb(64,64,64);fill-rule:nonzero;"/>
                </g>
                <g transform="matrix(38.8017,0,0,38.8017,289.339,298.113)">
                    <path d="M0.346,-0.321L0.579,0L0.44,0L0.225,-0.309L0.204,-0.309L0.204,0L0.09,0L0.09,-0.754L0.224,-0.754C0.323,-0.754 0.395,-0.735 0.439,-0.698C0.488,-0.656 0.513,-0.601 0.513,-0.533C0.513,-0.479 0.497,-0.433 0.467,-0.395C0.436,-0.357 0.396,-0.332 0.346,-0.321ZM0.204,-0.408L0.24,-0.408C0.348,-0.408 0.402,-0.449 0.402,-0.531C0.402,-0.608 0.349,-0.647 0.245,-0.647L0.204,-0.647L0.204,-0.408Z" style="fill:rgb(64,64,64);fill-rule:nonzero;"/>
                </g>
                <g transform="matrix(38.8017,0,0,38.8017,312.358,298.113)">
                    <path d="M0.298,-0.647L0.298,0L0.185,0L0.185,-0.647L0.011,-0.647L0.011,-0.754L0.471,-0.754L0.471,-0.647L0.298,-0.647Z" style="fill:rgb(64,64,64);fill-rule:nonzero;"/>
                </g>
                <g transform="matrix(38.8017,0,0,38.8017,331.077,298.113)">
                    <rect x="0.09" y="-0.754" width="0.114" height="0.754" style="fill:rgb(64,64,64);fill-rule:nonzero;"/>
                </g>
                <g transform="matrix(38.8017,0,0,38.8017,342.52,298.113)">
                    <path d="M0.506,-0.647L0.204,-0.647L0.204,-0.466L0.498,-0.466L0.498,-0.359L0.204,-0.359L0.204,-0.107L0.506,-0.107L0.506,0L0.09,0L0.09,-0.754L0.506,-0.754L0.506,-0.647Z" style="fill:rgb(64,64,64);fill-rule:nonzero;"/>
                </g>
                <g transform="matrix(38.8017,0,0,38.8017,364.46,298.113)">
                    <path d="M0.517,-0.642L0.424,-0.587C0.407,-0.617 0.391,-0.636 0.375,-0.646C0.359,-0.656 0.338,-0.661 0.312,-0.661C0.28,-0.661 0.254,-0.652 0.233,-0.634C0.213,-0.617 0.202,-0.595 0.202,-0.568C0.202,-0.531 0.229,-0.501 0.284,-0.479L0.359,-0.448C0.421,-0.424 0.465,-0.393 0.494,-0.358C0.522,-0.322 0.536,-0.278 0.536,-0.227C0.536,-0.157 0.513,-0.1 0.467,-0.055C0.42,-0.009 0.362,0.014 0.293,0.014C0.228,0.014 0.174,-0.006 0.131,-0.044C0.089,-0.083 0.063,-0.138 0.053,-0.208L0.168,-0.233C0.173,-0.189 0.182,-0.159 0.195,-0.142C0.219,-0.109 0.253,-0.093 0.298,-0.093C0.333,-0.093 0.363,-0.105 0.386,-0.128C0.41,-0.152 0.421,-0.182 0.421,-0.219C0.421,-0.233 0.419,-0.247 0.415,-0.259C0.411,-0.271 0.405,-0.282 0.396,-0.293C0.388,-0.303 0.376,-0.313 0.363,-0.322C0.349,-0.33 0.333,-0.339 0.314,-0.347L0.241,-0.377C0.138,-0.421 0.086,-0.485 0.086,-0.569C0.086,-0.625 0.108,-0.673 0.151,-0.711C0.195,-0.749 0.249,-0.769 0.313,-0.769C0.4,-0.769 0.468,-0.726 0.517,-0.642Z" style="fill:rgb(64,64,64);fill-rule:nonzero;"/>
                </g>
                <g transform="matrix(38.8017,0,0,38.8017,168.121,343.065)">
                    <path d="M0.387,-0.419L0.522,-0.255L0.527,-0.26C0.542,-0.276 0.555,-0.292 0.568,-0.307C0.581,-0.322 0.594,-0.338 0.606,-0.354L0.68,-0.277C0.671,-0.264 0.659,-0.249 0.644,-0.232C0.629,-0.215 0.612,-0.195 0.591,-0.172L0.731,0L0.589,0L0.514,-0.092C0.445,-0.021 0.373,0.015 0.299,0.015C0.232,0.015 0.175,-0.007 0.129,-0.049C0.083,-0.092 0.061,-0.145 0.061,-0.208C0.061,-0.284 0.097,-0.346 0.169,-0.396L0.218,-0.43L0.229,-0.438C0.179,-0.491 0.154,-0.543 0.154,-0.594C0.154,-0.645 0.17,-0.686 0.204,-0.718C0.237,-0.75 0.281,-0.766 0.334,-0.766C0.386,-0.766 0.429,-0.751 0.463,-0.72C0.497,-0.689 0.514,-0.65 0.514,-0.603C0.514,-0.57 0.504,-0.541 0.486,-0.514C0.468,-0.488 0.435,-0.456 0.387,-0.419ZM0.296,-0.355L0.29,-0.351C0.243,-0.319 0.212,-0.293 0.195,-0.273C0.178,-0.254 0.17,-0.233 0.17,-0.211C0.17,-0.18 0.182,-0.152 0.208,-0.125C0.234,-0.1 0.262,-0.088 0.293,-0.088C0.337,-0.088 0.388,-0.117 0.445,-0.174L0.296,-0.355ZM0.321,-0.5L0.33,-0.506C0.346,-0.518 0.359,-0.529 0.37,-0.538C0.38,-0.547 0.388,-0.554 0.392,-0.561C0.402,-0.573 0.407,-0.587 0.407,-0.605C0.407,-0.625 0.4,-0.641 0.387,-0.653C0.373,-0.666 0.355,-0.672 0.333,-0.672C0.313,-0.672 0.295,-0.666 0.281,-0.653C0.267,-0.641 0.26,-0.625 0.26,-0.606C0.26,-0.584 0.269,-0.563 0.287,-0.541L0.315,-0.507C0.316,-0.505 0.318,-0.503 0.321,-0.5Z" style="fill:rgb(64,64,64);fill-rule:nonzero;"/>
                </g>
                <g transform="matrix(38.8017,0,0,38.8017,208.458,343.065)">
                    <path d="M0.064,0L0.223,-0.811L0.481,-0.225L0.75,-0.811L0.892,0L0.775,0L0.703,-0.455L0.479,0.035L0.263,-0.456L0.182,0L0.064,0Z" style="fill:rgb(64,64,64);fill-rule:nonzero;"/>
                </g>
                <g transform="matrix(38.8017,0,0,38.8017,245.763,343.065)">
                    <path d="M0.506,-0.647L0.204,-0.647L0.204,-0.466L0.498,-0.466L0.498,-0.359L0.204,-0.359L0.204,-0.107L0.506,-0.107L0.506,0L0.09,0L0.09,-0.754L0.506,-0.754L0.506,-0.647Z" style="fill:rgb(64,64,64);fill-rule:nonzero;"/>
                </g>
                <g transform="matrix(38.8017,0,0,38.8017,267.702,343.065)">
                    <path d="M0.298,-0.647L0.298,0L0.185,0L0.185,-0.647L0.011,-0.647L0.011,-0.754L0.471,-0.754L0.471,-0.647L0.298,-0.647Z" style="fill:rgb(64,64,64);fill-rule:nonzero;"/>
                </g>
                <g transform="matrix(38.8017,0,0,38.8017,286.421,343.065)">
                    <path d="M0.204,-0.459L0.529,-0.459L0.529,-0.754L0.643,-0.754L0.643,0L0.529,0L0.529,-0.352L0.204,-0.352L0.204,0L0.09,0L0.09,-0.754L0.204,-0.754L0.204,-0.459Z" style="fill:rgb(64,64,64);fill-rule:nonzero;"/>
                </g>
                <g transform="matrix(38.8017,0,0,38.8017,314.878,343.065)">
                    <path d="M0.053,-0.38C0.053,-0.486 0.092,-0.578 0.169,-0.654C0.247,-0.73 0.34,-0.768 0.449,-0.768C0.556,-0.768 0.648,-0.73 0.725,-0.653C0.802,-0.576 0.841,-0.484 0.841,-0.376C0.841,-0.268 0.802,-0.176 0.725,-0.1C0.647,-0.024 0.553,0.014 0.443,0.014C0.346,0.014 0.258,-0.02 0.181,-0.087C0.095,-0.162 0.053,-0.26 0.053,-0.38ZM0.167,-0.379C0.167,-0.296 0.195,-0.227 0.251,-0.173C0.307,-0.12 0.371,-0.093 0.444,-0.093C0.523,-0.093 0.59,-0.12 0.645,-0.175C0.699,-0.23 0.726,-0.298 0.726,-0.377C0.726,-0.457 0.699,-0.525 0.646,-0.579C0.592,-0.634 0.526,-0.661 0.447,-0.661C0.369,-0.661 0.303,-0.634 0.249,-0.579C0.194,-0.525 0.167,-0.458 0.167,-0.379Z" style="fill:rgb(64,64,64);fill-rule:nonzero;"/>
                </g>
                <g transform="matrix(38.8017,0,0,38.8017,349.549,343.065)">
                    <path d="M0.09,0L0.09,-0.754L0.249,-0.754C0.324,-0.754 0.384,-0.746 0.428,-0.731C0.475,-0.717 0.518,-0.692 0.557,-0.657C0.634,-0.586 0.673,-0.493 0.673,-0.377C0.673,-0.261 0.633,-0.167 0.552,-0.096C0.511,-0.06 0.468,-0.035 0.424,-0.021C0.382,-0.007 0.323,0 0.247,0L0.09,0ZM0.204,-0.107L0.255,-0.107C0.306,-0.107 0.349,-0.112 0.383,-0.123C0.417,-0.134 0.447,-0.153 0.475,-0.177C0.531,-0.228 0.559,-0.295 0.559,-0.377C0.559,-0.46 0.531,-0.527 0.476,-0.578C0.426,-0.624 0.352,-0.647 0.255,-0.647L0.204,-0.647L0.204,-0.107Z" style="fill:rgb(64,64,64);fill-rule:nonzero;"/>
                </g>
                <g transform="matrix(38.8017,0,0,38.8017,377.722,343.065)">
                    <path d="M0.517,-0.642L0.424,-0.587C0.407,-0.617 0.391,-0.636 0.375,-0.646C0.359,-0.656 0.338,-0.661 0.312,-0.661C0.28,-0.661 0.254,-0.652 0.233,-0.634C0.213,-0.617 0.202,-0.595 0.202,-0.568C0.202,-0.531 0.229,-0.501 0.284,-0.479L0.359,-0.448C0.421,-0.424 0.465,-0.393 0.494,-0.358C0.522,-0.322 0.536,-0.278 0.536,-0.227C0.536,-0.157 0.513,-0.1 0.467,-0.055C0.42,-0.009 0.362,0.014 0.293,0.014C0.228,0.014 0.174,-0.006 0.131,-0.044C0.089,-0.083 0.063,-0.138 0.053,-0.208L0.168,-0.233C0.173,-0.189 0.182,-0.159 0.195,-0.142C0.219,-0.109 0.253,-0.093 0.298,-0.093C0.333,-0.093 0.363,-0.105 0.386,-0.128C0.41,-0.152 0.421,-0.182 0.421,-0.219C0.421,-0.233 0.419,-0.247 0.415,-0.259C0.411,-0.271 0.405,-0.282 0.396,-0.293C0.388,-0.303 0.376,-0.313 0.363,-0.322C0.349,-0.33 0.333,-0.339 0.314,-0.347L0.241,-0.377C0.138,-0.421 0.086,-0.485 0.086,-0.569C0.086,-0.625 0.108,-0.673 0.151,-0.711C0.195,-0.749 0.249,-0.769 0.313,-0.769C0.4,-0.769 0.468,-0.726 0.517,-0.642Z" style="fill:rgb(64,64,64);fill-rule:nonzero;"/>
                </g>
                <g transform="matrix(38.8017,0,0,38.8017,168.121,388.017)">
                    <path d="M0.197,-0.833L0.298,-0.794C0.263,-0.709 0.238,-0.631 0.224,-0.559C0.216,-0.522 0.211,-0.484 0.208,-0.444C0.204,-0.403 0.202,-0.36 0.202,-0.312C0.202,-0.264 0.204,-0.22 0.208,-0.18C0.211,-0.14 0.216,-0.101 0.224,-0.065C0.238,0.007 0.263,0.085 0.298,0.17L0.197,0.209C0.126,0.06 0.09,-0.113 0.09,-0.312C0.09,-0.511 0.126,-0.684 0.197,-0.833Z" style="fill:rgb(64,64,64);fill-rule:nonzero;"/>
                </g>
                <g transform="matrix(38.8017,0,0,38.8017,182.331,388.017)">
                    <path d="M0.204,-0.306L0.204,0L0.09,0L0.09,-0.754L0.219,-0.754C0.282,-0.754 0.33,-0.75 0.362,-0.741C0.395,-0.732 0.424,-0.715 0.448,-0.691C0.492,-0.649 0.513,-0.595 0.513,-0.531C0.513,-0.462 0.49,-0.407 0.444,-0.367C0.398,-0.326 0.335,-0.306 0.257,-0.306L0.204,-0.306ZM0.204,-0.412L0.247,-0.412C0.351,-0.412 0.403,-0.452 0.403,-0.532C0.403,-0.61 0.349,-0.649 0.242,-0.649L0.204,-0.649L0.204,-0.412Z" style="fill:rgb(64,64,64);fill-rule:nonzero;"/>
                </g>
                <g transform="matrix(38.8017,0,0,38.8017,203.285,388.017)">
                    <path d="M0.204,-0.459L0.529,-0.459L0.529,-0.754L0.643,-0.754L0.643,0L0.529,0L0.529,-0.352L0.204,-0.352L0.204,0L0.09,0L0.09,-0.754L0.204,-0.754L0.204,-0.459Z" style="fill:rgb(64,64,64);fill-rule:nonzero;"/>
                </g>
                <g transform="matrix(38.8017,0,0,38.8017,231.742,388.017)">
                    <path d="M0.204,-0.306L0.204,0L0.09,0L0.09,-0.754L0.219,-0.754C0.282,-0.754 0.33,-0.75 0.362,-0.741C0.395,-0.732 0.424,-0.715 0.448,-0.691C0.492,-0.649 0.513,-0.595 0.513,-0.531C0.513,-0.462 0.49,-0.407 0.444,-0.367C0.398,-0.326 0.335,-0.306 0.257,-0.306L0.204,-0.306ZM0.204,-0.412L0.247,-0.412C0.351,-0.412 0.403,-0.452 0.403,-0.532C0.403,-0.61 0.349,-0.649 0.242,-0.649L0.204,-0.649L0.204,-0.412Z" style="fill:rgb(64,64,64);fill-rule:nonzero;"/>
                </g>
                <g transform="matrix(38.8017,0,0,38.8017,249.95,388.017)">
                    <path d="M0.137,-0.141L0.235,-0.103L0.096,0.176L0.021,0.145L0.137,-0.141Z" style="fill:rgb(64,64,64);fill-rule:nonzero;"/>
                </g>
                <g transform="matrix(38.8017,0,0,38.8017,273.898,388.017)">
                    <path d="M0.32,-0.754L0.32,-0.266C0.32,-0.208 0.316,-0.164 0.308,-0.136C0.299,-0.103 0.286,-0.076 0.266,-0.053C0.228,-0.009 0.178,0.014 0.115,0.014C0.067,0.014 0.023,0.001 -0.019,-0.023L0.037,-0.121C0.065,-0.102 0.091,-0.093 0.115,-0.093C0.149,-0.093 0.172,-0.106 0.185,-0.131C0.199,-0.157 0.206,-0.202 0.206,-0.266L0.206,-0.754L0.32,-0.754Z" style="fill:rgb(64,64,64);fill-rule:nonzero;"/>
                </g>
                <g transform="matrix(38.8017,0,0,38.8017,288.808,388.017)">
                    <path d="M0.533,-0.183L0.21,-0.183L0.126,0L0.004,0L0.377,-0.801L0.737,0L0.612,0L0.533,-0.183ZM0.487,-0.29L0.375,-0.546L0.258,-0.29L0.487,-0.29Z" style="fill:rgb(64,64,64);fill-rule:nonzero;"/>
                </g>
                <g transform="matrix(38.8017,0,0,38.8017,315.257,388.017)">
                    <path d="M0.128,-0.754L0.337,-0.231L0.548,-0.754L0.673,-0.754L0.334,0.057L0.004,-0.754L0.128,-0.754Z" style="fill:rgb(64,64,64);fill-rule:nonzero;"/>
                </g>
                <g transform="matrix(38.8017,0,0,38.8017,339.053,388.017)">
                    <path d="M0.533,-0.183L0.21,-0.183L0.126,0L0.004,0L0.377,-0.801L0.737,0L0.612,0L0.533,-0.183ZM0.487,-0.29L0.375,-0.546L0.258,-0.29L0.487,-0.29Z" style="fill:rgb(64,64,64);fill-rule:nonzero;"/>
                </g>
                <g transform="matrix(38.8017,0,0,38.8017,369.727,388.017)">
                    <path d="M0.137,-0.141L0.235,-0.103L0.096,0.176L0.021,0.145L0.137,-0.141Z" style="fill:rgb(64,64,64);fill-rule:nonzero;"/>
                </g>
                <g transform="matrix(38.8017,0,0,38.8017,393.675,388.017)">
                    <path d="M0.506,-0.647L0.204,-0.647L0.204,-0.466L0.498,-0.466L0.498,-0.359L0.204,-0.359L0.204,-0.107L0.506,-0.107L0.506,0L0.09,0L0.09,-0.754L0.506,-0.754L0.506,-0.647Z" style="fill:rgb(64,64,64);fill-rule:nonzero;"/>
                </g>
                <g transform="matrix(38.8017,0,0,38.8017,415.615,388.017)">
                    <path d="M0.298,-0.647L0.298,0L0.185,0L0.185,-0.647L0.011,-0.647L0.011,-0.754L0.471,-0.754L0.471,-0.647L0.298,-0.647Z" style="fill:rgb(64,64,64);fill-rule:nonzero;"/>
                </g>
                <g transform="matrix(38.8017,0,0,38.8017,433.291,388.017)">
                    <path d="M0.647,-0.713L0.647,-0.579C0.582,-0.634 0.514,-0.661 0.443,-0.661C0.366,-0.661 0.301,-0.633 0.248,-0.578C0.194,-0.522 0.167,-0.455 0.167,-0.375C0.167,-0.295 0.194,-0.229 0.248,-0.174C0.301,-0.12 0.366,-0.093 0.444,-0.093C0.484,-0.093 0.518,-0.099 0.546,-0.112C0.562,-0.119 0.578,-0.128 0.594,-0.139C0.611,-0.15 0.629,-0.163 0.647,-0.179L0.647,-0.042C0.582,-0.005 0.514,0.014 0.442,0.014C0.335,0.014 0.243,-0.024 0.167,-0.099C0.091,-0.175 0.053,-0.266 0.053,-0.374C0.053,-0.47 0.084,-0.555 0.148,-0.63C0.226,-0.722 0.327,-0.769 0.451,-0.769C0.519,-0.769 0.584,-0.75 0.647,-0.713Z" style="fill:rgb(64,64,64);fill-rule:nonzero;"/>
                </g>
                <g transform="matrix(38.8017,0,0,38.8017,460.479,388.017)">
                    <path d="M0.086,-0.055C0.086,-0.073 0.093,-0.089 0.106,-0.102C0.12,-0.115 0.136,-0.122 0.154,-0.122C0.173,-0.122 0.189,-0.115 0.202,-0.102C0.215,-0.089 0.222,-0.073 0.222,-0.054C0.222,-0.035 0.215,-0.019 0.202,-0.006C0.189,0.007 0.173,0.014 0.154,0.014C0.135,0.014 0.119,0.007 0.106,-0.006C0.093,-0.019 0.086,-0.035 0.086,-0.055Z" style="fill:rgb(64,64,64);fill-rule:nonzero;"/>
                </g>
                <g transform="matrix(38.8017,0,0,38.8017,472.453,388.017)">
                    <path d="M0.086,-0.055C0.086,-0.073 0.093,-0.089 0.106,-0.102C0.12,-0.115 0.136,-0.122 0.154,-0.122C0.173,-0.122 0.189,-0.115 0.202,-0.102C0.215,-0.089 0.222,-0.073 0.222,-0.054C0.222,-0.035 0.215,-0.019 0.202,-0.006C0.189,0.007 0.173,0.014 0.154,0.014C0.135,0.014 0.119,0.007 0.106,-0.006C0.093,-0.019 0.086,-0.035 0.086,-0.055Z" style="fill:rgb(64,64,64);fill-rule:nonzero;"/>
                </g>
                <g transform="matrix(38.8017,0,0,38.8017,484.427,388.017)">
                    <path d="M0.169,0.209L0.068,0.17C0.104,0.085 0.129,0.007 0.143,-0.065C0.157,-0.137 0.165,-0.219 0.165,-0.312C0.165,-0.404 0.157,-0.487 0.143,-0.559C0.128,-0.631 0.103,-0.709 0.068,-0.794L0.169,-0.833C0.24,-0.684 0.276,-0.511 0.276,-0.312C0.276,-0.113 0.24,0.06 0.169,0.209Z" style="fill:rgb(64,64,64);fill-rule:nonzero;"/>
                </g>
            </g>
            <g transform="matrix(0.48258,0,0,0.576789,400.009,151.759)">
                <g transform="matrix(38.8017,0,0,38.8017,278.445,253.161)">
                    <path d="M0.204,-0.306L0.204,0L0.09,0L0.09,-0.754L0.219,-0.754C0.282,-0.754 0.33,-0.75 0.362,-0.741C0.395,-0.732 0.424,-0.715 0.448,-0.691C0.492,-0.649 0.513,-0.595 0.513,-0.531C0.513,-0.462 0.49,-0.407 0.444,-0.367C0.398,-0.326 0.335,-0.306 0.257,-0.306L0.204,-0.306ZM0.204,-0.412L0.247,-0.412C0.351,-0.412 0.403,-0.452 0.403,-0.532C0.403,-0.61 0.349,-0.649 0.242,-0.649L0.204,-0.649L0.204,-0.412Z" style="fill:rgb(64,64,64);fill-rule:nonzero;"/>
                </g>
                <g transform="matrix(38.8017,0,0,38.8017,299.399,253.161)">
                    <path d="M0.346,-0.321L0.579,0L0.44,0L0.225,-0.309L0.204,-0.309L0.204,0L0.09,0L0.09,-0.754L0.224,-0.754C0.323,-0.754 0.395,-0.735 0.439,-0.698C0.488,-0.656 0.513,-0.601 0.513,-0.533C0.513,-0.479 0.497,-0.433 0.467,-0.395C0.436,-0.357 0.396,-0.332 0.346,-0.321ZM0.204,-0.408L0.24,-0.408C0.348,-0.408 0.402,-0.449 0.402,-0.531C0.402,-0.608 0.349,-0.647 0.245,-0.647L0.204,-0.647L0.204,-0.408Z" style="fill:rgb(64,64,64);fill-rule:nonzero;"/>
                </g>
                <g transform="matrix(38.8017,0,0,38.8017,322.096,253.161)">
                    <path d="M0.053,-0.38C0.053,-0.486 0.092,-0.578 0.169,-0.654C0.247,-0.73 0.34,-0.768 0.449,-0.768C0.556,-0.768 0.648,-0.73 0.725,-0.653C0.802,-0.576 0.841,-0.484 0.841,-0.376C0.841,-0.268 0.802,-0.176 0.725,-0.1C0.647,-0.024 0.553,0.014 0.443,0.014C0.346,0.014 0.258,-0.02 0.181,-0.087C0.095,-0.162 0.053,-0.26 0.053,-0.38ZM0.167,-0.379C0.167,-0.296 0.195,-0.227 0.251,-0.173C0.307,-0.12 0.371,-0.093 0.444,-0.093C0.523,-0.093 0.59,-0.12 0.645,-0.175C0.699,-0.23 0.726,-0.298 0.726,-0.377C0.726,-0.457 0.699,-0.525 0.646,-0.579C0.592,-0.634 0.526,-0.661 0.447,-0.661C0.369,-0.661 0.303,-0.634 0.249,-0.579C0.194,-0.525 0.167,-0.458 0.167,-0.379Z" style="fill:rgb(64,64,64);fill-rule:nonzero;"/>
                </g>
                <g transform="matrix(38.8017,0,0,38.8017,356.768,253.161)">
                    <path d="M0.204,-0.306L0.204,0L0.09,0L0.09,-0.754L0.219,-0.754C0.282,-0.754 0.33,-0.75 0.362,-0.741C0.395,-0.732 0.424,-0.715 0.448,-0.691C0.492,-0.649 0.513,-0.595 0.513,-0.531C0.513,-0.462 0.49,-0.407 0.444,-0.367C0.398,-0.326 0.335,-0.306 0.257,-0.306L0.204,-0.306ZM0.204,-0.412L0.247,-0.412C0.351,-0.412 0.403,-0.452 0.403,-0.532C0.403,-0.61 0.349,-0.649 0.242,-0.649L0.204,-0.649L0.204,-0.412Z" style="fill:rgb(64,64,64);fill-rule:nonzero;"/>
                </g>
                <g transform="matrix(38.8017,0,0,38.8017,377.722,253.161)">
                    <path d="M0.517,-0.642L0.424,-0.587C0.407,-0.617 0.391,-0.636 0.375,-0.646C0.359,-0.656 0.338,-0.661 0.312,-0.661C0.28,-0.661 0.254,-0.652 0.233,-0.634C0.213,-0.617 0.202,-0.595 0.202,-0.568C0.202,-0.531 0.229,-0.501 0.284,-0.479L0.359,-0.448C0.421,-0.424 0.465,-0.393 0.494,-0.358C0.522,-0.322 0.536,-0.278 0.536,-0.227C0.536,-0.157 0.513,-0.1 0.467,-0.055C0.42,-0.009 0.362,0.014 0.293,0.014C0.228,0.014 0.174,-0.006 0.131,-0.044C0.089,-0.083 0.063,-0.138 0.053,-0.208L0.168,-0.233C0.173,-0.189 0.182,-0.159 0.195,-0.142C0.219,-0.109 0.253,-0.093 0.298,-0.093C0.333,-0.093 0.363,-0.105 0.386,-0.128C0.41,-0.152 0.421,-0.182 0.421,-0.219C0.421,-0.233 0.419,-0.247 0.415,-0.259C0.411,-0.271 0.405,-0.282 0.396,-0.293C0.388,-0.303 0.376,-0.313 0.363,-0.322C0.349,-0.33 0.333,-0.339 0.314,-0.347L0.241,-0.377C0.138,-0.421 0.086,-0.485 0.086,-0.569C0.086,-0.625 0.108,-0.673 0.151,-0.711C0.195,-0.749 0.249,-0.769 0.313,-0.769C0.4,-0.769 0.468,-0.726 0.517,-0.642Z" style="fill:rgb(64,64,64);fill-rule:nonzero;"/>
                </g>
                <g transform="matrix(38.8017,0,0,38.8017,215.828,298.113)">
                    <path d="M0.387,-0.419L0.522,-0.255L0.527,-0.26C0.542,-0.276 0.555,-0.292 0.568,-0.307C0.581,-0.322 0.594,-0.338 0.606,-0.354L0.68,-0.277C0.671,-0.264 0.659,-0.249 0.644,-0.232C0.629,-0.215 0.612,-0.195 0.591,-0.172L0.731,0L0.589,0L0.514,-0.092C0.445,-0.021 0.373,0.015 0.299,0.015C0.232,0.015 0.175,-0.007 0.129,-0.049C0.083,-0.092 0.061,-0.145 0.061,-0.208C0.061,-0.284 0.097,-0.346 0.169,-0.396L0.218,-0.43L0.229,-0.438C0.179,-0.491 0.154,-0.543 0.154,-0.594C0.154,-0.645 0.17,-0.686 0.204,-0.718C0.237,-0.75 0.281,-0.766 0.334,-0.766C0.386,-0.766 0.429,-0.751 0.463,-0.72C0.497,-0.689 0.514,-0.65 0.514,-0.603C0.514,-0.57 0.504,-0.541 0.486,-0.514C0.468,-0.488 0.435,-0.456 0.387,-0.419ZM0.296,-0.355L0.29,-0.351C0.243,-0.319 0.212,-0.293 0.195,-0.273C0.178,-0.254 0.17,-0.233 0.17,-0.211C0.17,-0.18 0.182,-0.152 0.208,-0.125C0.234,-0.1 0.262,-0.088 0.293,-0.088C0.337,-0.088 0.388,-0.117 0.445,-0.174L0.296,-0.355ZM0.321,-0.5L0.33,-0.506C0.346,-0.518 0.359,-0.529 0.37,-0.538C0.38,-0.547 0.388,-0.554 0.392,-0.561C0.402,-0.573 0.407,-0.587 0.407,-0.605C0.407,-0.625 0.4,-0.641 0.387,-0.653C0.373,-0.666 0.355,-0.672 0.333,-0.672C0.313,-0.672 0.295,-0.666 0.281,-0.653C0.267,-0.641 0.26,-0.625 0.26,-0.606C0.26,-0.584 0.269,-0.563 0.287,-0.541L0.315,-0.507C0.316,-0.505 0.318,-0.503 0.321,-0.5Z" style="fill:rgb(64,64,64);fill-rule:nonzero;"/>
                </g>
                <g transform="matrix(38.8017,0,0,38.8017,256.164,298.113)">
                    <path d="M0.506,-0.647L0.204,-0.647L0.204,-0.466L0.498,-0.466L0.498,-0.359L0.204,-0.359L0.204,-0.107L0.506,-0.107L0.506,0L0.09,0L0.09,-0.754L0.506,-0.754L0.506,-0.647Z" style="fill:rgb(64,64,64);fill-rule:nonzero;"/>
                </g>
                <g transform="matrix(38.8017,0,0,38.8017,278.104,298.113)">
                    <path d="M0.128,-0.754L0.337,-0.231L0.548,-0.754L0.673,-0.754L0.334,0.057L0.004,-0.754L0.128,-0.754Z" style="fill:rgb(64,64,64);fill-rule:nonzero;"/>
                </g>
                <g transform="matrix(38.8017,0,0,38.8017,304.344,298.113)">
                    <path d="M0.506,-0.647L0.204,-0.647L0.204,-0.466L0.498,-0.466L0.498,-0.359L0.204,-0.359L0.204,-0.107L0.506,-0.107L0.506,0L0.09,0L0.09,-0.754L0.506,-0.754L0.506,-0.647Z" style="fill:rgb(64,64,64);fill-rule:nonzero;"/>
                </g>
                <g transform="matrix(38.8017,0,0,38.8017,326.284,298.113)">
                    <path d="M0.09,0L0.09,-0.805L0.64,-0.23L0.64,-0.754L0.754,-0.754L0.754,0.046L0.204,-0.528L0.204,0L0.09,0Z" style="fill:rgb(64,64,64);fill-rule:nonzero;"/>
                </g>
                <g transform="matrix(38.8017,0,0,38.8017,359.041,298.113)">
                    <path d="M0.298,-0.647L0.298,0L0.185,0L0.185,-0.647L0.011,-0.647L0.011,-0.754L0.471,-0.754L0.471,-0.647L0.298,-0.647Z" style="fill:rgb(64,64,64);fill-rule:nonzero;"/>
                </g>
                <g transform="matrix(38.8017,0,0,38.8017,377.722,298.113)">
                    <path d="M0.517,-0.642L0.424,-0.587C0.407,-0.617 0.391,-0.636 0.375,-0.646C0.359,-0.656 0.338,-0.661 0.312,-0.661C0.28,-0.661 0.254,-0.652 0.233,-0.634C0.213,-0.617 0.202,-0.595 0.202,-0.568C0.202,-0.531 0.229,-0.501 0.284,-0.479L0.359,-0.448C0.421,-0.424 0.465,-0.393 0.494,-0.358C0.522,-0.322 0.536,-0.278 0.536,-0.227C0.536,-0.157 0.513,-0.1 0.467,-0.055C0.42,-0.009 0.362,0.014 0.293,0.014C0.228,0.014 0.174,-0.006 0.131,-0.044C0.089,-0.083 0.063,-0.138 0.053,-0.208L0.168,-0.233C0.173,-0.189 0.182,-0.159 0.195,-0.142C0.219,-0.109 0.253,-0.093 0.298,-0.093C0.333,-0.093 0.363,-0.105 0.386,-0.128C0.41,-0.152 0.421,-0.182 0.421,-0.219C0.421,-0.233 0.419,-0.247 0.415,-0.259C0.411,-0.271 0.405,-0.282 0.396,-0.293C0.388,-0.303 0.376,-0.313 0.363,-0.322C0.349,-0.33 0.333,-0.339 0.314,-0.347L0.241,-0.377C0.138,-0.421 0.086,-0.485 0.086,-0.569C0.086,-0.625 0.108,-0.673 0.151,-0.711C0.195,-0.749 0.249,-0.769 0.313,-0.769C0.4,-0.769 0.468,-0.726 0.517,-0.642Z" style="fill:rgb(64,64,64);fill-rule:nonzero;"/>
                </g>
            </g>
            <g transform="matrix(0.48258,0,0,0.576789,400.009,323.11)">
                <g transform="matrix(38.8017,0,0,38.8017,292.275,253.161)">
                    <path d="M0.517,-0.642L0.424,-0.587C0.407,-0.617 0.391,-0.636 0.375,-0.646C0.359,-0.656 0.338,-0.661 0.312,-0.661C0.28,-0.661 0.254,-0.652 0.233,-0.634C0.213,-0.617 0.202,-0.595 0.202,-0.568C0.202,-0.531 0.229,-0.501 0.284,-0.479L0.359,-0.448C0.421,-0.424 0.465,-0.393 0.494,-0.358C0.522,-0.322 0.536,-0.278 0.536,-0.227C0.536,-0.157 0.513,-0.1 0.467,-0.055C0.42,-0.009 0.362,0.014 0.293,0.014C0.228,0.014 0.174,-0.006 0.131,-0.044C0.089,-0.083 0.063,-0.138 0.053,-0.208L0.168,-0.233C0.173,-0.189 0.182,-0.159 0.195,-0.142C0.219,-0.109 0.253,-0.093 0.298,-0.093C0.333,-0.093 0.363,-0.105 0.386,-0.128C0.41,-0.152 0.421,-0.182 0.421,-0.219C0.421,-0.233 0.419,-0.247 0.415,-0.259C0.411,-0.271 0.405,-0.282 0.396,-0.293C0.388,-0.303 0.376,-0.313 0.363,-0.322C0.349,-0.33 0.333,-0.339 0.314,-0.347L0.241,-0.377C0.138,-0.421 0.086,-0.485 0.086,-0.569C0.086,-0.625 0.108,-0.673 0.151,-0.711C0.195,-0.749 0.249,-0.769 0.313,-0.769C0.4,-0.769 0.468,-0.726 0.517,-0.642Z" style="fill:rgb(64,64,64);fill-rule:nonzero;"/>
                </g>
                <g transform="matrix(38.8017,0,0,38.8017,315.446,253.161)">
                    <path d="M0.298,-0.647L0.298,0L0.185,0L0.185,-0.647L0.011,-0.647L0.011,-0.754L0.471,-0.754L0.471,-0.647L0.298,-0.647Z" style="fill:rgb(64,64,64);fill-rule:nonzero;"/>
                </g>
                <g transform="matrix(38.8017,0,0,38.8017,332.574,253.161)">
                    <path d="M0.533,-0.183L0.21,-0.183L0.126,0L0.004,0L0.377,-0.801L0.737,0L0.612,0L0.533,-0.183ZM0.487,-0.29L0.375,-0.546L0.258,-0.29L0.487,-0.29Z" style="fill:rgb(64,64,64);fill-rule:nonzero;"/>
                </g>
                <g transform="matrix(38.8017,0,0,38.8017,359.686,253.161)">
                    <path d="M0.298,-0.647L0.298,0L0.185,0L0.185,-0.647L0.011,-0.647L0.011,-0.754L0.471,-0.754L0.471,-0.647L0.298,-0.647Z" style="fill:rgb(64,64,64);fill-rule:nonzero;"/>
                </g>
                <g transform="matrix(38.8017,0,0,38.8017,378.404,253.161)">
                    <path d="M0.506,-0.647L0.204,-0.647L0.204,-0.466L0.498,-0.466L0.498,-0.359L0.204,-0.359L0.204,-0.107L0.506,-0.107L0.506,0L0.09,0L0.09,-0.754L0.506,-0.754L0.506,-0.647Z" style="fill:rgb(64,64,64);fill-rule:nonzero;"/>
                </g>
                <g transform="matrix(38.8017,0,0,38.8017,131.195,298.113)">
                    <path d="M0.387,-0.419L0.522,-0.255L0.527,-0.26C0.542,-0.276 0.555,-0.292 0.568,-0.307C0.581,-0.322 0.594,-0.338 0.606,-0.354L0.68,-0.277C0.671,-0.264 0.659,-0.249 0.644,-0.232C0.629,-0.215 0.612,-0.195 0.591,-0.172L0.731,0L0.589,0L0.514,-0.092C0.445,-0.021 0.373,0.015 0.299,0.015C0.232,0.015 0.175,-0.007 0.129,-0.049C0.083,-0.092 0.061,-0.145 0.061,-0.208C0.061,-0.284 0.097,-0.346 0.169,-0.396L0.218,-0.43L0.229,-0.438C0.179,-0.491 0.154,-0.543 0.154,-0.594C0.154,-0.645 0.17,-0.686 0.204,-0.718C0.237,-0.75 0.281,-0.766 0.334,-0.766C0.386,-0.766 0.429,-0.751 0.463,-0.72C0.497,-0.689 0.514,-0.65 0.514,-0.603C0.514,-0.57 0.504,-0.541 0.486,-0.514C0.468,-0.488 0.435,-0.456 0.387,-0.419ZM0.296,-0.355L0.29,-0.351C0.243,-0.319 0.212,-0.293 0.195,-0.273C0.178,-0.254 0.17,-0.233 0.17,-0.211C0.17,-0.18 0.182,-0.152 0.208,-0.125C0.234,-0.1 0.262,-0.088 0.293,-0.088C0.337,-0.088 0.388,-0.117 0.445,-0.174L0.296,-0.355ZM0.321,-0.5L0.33,-0.506C0.346,-0.518 0.359,-0.529 0.37,-0.538C0.38,-0.547 0.388,-0.554 0.392,-0.561C0.402,-0.573 0.407,-0.587 0.407,-0.605C0.407,-0.625 0.4,-0.641 0.387,-0.653C0.373,-0.666 0.355,-0.672 0.333,-0.672C0.313,-0.672 0.295,-0.666 0.281,-0.653C0.267,-0.641 0.26,-0.625 0.26,-0.606C0.26,-0.584 0.269,-0.563 0.287,-0.541L0.315,-0.507C0.316,-0.505 0.318,-0.503 0.321,-0.5Z" style="fill:rgb(64,64,64);fill-rule:nonzero;"/>
                </g>
                <g transform="matrix(38.8017,0,0,38.8017,171.532,298.113)">
                    <path d="M0.467,-0.647L0.204,-0.647L0.204,-0.466L0.458,-0.466L0.458,-0.359L0.204,-0.359L0.204,0L0.09,0L0.09,-0.754L0.467,-0.754L0.467,-0.647Z" style="fill:rgb(64,64,64);fill-rule:nonzero;"/>
                </g>
                <g transform="matrix(38.8017,0,0,38.8017,191.255,298.113)">
                    <path d="M0.204,-0.754L0.204,-0.3C0.204,-0.235 0.215,-0.188 0.236,-0.158C0.267,-0.114 0.312,-0.093 0.369,-0.093C0.427,-0.093 0.471,-0.114 0.503,-0.158C0.524,-0.187 0.535,-0.234 0.535,-0.3L0.535,-0.754L0.648,-0.754L0.648,-0.269C0.648,-0.189 0.624,-0.124 0.574,-0.072C0.519,-0.015 0.45,0.014 0.369,0.014C0.288,0.014 0.22,-0.015 0.165,-0.072C0.115,-0.124 0.09,-0.189 0.09,-0.269L0.09,-0.754L0.204,-0.754Z" style="fill:rgb(64,64,64);fill-rule:nonzero;"/>
                </g>
                <g transform="matrix(38.8017,0,0,38.8017,219.92,298.113)">
                    <path d="M0.09,0L0.09,-0.805L0.64,-0.23L0.64,-0.754L0.754,-0.754L0.754,0.046L0.204,-0.528L0.204,0L0.09,0Z" style="fill:rgb(64,64,64);fill-rule:nonzero;"/>
                </g>
                <g transform="matrix(38.8017,0,0,38.8017,252.943,298.113)">
                    <path d="M0.647,-0.713L0.647,-0.579C0.582,-0.634 0.514,-0.661 0.443,-0.661C0.366,-0.661 0.301,-0.633 0.248,-0.578C0.194,-0.522 0.167,-0.455 0.167,-0.375C0.167,-0.295 0.194,-0.229 0.248,-0.174C0.301,-0.12 0.366,-0.093 0.444,-0.093C0.484,-0.093 0.518,-0.099 0.546,-0.112C0.562,-0.119 0.578,-0.128 0.594,-0.139C0.611,-0.15 0.629,-0.163 0.647,-0.179L0.647,-0.042C0.582,-0.005 0.514,0.014 0.442,0.014C0.335,0.014 0.243,-0.024 0.167,-0.099C0.091,-0.175 0.053,-0.266 0.053,-0.374C0.053,-0.47 0.084,-0.555 0.148,-0.63C0.226,-0.722 0.327,-0.769 0.451,-0.769C0.519,-0.769 0.584,-0.75 0.647,-0.713Z" style="fill:rgb(64,64,64);fill-rule:nonzero;"/>
                </g>
                <g transform="matrix(38.8017,0,0,38.8017,280.131,298.113)">
                    <path d="M0.298,-0.647L0.298,0L0.185,0L0.185,-0.647L0.011,-0.647L0.011,-0.754L0.471,-0.754L0.471,-0.647L0.298,-0.647Z" style="fill:rgb(64,64,64);fill-rule:nonzero;"/>
                </g>
                <g transform="matrix(38.8017,0,0,38.8017,298.85,298.113)">
                    <rect x="0.09" y="-0.754" width="0.114" height="0.754" style="fill:rgb(64,64,64);fill-rule:nonzero;"/>
                </g>
                <g transform="matrix(38.8017,0,0,38.8017,310.293,298.113)">
                    <path d="M0.053,-0.38C0.053,-0.486 0.092,-0.578 0.169,-0.654C0.247,-0.73 0.34,-0.768 0.449,-0.768C0.556,-0.768 0.648,-0.73 0.725,-0.653C0.802,-0.576 0.841,-0.484 0.841,-0.376C0.841,-0.268 0.802,-0.176 0.725,-0.1C0.647,-0.024 0.553,0.014 0.443,0.014C0.346,0.014 0.258,-0.02 0.181,-0.087C0.095,-0.162 0.053,-0.26 0.053,-0.38ZM0.167,-0.379C0.167,-0.296 0.195,-0.227 0.251,-0.173C0.307,-0.12 0.371,-0.093 0.444,-0.093C0.523,-0.093 0.59,-0.12 0.645,-0.175C0.699,-0.23 0.726,-0.298 0.726,-0.377C0.726,-0.457 0.699,-0.525 0.646,-0.579C0.592,-0.634 0.526,-0.661 0.447,-0.661C0.369,-0.661 0.303,-0.634 0.249,-0.579C0.194,-0.525 0.167,-0.458 0.167,-0.379Z" style="fill:rgb(64,64,64);fill-rule:nonzero;"/>
                </g>
                <g transform="matrix(38.8017,0,0,38.8017,344.964,298.113)">
                    <path d="M0.09,0L0.09,-0.805L0.64,-0.23L0.64,-0.754L0.754,-0.754L0.754,0.046L0.204,-0.528L0.204,0L0.09,0Z" style="fill:rgb(64,64,64);fill-rule:nonzero;"/>
                </g>
                <g transform="matrix(38.8017,0,0,38.8017,377.722,298.113)">
                    <path d="M0.517,-0.642L0.424,-0.587C0.407,-0.617 0.391,-0.636 0.375,-0.646C0.359,-0.656 0.338,-0.661 0.312,-0.661C0.28,-0.661 0.254,-0.652 0.233,-0.634C0.213,-0.617 0.202,-0.595 0.202,-0.568C0.202,-0.531 0.229,-0.501 0.284,-0.479L0.359,-0.448C0.421,-0.424 0.465,-0.393 0.494,-0.358C0.522,-0.322 0.536,-0.278 0.536,-0.227C0.536,-0.157 0.513,-0.1 0.467,-0.055C0.42,-0.009 0.362,0.014 0.293,0.014C0.228,0.014 0.174,-0.006 0.131,-0.044C0.089,-0.083 0.063,-0.138 0.053,-0.208L0.168,-0.233C0.173,-0.189 0.182,-0.159 0.195,-0.142C0.219,-0.109 0.253,-0.093 0.298,-0.093C0.333,-0.093 0.363,-0.105 0.386,-0.128C0.41,-0.152 0.421,-0.182 0.421,-0.219C0.421,-0.233 0.419,-0.247 0.415,-0.259C0.411,-0.271 0.405,-0.282 0.396,-0.293C0.388,-0.303 0.376,-0.313 0.363,-0.322C0.349,-0.33 0.333,-0.339 0.314,-0.347L0.241,-0.377C0.138,-0.421 0.086,-0.485 0.086,-0.569C0.086,-0.625 0.108,-0.673 0.151,-0.711C0.195,-0.749 0.249,-0.769 0.313,-0.769C0.4,-0.769 0.468,-0.726 0.517,-0.642Z" style="fill:rgb(64,64,64);fill-rule:nonzero;"/>
                </g>
                <g transform="matrix(38.8017,0,0,38.8017,83.0153,343.065)">
                    <path d="M0.197,-0.833L0.298,-0.794C0.263,-0.709 0.238,-0.631 0.224,-0.559C0.216,-0.522 0.211,-0.484 0.208,-0.444C0.204,-0.403 0.202,-0.36 0.202,-0.312C0.202,-0.264 0.204,-0.22 0.208,-0.18C0.211,-0.14 0.216,-0.101 0.224,-0.065C0.238,0.007 0.263,0.085 0.298,0.17L0.197,0.209C0.126,0.06 0.09,-0.113 0.09,-0.312C0.09,-0.511 0.126,-0.684 0.197,-0.833Z" style="fill:rgb(64,64,64);fill-rule:nonzero;"/>
                </g>
                <g transform="matrix(38.8017,0,0,38.8017,97.2249,343.065)">
                    <path d="M0.32,-0.754L0.32,-0.266C0.32,-0.208 0.316,-0.164 0.308,-0.136C0.299,-0.103 0.286,-0.076 0.266,-0.053C0.228,-0.009 0.178,0.014 0.115,0.014C0.067,0.014 0.023,0.001 -0.019,-0.023L0.037,-0.121C0.065,-0.102 0.091,-0.093 0.115,-0.093C0.149,-0.093 0.172,-0.106 0.185,-0.131C0.199,-0.157 0.206,-0.202 0.206,-0.266L0.206,-0.754L0.32,-0.754Z" style="fill:rgb(64,64,64);fill-rule:nonzero;"/>
                </g>
                <g transform="matrix(38.8017,0,0,38.8017,113.14,343.065)">
                    <path d="M0.517,-0.642L0.424,-0.587C0.407,-0.617 0.391,-0.636 0.375,-0.646C0.359,-0.656 0.338,-0.661 0.312,-0.661C0.28,-0.661 0.254,-0.652 0.233,-0.634C0.213,-0.617 0.202,-0.595 0.202,-0.568C0.202,-0.531 0.229,-0.501 0.284,-0.479L0.359,-0.448C0.421,-0.424 0.465,-0.393 0.494,-0.358C0.522,-0.322 0.536,-0.278 0.536,-0.227C0.536,-0.157 0.513,-0.1 0.467,-0.055C0.42,-0.009 0.362,0.014 0.293,0.014C0.228,0.014 0.174,-0.006 0.131,-0.044C0.089,-0.083 0.063,-0.138 0.053,-0.208L0.168,-0.233C0.173,-0.189 0.182,-0.159 0.195,-0.142C0.219,-0.109 0.253,-0.093 0.298,-0.093C0.333,-0.093 0.363,-0.105 0.386,-0.128C0.41,-0.152 0.421,-0.182 0.421,-0.219C0.421,-0.233 0.419,-0.247 0.415,-0.259C0.411,-0.271 0.405,-0.282 0.396,-0.293C0.388,-0.303 0.376,-0.313 0.363,-0.322C0.349,-0.33 0.333,-0.339 0.314,-0.347L0.241,-0.377C0.138,-0.421 0.086,-0.485 0.086,-0.569C0.086,-0.625 0.108,-0.673 0.151,-0.711C0.195,-0.749 0.249,-0.769 0.313,-0.769C0.4,-0.769 0.468,-0.726 0.517,-0.642Z" style="fill:rgb(64,64,64);fill-rule:nonzero;"/>
                </g>
                <g transform="matrix(38.8017,0,0,38.8017,135.761,343.065)">
                    <path d="M0.137,-0.141L0.235,-0.103L0.096,0.176L0.021,0.145L0.137,-0.141Z" style="fill:rgb(64,64,64);fill-rule:nonzero;"/>
                </g>
                <g transform="matrix(38.8017,0,0,38.8017,159.709,343.065)">
                    <path d="M0.204,-0.459L0.529,-0.459L0.529,-0.754L0.643,-0.754L0.643,0L0.529,0L0.529,-0.352L0.204,-0.352L0.204,0L0.09,0L0.09,-0.754L0.204,-0.754L0.204,-0.459Z" style="fill:rgb(64,64,64);fill-rule:nonzero;"/>
                </g>
                <g transform="matrix(38.8017,0,0,38.8017,188.166,343.065)">
                    <path d="M0.298,-0.647L0.298,0L0.185,0L0.185,-0.647L0.011,-0.647L0.011,-0.754L0.471,-0.754L0.471,-0.647L0.298,-0.647Z" style="fill:rgb(64,64,64);fill-rule:nonzero;"/>
                </g>
                <g transform="matrix(38.8017,0,0,38.8017,206.885,343.065)">
                    <path d="M0.064,0L0.223,-0.811L0.481,-0.225L0.75,-0.811L0.892,0L0.775,0L0.703,-0.455L0.479,0.035L0.263,-0.456L0.182,0L0.064,0Z" style="fill:rgb(64,64,64);fill-rule:nonzero;"/>
                </g>
                <g transform="matrix(38.8017,0,0,38.8017,244.19,343.065)">
                    <path d="M0.204,-0.754L0.204,-0.107L0.426,-0.107L0.426,0L0.09,0L0.09,-0.754L0.204,-0.754Z" style="fill:rgb(64,64,64);fill-rule:nonzero;"/>
                </g>
                <g transform="matrix(38.8017,0,0,38.8017,273.367,343.065)">
                    <path d="M0.387,-0.419L0.522,-0.255L0.527,-0.26C0.542,-0.276 0.555,-0.292 0.568,-0.307C0.581,-0.322 0.594,-0.338 0.606,-0.354L0.68,-0.277C0.671,-0.264 0.659,-0.249 0.644,-0.232C0.629,-0.215 0.612,-0.195 0.591,-0.172L0.731,0L0.589,0L0.514,-0.092C0.445,-0.021 0.373,0.015 0.299,0.015C0.232,0.015 0.175,-0.007 0.129,-0.049C0.083,-0.092 0.061,-0.145 0.061,-0.208C0.061,-0.284 0.097,-0.346 0.169,-0.396L0.218,-0.43L0.229,-0.438C0.179,-0.491 0.154,-0.543 0.154,-0.594C0.154,-0.645 0.17,-0.686 0.204,-0.718C0.237,-0.75 0.281,-0.766 0.334,-0.766C0.386,-0.766 0.429,-0.751 0.463,-0.72C0.497,-0.689 0.514,-0.65 0.514,-0.603C0.514,-0.57 0.504,-0.541 0.486,-0.514C0.468,-0.488 0.435,-0.456 0.387,-0.419ZM0.296,-0.355L0.29,-0.351C0.243,-0.319 0.212,-0.293 0.195,-0.273C0.178,-0.254 0.17,-0.233 0.17,-0.211C0.17,-0.18 0.182,-0.152 0.208,-0.125C0.234,-0.1 0.262,-0.088 0.293,-0.088C0.337,-0.088 0.388,-0.117 0.445,-0.174L0.296,-0.355ZM0.321,-0.5L0.33,-0.506C0.346,-0.518 0.359,-0.529 0.37,-0.538C0.38,-0.547 0.388,-0.554 0.392,-0.561C0.402,-0.573 0.407,-0.587 0.407,-0.605C0.407,-0.625 0.4,-0.641 0.387,-0.653C0.373,-0.666 0.355,-0.672 0.333,-0.672C0.313,-0.672 0.295,-0.666 0.281,-0.653C0.267,-0.641 0.26,-0.625 0.26,-0.606C0.26,-0.584 0.269,-0.563 0.287,-0.541L0.315,-0.507C0.316,-0.505 0.318,-0.503 0.321,-0.5Z" style="fill:rgb(64,64,64);fill-rule:nonzero;"/>
                </g>
                <g transform="matrix(38.8017,0,0,38.8017,313.703,343.065)">
                    <path d="M0.647,-0.713L0.647,-0.579C0.582,-0.634 0.514,-0.661 0.443,-0.661C0.366,-0.661 0.301,-0.633 0.248,-0.578C0.194,-0.522 0.167,-0.455 0.167,-0.375C0.167,-0.295 0.194,-0.229 0.248,-0.174C0.301,-0.12 0.366,-0.093 0.444,-0.093C0.484,-0.093 0.518,-0.099 0.546,-0.112C0.562,-0.119 0.578,-0.128 0.594,-0.139C0.611,-0.15 0.629,-0.163 0.647,-0.179L0.647,-0.042C0.582,-0.005 0.514,0.014 0.442,0.014C0.335,0.014 0.243,-0.024 0.167,-0.099C0.091,-0.175 0.053,-0.266 0.053,-0.374C0.053,-0.47 0.084,-0.555 0.148,-0.63C0.226,-0.722 0.327,-0.769 0.451,-0.769C0.519,-0.769 0.584,-0.75 0.647,-0.713Z" style="fill:rgb(64,64,64);fill-rule:nonzero;"/>
                </g>
                <g transform="matrix(38.8017,0,0,38.8017,340.891,343.065)">
                    <path d="M0.517,-0.642L0.424,-0.587C0.407,-0.617 0.391,-0.636 0.375,-0.646C0.359,-0.656 0.338,-0.661 0.312,-0.661C0.28,-0.661 0.254,-0.652 0.233,-0.634C0.213,-0.617 0.202,-0.595 0.202,-0.568C0.202,-0.531 0.229,-0.501 0.284,-0.479L0.359,-0.448C0.421,-0.424 0.465,-0.393 0.494,-0.358C0.522,-0.322 0.536,-0.278 0.536,-0.227C0.536,-0.157 0.513,-0.1 0.467,-0.055C0.42,-0.009 0.362,0.014 0.293,0.014C0.228,0.014 0.174,-0.006 0.131,-0.044C0.089,-0.083 0.063,-0.138 0.053,-0.208L0.168,-0.233C0.173,-0.189 0.182,-0.159 0.195,-0.142C0.219,-0.109 0.253,-0.093 0.298,-0.093C0.333,-0.093 0.363,-0.105 0.386,-0.128C0.41,-0.152 0.421,-0.182 0.421,-0.219C0.421,-0.233 0.419,-0.247 0.415,-0.259C0.411,-0.271 0.405,-0.282 0.396,-0.293C0.388,-0.303 0.376,-0.313 0.363,-0.322C0.349,-0.33 0.333,-0.339 0.314,-0.347L0.241,-0.377C0.138,-0.421 0.086,-0.485 0.086,-0.569C0.086,-0.625 0.108,-0.673 0.151,-0.711C0.195,-0.749 0.249,-0.769 0.313,-0.769C0.4,-0.769 0.468,-0.726 0.517,-0.642Z" style="fill:rgb(64,64,64);fill-rule:nonzero;"/>
                </g>
                <g transform="matrix(38.8017,0,0,38.8017,363.513,343.065)">
                    <path d="M0.517,-0.642L0.424,-0.587C0.407,-0.617 0.391,-0.636 0.375,-0.646C0.359,-0.656 0.338,-0.661 0.312,-0.661C0.28,-0.661 0.254,-0.652 0.233,-0.634C0.213,-0.617 0.202,-0.595 0.202,-0.568C0.202,-0.531 0.229,-0.501 0.284,-0.479L0.359,-0.448C0.421,-0.424 0.465,-0.393 0.494,-0.358C0.522,-0.322 0.536,-0.278 0.536,-0.227C0.536,-0.157 0.513,-0.1 0.467,-0.055C0.42,-0.009 0.362,0.014 0.293,0.014C0.228,0.014 0.174,-0.006 0.131,-0.044C0.089,-0.083 0.063,-0.138 0.053,-0.208L0.168,-0.233C0.173,-0.189 0.182,-0.159 0.195,-0.142C0.219,-0.109 0.253,-0.093 0.298,-0.093C0.333,-0.093 0.363,-0.105 0.386,-0.128C0.41,-0.152 0.421,-0.182 0.421,-0.219C0.421,-0.233 0.419,-0.247 0.415,-0.259C0.411,-0.271 0.405,-0.282 0.396,-0.293C0.388,-0.303 0.376,-0.313 0.363,-0.322C0.349,-0.33 0.333,-0.339 0.314,-0.347L0.241,-0.377C0.138,-0.421 0.086,-0.485 0.086,-0.569C0.086,-0.625 0.108,-0.673 0.151,-0.711C0.195,-0.749 0.249,-0.769 0.313,-0.769C0.4,-0.769 0.468,-0.726 0.517,-0.642Z" style="fill:rgb(64,64,64);fill-rule:nonzero;"/>
                </g>
                <g transform="matrix(38.8017,0,0,38.8017,386.134,343.065)">
                    <path d="M0.169,0.209L0.068,0.17C0.104,0.085 0.129,0.007 0.143,-0.065C0.157,-0.137 0.165,-0.219 0.165,-0.312C0.165,-0.404 0.157,-0.487 0.143,-0.559C0.128,-0.631 0.103,-0.709 0.068,-0.794L0.169,-0.833C0.24,-0.684 0.276,-0.511 0.276,-0.312C0.276,-0.113 0.24,0.06 0.169,0.209Z" style="fill:rgb(64,64,64);fill-rule:nonzero;"/>
                </g>
            </g>
            <g transform="matrix(1,0,0,1.10734,0,14.3426)">
                <path d="M400,0L400,204" style="fill:none;stroke:rgb(217,217,217);stroke-width:9.34px;stroke-linecap:butt;stroke-dasharray:9.34,9.34;"/>
            </g>
        </g>
    </g>
    <defs>
        <linearGradient id="_Linear2" x1="0" y1="0" x2="1" y2="0" gradientUnits="userSpaceOnUse" gradientTransform="matrix(800,0,0,167.649,0,252.825)"><stop offset="0" style="stop-color:white;stop-opacity:1"/><stop offset="0.5" style="stop-color:rgb(210,210,210);stop-opacity:1"/><stop offset="1" style="stop-color:white;stop-opacity:1"/></linearGradient>
        <linearGradient id="_Linear3" x1="0" y1="0" x2="1" y2="0" gradientUnits="userSpaceOnUse" gradientTransform="matrix(800,0,0,167.649,0,252.825)"><stop offset="0" style="stop-color:white;stop-opacity:1"/><stop offset="0.5" style="stop-color:rgb(173,173,173);stop-opacity:1"/><stop offset="1" style="stop-color:white;stop-opacity:1"/></linearGradient>
    </defs>
</svg>
