<svg width="83" height="83" viewBox="0 0 83 83" fill="none" xmlns="http://www.w3.org/2000/svg">
<path d="M14 59.5V47.5L26 53.5V65.5L14 59.5Z" fill="#FB752C"/>
<path d="M14 47.5L26 41.5L38 47.5L26 53.5L14 47.5Z" fill="#F99C6A"/>
<path d="M38 59.5L26 65.5V53.5L38 47.5V59.5Z" fill="#C95B1F"/>
<path d="M17 53L16 52.5V54.5L17 55V53Z" fill="#C0602C"/>
<path d="M23 56L22 55.5V57.5L23 58V56Z" fill="#C0602C"/>
<path d="M20 60H23V61H20L18 60L16 58V57L18 59L20 60Z" fill="#C0602C"/>
<path d="M48 28.5V26.5L46 27.5V29.5L48 28.5Z" fill="#ED6E29"/>
<path d="M45 27L48 25.5V26.5L46 27.5L45 27Z" fill="#F2915D"/>
<path d="M47 28H45V30H47V28Z" fill="#898582"/>
<path d="M43 28L45 27L46 27.5L47 28H45V29L43 28Z" fill="#DDCFC8"/>
<path d="M45 29V31L43 30V28L45 29Z" fill="#9D9896"/>
<path d="M59 35.5L65 38.5L57 42.5L51 39.5L59 35.5Z" fill="#9E9997"/>
<path d="M65 39.5V38.5L57 42.5V43.5L65 39.5Z" fill="#958E8A"/>
<path d="M51 39.5L57 42.5V43.5L51 40.5V39.5Z" fill="#AAA5A2"/>
<path d="M59 41.5L53 38.5L51 39.5L57 42.5L59 41.5Z" fill="#B5ADA9"/>
<path d="M48 33.5V21.5L62 28.5V40.5L48 33.5Z" fill="#FB752C"/>
<path d="M48 21.5L58 16.5L72 23.5L62 28.5L48 21.5Z" fill="#F99C6A"/>
<path d="M72 35.5L62 40.5V28.5L72 23.5V35.5Z" fill="#C95B1F"/>
<path d="M59 31.5L49 26V31.5L59 36.5V31.5Z" fill="#BBCB4D"/>
<path d="M50 25.5L49 26L59 31.5L60 31L50 25.5Z" fill="#E1F3A7"/>
<path d="M60 36L59 36.5V31.5L60 31V36Z" fill="#9FB549"/>
<path d="M70 33L71 32L62 36.5V37L70 33Z" fill="#B7511B"/>
<path d="M60 34.5L70 30H71L61 35L60 34.5Z" fill="#F2915D"/>
<path d="M71 32V30L61 35V37L71 32Z" fill="#ED6E29"/>
<path d="M61 37L59 38V36L61 35V37Z" fill="#898582"/>
<path d="M59 38V36L57 35V37L59 38Z" fill="#9D9896"/>
<path d="M59 36L61 35L59 34V35H57L59 36Z" fill="#F2E1D8"/>
<path d="M67 39.5L73 42.5L65 46.5L59 43.5L67 39.5Z" fill="#9E9997"/>
<path d="M73 43.5V42.5L65 46.5V47.5L73 43.5Z" fill="#958E8A"/>
<path d="M59 43.5L65 46.5V47.5L59 44.5V43.5Z" fill="#AAA5A2"/>
<path d="M67 45.5L61 42.5L59 43.5L65 46.5L67 45.5Z" fill="#B5ADA9"/>
<path d="M69 41L67 43V38L69 37V41Z" fill="#A08476"/>
<path d="M66 42.5L67 43V38L66 37.5V42.5Z" fill="#B99885"/>
</svg>
