<svg width="1098" height="454" viewBox="0 0 1098 454" fill="none" xmlns="http://www.w3.org/2000/svg">
<rect x="223" y="70" width="850" height="25" fill="url(#paint0_linear)"/>
<path d="M134.605 84.8672H132.438C132.367 85.3828 132.246 85.8633 132.074 86.3086C131.902 86.7461 131.672 87.125 131.383 87.4453C131.094 87.7734 130.738 88.0273 130.316 88.207C129.902 88.3867 129.41 88.4766 128.84 88.4766C128.316 88.4766 127.859 88.3945 127.469 88.2305C127.078 88.0586 126.738 87.8242 126.449 87.5273C126.16 87.2383 125.922 86.9023 125.734 86.5195C125.547 86.1367 125.395 85.7266 125.277 85.2891C125.16 84.8594 125.074 84.4219 125.02 83.9766C124.973 83.5234 124.949 83.0859 124.949 82.6641V80.2617C124.949 79.8398 124.973 79.4062 125.02 78.9609C125.074 78.5078 125.16 78.0664 125.277 77.6367C125.395 77.207 125.547 76.8008 125.734 76.418C125.93 76.0352 126.172 75.6992 126.461 75.4102C126.742 75.1211 127.078 74.8945 127.469 74.7305C127.867 74.5586 128.324 74.4727 128.84 74.4727C129.41 74.4727 129.902 74.5703 130.316 74.7656C130.738 74.9531 131.094 75.2148 131.383 75.5508C131.672 75.8867 131.902 76.2773 132.074 76.7227C132.246 77.168 132.367 77.6484 132.438 78.1641H134.605C134.512 77.3516 134.316 76.6094 134.02 75.9375C133.73 75.2656 133.344 74.6875 132.859 74.2031C132.375 73.7266 131.797 73.3594 131.125 73.1016C130.453 72.8359 129.691 72.7031 128.84 72.7031C128.129 72.7031 127.488 72.8047 126.918 73.0078C126.348 73.2031 125.84 73.4766 125.395 73.8281C124.941 74.1797 124.551 74.5977 124.223 75.082C123.902 75.5586 123.637 76.0781 123.426 76.6406C123.207 77.2031 123.043 77.793 122.934 78.4102C122.832 79.0273 122.777 79.6523 122.77 80.2852V82.6641C122.777 83.2969 122.832 83.9219 122.934 84.5391C123.043 85.1562 123.207 85.7461 123.426 86.3086C123.637 86.8711 123.902 87.3906 124.223 87.8672C124.551 88.3438 124.941 88.7578 125.395 89.1094C125.84 89.4609 126.348 89.7383 126.918 89.9414C127.496 90.1367 128.137 90.2344 128.84 90.2344C129.66 90.2344 130.402 90.1055 131.066 89.8477C131.738 89.582 132.32 89.2109 132.812 88.7344C133.297 88.2656 133.691 87.7031 133.996 87.0469C134.301 86.3828 134.504 85.6562 134.605 84.8672ZM138.309 72V73.8867H142.621V88.125H138.309V90H148.926V88.125H144.789V72H138.309ZM152.723 77.3203V79.207H157.035V88.125H152.723V90H163.34V88.125H159.203V77.3203H152.723ZM156.754 73.9922C156.754 74.3438 156.859 74.6367 157.07 74.8711C157.289 75.1055 157.617 75.2227 158.055 75.2227C158.484 75.2227 158.809 75.1055 159.027 74.8711C159.246 74.6367 159.355 74.3438 159.355 73.9922C159.355 73.7969 159.324 73.6172 159.262 73.4531C159.199 73.2891 159.105 73.1523 158.98 73.043C158.879 72.9414 158.75 72.8633 158.594 72.8086C158.438 72.7461 158.258 72.7148 158.055 72.7148C157.852 72.7148 157.668 72.7461 157.504 72.8086C157.348 72.8633 157.219 72.9414 157.117 73.043C156.992 73.1602 156.898 73.3008 156.836 73.4648C156.781 73.6289 156.754 73.8047 156.754 73.9922ZM172.199 88.4766C171.52 88.4766 170.949 88.3438 170.488 88.0781C170.035 87.8047 169.672 87.4492 169.398 87.0117C169.117 86.582 168.914 86.0977 168.789 85.5586C168.672 85.0117 168.613 84.4609 168.613 83.9062V83.4141C168.613 82.8672 168.672 82.3242 168.789 81.7852C168.914 81.2461 169.117 80.7578 169.398 80.3203C169.68 79.8906 170.047 79.543 170.5 79.2773C170.961 79.0039 171.527 78.8672 172.199 78.8672C172.637 78.8672 173.043 78.9414 173.418 79.0898C173.801 79.2383 174.129 79.4414 174.402 79.6992C174.676 79.957 174.891 80.2578 175.047 80.6016C175.211 80.9375 175.297 81.2969 175.305 81.6797H177.355C177.355 81.0391 177.227 80.4375 176.969 79.875C176.711 79.3125 176.355 78.8242 175.902 78.4102C175.441 78.0039 174.895 77.6836 174.262 77.4492C173.637 77.207 172.949 77.0859 172.199 77.0859C171.238 77.0859 170.398 77.2578 169.68 77.6016C168.961 77.9453 168.363 78.4062 167.887 78.9844C167.402 79.5703 167.039 80.2461 166.797 81.0117C166.555 81.7773 166.434 82.5781 166.434 83.4141V83.9062C166.434 84.75 166.555 85.5547 166.797 86.3203C167.039 87.0781 167.402 87.7461 167.887 88.3242C168.363 88.9102 168.961 89.375 169.68 89.7188C170.398 90.0625 171.238 90.2344 172.199 90.2344C172.871 90.2344 173.516 90.1211 174.133 89.8945C174.75 89.6602 175.297 89.3477 175.773 88.957C176.25 88.5742 176.629 88.1289 176.91 87.6211C177.199 87.1055 177.348 86.5664 177.355 86.0039H175.305C175.297 86.3555 175.203 86.6836 175.023 86.9883C174.852 87.2852 174.621 87.543 174.332 87.7617C174.043 87.9883 173.711 88.1641 173.336 88.2891C172.969 88.4141 172.59 88.4766 172.199 88.4766ZM185.008 84.082L189.66 90H192.414L186.496 82.6055L191.629 77.3203H188.992L184.832 81.4922L183.414 83.0156V72H181.234V90H183.414V85.6172L185.008 84.082ZM204.051 86.6367C204.051 86.8398 204.012 87.0312 203.934 87.2109C203.855 87.3906 203.742 87.5547 203.594 87.7031C203.352 87.9453 203.016 88.1367 202.586 88.2773C202.156 88.4102 201.652 88.4766 201.074 88.4766C200.707 88.4766 200.336 88.4375 199.961 88.3594C199.586 88.2812 199.246 88.1484 198.941 87.9609C198.629 87.7734 198.367 87.5273 198.156 87.2227C197.953 86.918 197.836 86.543 197.805 86.0977H195.637C195.637 86.6367 195.758 87.1562 196 87.6562C196.25 88.1562 196.609 88.5938 197.078 88.9688C197.539 89.3516 198.105 89.6602 198.777 89.8945C199.449 90.1211 200.215 90.2344 201.074 90.2344C201.824 90.2344 202.516 90.1445 203.148 89.9648C203.781 89.7852 204.324 89.5312 204.777 89.2031C205.23 88.875 205.582 88.4805 205.832 88.0195C206.09 87.5586 206.219 87.0469 206.219 86.4844C206.219 85.9609 206.105 85.5 205.879 85.1016C205.66 84.7031 205.34 84.3516 204.918 84.0469C204.496 83.75 203.977 83.4961 203.359 83.2852C202.742 83.0664 202.043 82.875 201.262 82.7109C200.668 82.5938 200.176 82.4727 199.785 82.3477C199.402 82.2227 199.098 82.082 198.871 81.9258C198.637 81.7695 198.473 81.5938 198.379 81.3984C198.285 81.2031 198.238 80.9805 198.238 80.7305C198.238 80.4883 198.297 80.2539 198.414 80.0273C198.531 79.8008 198.707 79.6016 198.941 79.4297C199.168 79.2578 199.453 79.1211 199.797 79.0195C200.148 78.918 200.555 78.8672 201.016 78.8672C201.461 78.8672 201.859 78.9297 202.211 79.0547C202.57 79.1797 202.875 79.3438 203.125 79.5469C203.375 79.75 203.57 79.9844 203.711 80.25C203.852 80.5078 203.922 80.7734 203.922 81.0469H206.09C206.09 80.4922 205.969 79.9766 205.727 79.5C205.492 79.0156 205.156 78.5938 204.719 78.2344C204.281 77.875 203.75 77.5938 203.125 77.3906C202.5 77.1875 201.797 77.0859 201.016 77.0859C200.289 77.0859 199.621 77.1836 199.012 77.3789C198.41 77.5742 197.891 77.8398 197.453 78.1758C197.016 78.5117 196.676 78.9062 196.434 79.3594C196.191 79.8047 196.07 80.2852 196.07 80.8008C196.07 81.3242 196.188 81.7852 196.422 82.1836C196.656 82.5742 196.988 82.9141 197.418 83.2031C197.84 83.5 198.348 83.7539 198.941 83.9648C199.543 84.1758 200.207 84.3555 200.934 84.5039C201.527 84.6211 202.023 84.7539 202.422 84.9023C202.82 85.043 203.141 85.1992 203.383 85.3711C203.625 85.543 203.797 85.7344 203.898 85.9453C204 86.1484 204.051 86.3789 204.051 86.6367Z" fill="black"/>
<circle cx="369.5" cy="82.5" r="8.5" fill="#E8F9C6"/>
<circle cx="672.5" cy="82.5" r="8.5" fill="#E8F9C6"/>
<circle cx="793.5" cy="82.5" r="8.5" fill="#E8F9C6"/>
<rect x="224" y="269" width="850" height="25" fill="url(#paint1_linear)"/>
<path d="M147.898 285.688C147.898 286.156 147.797 286.562 147.594 286.906C147.391 287.242 147.129 287.52 146.809 287.738C146.488 287.965 146.121 288.133 145.707 288.242C145.301 288.344 144.887 288.395 144.465 288.395C143.934 288.395 143.441 288.324 142.988 288.184C142.543 288.035 142.148 287.816 141.805 287.527C141.461 287.246 141.18 286.902 140.961 286.496C140.742 286.082 140.598 285.609 140.527 285.078H138.312C138.336 285.812 138.496 286.48 138.793 287.082C139.098 287.676 139.508 288.195 140.023 288.641C140.602 289.156 141.281 289.551 142.062 289.824C142.852 290.098 143.652 290.234 144.465 290.234C145.145 290.234 145.824 290.141 146.504 289.953C147.184 289.758 147.793 289.469 148.332 289.086C148.871 288.711 149.309 288.238 149.645 287.668C149.988 287.098 150.16 286.43 150.16 285.664C150.16 284.906 150 284.238 149.68 283.66C149.367 283.082 148.953 282.594 148.438 282.195C147.914 281.766 147.336 281.414 146.703 281.141C146.07 280.859 145.438 280.621 144.805 280.426C144.422 280.309 144.012 280.172 143.574 280.016C143.145 279.859 142.746 279.664 142.379 279.43C142.004 279.195 141.695 278.91 141.453 278.574C141.211 278.23 141.086 277.812 141.078 277.32C141.078 276.867 141.168 276.469 141.348 276.125C141.535 275.781 141.785 275.492 142.098 275.258C142.402 275.023 142.75 274.848 143.141 274.73C143.539 274.613 143.945 274.555 144.359 274.555C144.875 274.555 145.336 274.637 145.742 274.801C146.156 274.957 146.512 275.18 146.809 275.469C147.105 275.758 147.344 276.105 147.523 276.512C147.703 276.91 147.824 277.355 147.887 277.848H150.113C150.098 277.066 149.93 276.359 149.609 275.727C149.289 275.094 148.863 274.555 148.332 274.109C147.801 273.664 147.191 273.32 146.504 273.078C145.816 272.828 145.102 272.703 144.359 272.703C143.688 272.703 143.02 272.809 142.355 273.02C141.691 273.223 141.098 273.523 140.574 273.922C140.051 274.32 139.625 274.809 139.297 275.387C138.977 275.965 138.816 276.621 138.816 277.355C138.816 278.09 138.977 278.73 139.297 279.277C139.625 279.816 140.047 280.285 140.562 280.684C141.07 281.074 141.633 281.41 142.25 281.691C142.875 281.965 143.488 282.199 144.09 282.395C144.504 282.527 144.934 282.676 145.379 282.84C145.832 283.004 146.246 283.207 146.621 283.449C146.996 283.699 147.301 284.004 147.535 284.363C147.777 284.723 147.898 285.164 147.898 285.688ZM158.516 274.25H156.336V277.32H153.008V278.996H156.336V285.887C156.336 286.668 156.438 287.336 156.641 287.891C156.852 288.438 157.137 288.883 157.496 289.227C157.855 289.578 158.277 289.836 158.762 290C159.254 290.156 159.781 290.234 160.344 290.234C160.68 290.234 161.016 290.219 161.352 290.188C161.695 290.156 162.02 290.109 162.324 290.047C162.629 289.992 162.91 289.926 163.168 289.848C163.426 289.762 163.645 289.664 163.824 289.555L163.52 288.02C163.387 288.051 163.215 288.09 163.004 288.137C162.801 288.176 162.582 288.215 162.348 288.254C162.105 288.293 161.859 288.328 161.609 288.359C161.359 288.383 161.117 288.395 160.883 288.395C160.562 288.395 160.258 288.355 159.969 288.277C159.688 288.199 159.438 288.062 159.219 287.867C159 287.68 158.828 287.426 158.703 287.105C158.578 286.785 158.516 286.379 158.516 285.887V278.996H163.344V277.32H158.516V274.25ZM176.129 290H178.391V289.812C178.25 289.461 178.141 289.051 178.062 288.582C177.984 288.105 177.945 287.656 177.945 287.234V281.34C177.945 280.629 177.816 280.008 177.559 279.477C177.301 278.945 176.949 278.5 176.504 278.141C176.051 277.789 175.516 277.527 174.898 277.355C174.281 277.176 173.613 277.086 172.895 277.086C172.105 277.086 171.398 277.195 170.773 277.414C170.156 277.633 169.633 277.918 169.203 278.27C168.766 278.629 168.43 279.031 168.195 279.477C167.969 279.922 167.852 280.375 167.844 280.836H170.023C170.023 280.57 170.086 280.316 170.211 280.074C170.344 279.824 170.527 279.609 170.762 279.43C170.996 279.25 171.281 279.105 171.617 278.996C171.961 278.887 172.348 278.832 172.777 278.832C173.238 278.832 173.652 278.891 174.02 279.008C174.395 279.125 174.711 279.289 174.969 279.5C175.227 279.719 175.426 279.98 175.566 280.285C175.707 280.59 175.777 280.934 175.777 281.316V282.312H173.41C172.527 282.312 171.727 282.398 171.008 282.57C170.297 282.742 169.688 283 169.18 283.344C168.672 283.695 168.277 284.133 167.996 284.656C167.723 285.18 167.586 285.789 167.586 286.484C167.586 287.016 167.688 287.512 167.891 287.973C168.102 288.426 168.398 288.816 168.781 289.145C169.156 289.48 169.613 289.746 170.152 289.941C170.699 290.137 171.309 290.234 171.98 290.234C172.395 290.234 172.785 290.191 173.152 290.105C173.52 290.02 173.867 289.902 174.195 289.754C174.516 289.605 174.809 289.434 175.074 289.238C175.348 289.043 175.594 288.836 175.812 288.617C175.836 288.883 175.871 289.141 175.918 289.391C175.973 289.633 176.043 289.836 176.129 290ZM172.297 288.348C171.875 288.348 171.504 288.293 171.184 288.184C170.863 288.074 170.598 287.922 170.387 287.727C170.176 287.539 170.016 287.312 169.906 287.047C169.805 286.781 169.754 286.492 169.754 286.18C169.754 285.852 169.812 285.559 169.93 285.301C170.055 285.043 170.234 284.82 170.469 284.633C170.797 284.367 171.238 284.172 171.793 284.047C172.355 283.914 173.012 283.848 173.762 283.848H175.777V286.414C175.652 286.664 175.48 286.906 175.262 287.141C175.043 287.367 174.785 287.57 174.488 287.75C174.184 287.93 173.848 288.074 173.48 288.184C173.113 288.293 172.719 288.348 172.297 288.348ZM187.344 274.25H185.164V277.32H181.836V278.996H185.164V285.887C185.164 286.668 185.266 287.336 185.469 287.891C185.68 288.438 185.965 288.883 186.324 289.227C186.684 289.578 187.105 289.836 187.59 290C188.082 290.156 188.609 290.234 189.172 290.234C189.508 290.234 189.844 290.219 190.18 290.188C190.523 290.156 190.848 290.109 191.152 290.047C191.457 289.992 191.738 289.926 191.996 289.848C192.254 289.762 192.473 289.664 192.652 289.555L192.348 288.02C192.215 288.051 192.043 288.09 191.832 288.137C191.629 288.176 191.41 288.215 191.176 288.254C190.934 288.293 190.688 288.328 190.438 288.359C190.188 288.383 189.945 288.395 189.711 288.395C189.391 288.395 189.086 288.355 188.797 288.277C188.516 288.199 188.266 288.062 188.047 287.867C187.828 287.68 187.656 287.426 187.531 287.105C187.406 286.785 187.344 286.379 187.344 285.887V278.996H192.172V277.32H187.344V274.25ZM202.227 290.234C203.461 290.234 204.496 289.988 205.332 289.496C206.176 288.996 206.809 288.426 207.23 287.785L205.906 286.754C205.508 287.27 205.008 287.684 204.406 287.996C203.805 288.309 203.117 288.465 202.344 288.465C201.758 288.465 201.223 288.355 200.738 288.137C200.254 287.918 199.84 287.617 199.496 287.234C199.16 286.875 198.895 286.461 198.699 285.992C198.512 285.523 198.391 284.98 198.336 284.363V284.281H207.395V283.309C207.395 282.426 207.281 281.605 207.055 280.848C206.836 280.09 206.5 279.43 206.047 278.867C205.594 278.312 205.023 277.879 204.336 277.566C203.656 277.246 202.859 277.086 201.945 277.086C201.219 277.086 200.508 277.234 199.812 277.531C199.125 277.828 198.512 278.254 197.973 278.809C197.426 279.371 196.988 280.059 196.66 280.871C196.332 281.676 196.168 282.59 196.168 283.613V284.105C196.168 284.988 196.316 285.805 196.613 286.555C196.91 287.305 197.324 287.953 197.855 288.5C198.387 289.047 199.023 289.473 199.766 289.777C200.516 290.082 201.336 290.234 202.227 290.234ZM201.945 278.867C202.5 278.867 202.977 278.969 203.375 279.172C203.781 279.375 204.117 279.641 204.383 279.969C204.648 280.297 204.855 280.688 205.004 281.141C205.152 281.586 205.227 282.004 205.227 282.395V282.5H198.406C198.492 281.914 198.641 281.398 198.852 280.953C199.07 280.5 199.336 280.117 199.648 279.805C199.961 279.5 200.312 279.27 200.703 279.113C201.094 278.949 201.508 278.867 201.945 278.867Z" fill="black"/>
<circle cx="460.5" cy="281.5" r="8.5" fill="#F3D0FF"/>
<circle cx="759.5" cy="281.5" r="8.5" fill="#F3D0FF"/>
<circle cx="870.5" cy="281.5" r="8.5" fill="#F3D0FF"/>
<rect x="224" y="352" width="844" height="58" rx="20" fill="#C4C4C4"/>
<rect x="224" y="352" width="844" height="58" rx="20" fill="url(#paint2_linear)"/>
<rect x="224" y="352" width="844" height="58" rx="20" fill="url(#paint3_linear)"/>
<path d="M593.887 372.938H591.789L591.754 384.492C591.738 385 591.656 385.488 591.508 385.957C591.359 386.426 591.145 386.84 590.863 387.199C590.574 387.566 590.219 387.859 589.797 388.078C589.375 388.289 588.887 388.395 588.332 388.395C587.777 388.395 587.285 388.285 586.855 388.066C586.434 387.848 586.082 387.559 585.801 387.199C585.512 386.84 585.289 386.426 585.133 385.957C584.984 385.488 584.906 385 584.898 384.492L584.852 372.938H582.789L582.766 384.492C582.773 385.289 582.914 386.039 583.188 386.742C583.461 387.438 583.84 388.043 584.324 388.559C584.809 389.082 585.391 389.492 586.07 389.789C586.75 390.086 587.504 390.234 588.332 390.234C589.145 390.234 589.891 390.086 590.57 389.789C591.25 389.484 591.836 389.07 592.328 388.547C592.82 388.031 593.207 387.426 593.488 386.73C593.77 386.035 593.91 385.289 593.91 384.492L593.887 372.938ZM597.578 394.875H599.746V388.781C599.902 388.953 600.07 389.113 600.25 389.262C600.43 389.402 600.621 389.531 600.824 389.648C601.16 389.836 601.535 389.98 601.949 390.082C602.371 390.184 602.824 390.234 603.309 390.234C604.105 390.234 604.812 390.07 605.43 389.742C606.055 389.414 606.578 388.961 607 388.383C607.422 387.805 607.742 387.125 607.961 386.344C608.18 385.555 608.289 384.707 608.289 383.801V383.555C608.289 382.609 608.18 381.742 607.961 380.953C607.742 380.156 607.422 379.473 607 378.902C606.578 378.332 606.055 377.887 605.43 377.566C604.805 377.246 604.086 377.086 603.273 377.086C602.812 377.086 602.379 377.137 601.973 377.238C601.574 377.332 601.211 377.473 600.883 377.66C600.648 377.785 600.43 377.938 600.227 378.117C600.023 378.289 599.836 378.484 599.664 378.703L599.559 377.32H597.578V394.875ZM606.121 383.555V383.801C606.121 384.418 606.051 385.008 605.91 385.57C605.777 386.133 605.57 386.629 605.289 387.059C605.008 387.488 604.648 387.832 604.211 388.09C603.773 388.34 603.254 388.465 602.652 388.465C602.277 388.465 601.934 388.418 601.621 388.324C601.316 388.23 601.039 388.102 600.789 387.938C600.57 387.797 600.375 387.625 600.203 387.422C600.031 387.219 599.879 387 599.746 386.766V380.66C599.895 380.395 600.066 380.152 600.262 379.934C600.457 379.715 600.68 379.531 600.93 379.383C601.156 379.234 601.41 379.121 601.691 379.043C601.98 378.965 602.293 378.926 602.629 378.926C603.238 378.926 603.762 379.051 604.199 379.301C604.637 379.551 605 379.887 605.289 380.309C605.57 380.738 605.777 381.234 605.91 381.797C606.051 382.352 606.121 382.938 606.121 383.555ZM611.594 383.555V383.801C611.594 384.707 611.715 385.555 611.957 386.344C612.199 387.125 612.539 387.805 612.977 388.383C613.414 388.961 613.941 389.414 614.559 389.742C615.184 390.07 615.879 390.234 616.645 390.234C617.426 390.234 618.109 390.102 618.695 389.836C619.281 389.57 619.785 389.18 620.207 388.664L620.301 390H622.293V372H620.125V378.574C619.711 378.09 619.219 377.723 618.648 377.473C618.086 377.215 617.426 377.086 616.668 377.086C615.895 377.086 615.195 377.246 614.57 377.566C613.945 377.887 613.414 378.332 612.977 378.902C612.531 379.473 612.188 380.156 611.945 380.953C611.711 381.742 611.594 382.609 611.594 383.555ZM613.762 383.801V383.555C613.762 382.938 613.828 382.352 613.961 381.797C614.094 381.234 614.301 380.738 614.582 380.309C614.855 379.887 615.207 379.551 615.637 379.301C616.074 379.051 616.598 378.926 617.207 378.926C617.918 378.926 618.512 379.094 618.988 379.43C619.465 379.758 619.844 380.18 620.125 380.695V386.578C619.844 387.133 619.465 387.574 618.988 387.902C618.512 388.23 617.91 388.395 617.184 388.395C616.582 388.395 616.066 388.273 615.637 388.031C615.207 387.781 614.855 387.445 614.582 387.023C614.301 386.602 614.094 386.113 613.961 385.559C613.828 385.004 613.762 384.418 613.762 383.801ZM634.75 390H637.012V389.812C636.871 389.461 636.762 389.051 636.684 388.582C636.605 388.105 636.566 387.656 636.566 387.234V381.34C636.566 380.629 636.438 380.008 636.18 379.477C635.922 378.945 635.57 378.5 635.125 378.141C634.672 377.789 634.137 377.527 633.52 377.355C632.902 377.176 632.234 377.086 631.516 377.086C630.727 377.086 630.02 377.195 629.395 377.414C628.777 377.633 628.254 377.918 627.824 378.27C627.387 378.629 627.051 379.031 626.816 379.477C626.59 379.922 626.473 380.375 626.465 380.836H628.645C628.645 380.57 628.707 380.316 628.832 380.074C628.965 379.824 629.148 379.609 629.383 379.43C629.617 379.25 629.902 379.105 630.238 378.996C630.582 378.887 630.969 378.832 631.398 378.832C631.859 378.832 632.273 378.891 632.641 379.008C633.016 379.125 633.332 379.289 633.59 379.5C633.848 379.719 634.047 379.98 634.188 380.285C634.328 380.59 634.398 380.934 634.398 381.316V382.312H632.031C631.148 382.312 630.348 382.398 629.629 382.57C628.918 382.742 628.309 383 627.801 383.344C627.293 383.695 626.898 384.133 626.617 384.656C626.344 385.18 626.207 385.789 626.207 386.484C626.207 387.016 626.309 387.512 626.512 387.973C626.723 388.426 627.02 388.816 627.402 389.145C627.777 389.48 628.234 389.746 628.773 389.941C629.32 390.137 629.93 390.234 630.602 390.234C631.016 390.234 631.406 390.191 631.773 390.105C632.141 390.02 632.488 389.902 632.816 389.754C633.137 389.605 633.43 389.434 633.695 389.238C633.969 389.043 634.215 388.836 634.434 388.617C634.457 388.883 634.492 389.141 634.539 389.391C634.594 389.633 634.664 389.836 634.75 390ZM630.918 388.348C630.496 388.348 630.125 388.293 629.805 388.184C629.484 388.074 629.219 387.922 629.008 387.727C628.797 387.539 628.637 387.312 628.527 387.047C628.426 386.781 628.375 386.492 628.375 386.18C628.375 385.852 628.434 385.559 628.551 385.301C628.676 385.043 628.855 384.82 629.09 384.633C629.418 384.367 629.859 384.172 630.414 384.047C630.977 383.914 631.633 383.848 632.383 383.848H634.398V386.414C634.273 386.664 634.102 386.906 633.883 387.141C633.664 387.367 633.406 387.57 633.109 387.75C632.805 387.93 632.469 388.074 632.102 388.184C631.734 388.293 631.34 388.348 630.918 388.348ZM645.965 374.25H643.785V377.32H640.457V378.996H643.785V385.887C643.785 386.668 643.887 387.336 644.09 387.891C644.301 388.438 644.586 388.883 644.945 389.227C645.305 389.578 645.727 389.836 646.211 390C646.703 390.156 647.23 390.234 647.793 390.234C648.129 390.234 648.465 390.219 648.801 390.188C649.145 390.156 649.469 390.109 649.773 390.047C650.078 389.992 650.359 389.926 650.617 389.848C650.875 389.762 651.094 389.664 651.273 389.555L650.969 388.02C650.836 388.051 650.664 388.09 650.453 388.137C650.25 388.176 650.031 388.215 649.797 388.254C649.555 388.293 649.309 388.328 649.059 388.359C648.809 388.383 648.566 388.395 648.332 388.395C648.012 388.395 647.707 388.355 647.418 388.277C647.137 388.199 646.887 388.062 646.668 387.867C646.449 387.68 646.277 387.426 646.152 387.105C646.027 386.785 645.965 386.379 645.965 385.887V378.996H650.793V377.32H645.965V374.25ZM660.848 390.234C662.082 390.234 663.117 389.988 663.953 389.496C664.797 388.996 665.43 388.426 665.852 387.785L664.527 386.754C664.129 387.27 663.629 387.684 663.027 387.996C662.426 388.309 661.738 388.465 660.965 388.465C660.379 388.465 659.844 388.355 659.359 388.137C658.875 387.918 658.461 387.617 658.117 387.234C657.781 386.875 657.516 386.461 657.32 385.992C657.133 385.523 657.012 384.98 656.957 384.363V384.281H666.016V383.309C666.016 382.426 665.902 381.605 665.676 380.848C665.457 380.09 665.121 379.43 664.668 378.867C664.215 378.312 663.645 377.879 662.957 377.566C662.277 377.246 661.48 377.086 660.566 377.086C659.84 377.086 659.129 377.234 658.434 377.531C657.746 377.828 657.133 378.254 656.594 378.809C656.047 379.371 655.609 380.059 655.281 380.871C654.953 381.676 654.789 382.59 654.789 383.613V384.105C654.789 384.988 654.938 385.805 655.234 386.555C655.531 387.305 655.945 387.953 656.477 388.5C657.008 389.047 657.645 389.473 658.387 389.777C659.137 390.082 659.957 390.234 660.848 390.234ZM660.566 378.867C661.121 378.867 661.598 378.969 661.996 379.172C662.402 379.375 662.738 379.641 663.004 379.969C663.27 380.297 663.477 380.688 663.625 381.141C663.773 381.586 663.848 382.004 663.848 382.395V382.5H657.027C657.113 381.914 657.262 381.398 657.473 380.953C657.691 380.5 657.957 380.117 658.27 379.805C658.582 379.5 658.934 379.27 659.324 379.113C659.715 378.949 660.129 378.867 660.566 378.867ZM694.785 372.938H692.688L692.652 384.492C692.637 385 692.555 385.488 692.406 385.957C692.258 386.426 692.043 386.84 691.762 387.199C691.473 387.566 691.117 387.859 690.695 388.078C690.273 388.289 689.785 388.395 689.23 388.395C688.676 388.395 688.184 388.285 687.754 388.066C687.332 387.848 686.98 387.559 686.699 387.199C686.41 386.84 686.188 386.426 686.031 385.957C685.883 385.488 685.805 385 685.797 384.492L685.75 372.938H683.688L683.664 384.492C683.672 385.289 683.812 386.039 684.086 386.742C684.359 387.438 684.738 388.043 685.223 388.559C685.707 389.082 686.289 389.492 686.969 389.789C687.648 390.086 688.402 390.234 689.23 390.234C690.043 390.234 690.789 390.086 691.469 389.789C692.148 389.484 692.734 389.07 693.227 388.547C693.719 388.031 694.105 387.426 694.387 386.73C694.668 386.035 694.809 385.289 694.809 384.492L694.785 372.938ZM698.488 372.938V374.824H702.484V388.125H698.488V390H708.801V388.125H704.711V374.824H708.801V372.938H698.488Z" fill="black"/>
<rect x="224" y="152" width="844" height="58" rx="20" fill="#C4C4C4"/>
<rect x="224" y="152" width="844" height="58" rx="20" fill="url(#paint4_linear)"/>
<rect x="224" y="152" width="844" height="58" rx="20" fill="url(#paint5_linear)"/>
<path d="M408.148 183.039L411.5 190H413.785L413.797 189.859L410.176 182.57C410.645 182.367 411.074 182.121 411.465 181.832C411.855 181.543 412.191 181.211 412.473 180.836C412.754 180.461 412.973 180.043 413.129 179.582C413.293 179.121 413.375 178.613 413.375 178.059C413.375 177.199 413.223 176.453 412.918 175.82C412.621 175.18 412.211 174.648 411.688 174.227C411.156 173.805 410.539 173.488 409.836 173.277C409.133 173.066 408.383 172.953 407.586 172.938H402.582V190H404.738V183.039H408.148ZM404.738 181.258V174.719H407.586C408.109 174.727 408.59 174.801 409.027 174.941C409.473 175.082 409.855 175.289 410.176 175.562C410.496 175.844 410.746 176.191 410.926 176.605C411.105 177.012 411.195 177.488 411.195 178.035C411.195 178.551 411.102 179.008 410.914 179.406C410.727 179.797 410.473 180.129 410.152 180.402C409.824 180.676 409.445 180.887 409.016 181.035C408.586 181.176 408.129 181.25 407.645 181.258H404.738ZM422.516 190.234C423.75 190.234 424.785 189.988 425.621 189.496C426.465 188.996 427.098 188.426 427.52 187.785L426.195 186.754C425.797 187.27 425.297 187.684 424.695 187.996C424.094 188.309 423.406 188.465 422.633 188.465C422.047 188.465 421.512 188.355 421.027 188.137C420.543 187.918 420.129 187.617 419.785 187.234C419.449 186.875 419.184 186.461 418.988 185.992C418.801 185.523 418.68 184.98 418.625 184.363V184.281H427.684V183.309C427.684 182.426 427.57 181.605 427.344 180.848C427.125 180.09 426.789 179.43 426.336 178.867C425.883 178.312 425.312 177.879 424.625 177.566C423.945 177.246 423.148 177.086 422.234 177.086C421.508 177.086 420.797 177.234 420.102 177.531C419.414 177.828 418.801 178.254 418.262 178.809C417.715 179.371 417.277 180.059 416.949 180.871C416.621 181.676 416.457 182.59 416.457 183.613V184.105C416.457 184.988 416.605 185.805 416.902 186.555C417.199 187.305 417.613 187.953 418.145 188.5C418.676 189.047 419.312 189.473 420.055 189.777C420.805 190.082 421.625 190.234 422.516 190.234ZM422.234 178.867C422.789 178.867 423.266 178.969 423.664 179.172C424.07 179.375 424.406 179.641 424.672 179.969C424.938 180.297 425.145 180.688 425.293 181.141C425.441 181.586 425.516 182.004 425.516 182.395V182.5H418.695C418.781 181.914 418.93 181.398 419.141 180.953C419.359 180.5 419.625 180.117 419.938 179.805C420.25 179.5 420.602 179.27 420.992 179.113C421.383 178.949 421.797 178.867 422.234 178.867ZM436.461 174.25H434.281V177.32H430.953V178.996H434.281V185.887C434.281 186.668 434.383 187.336 434.586 187.891C434.797 188.438 435.082 188.883 435.441 189.227C435.801 189.578 436.223 189.836 436.707 190C437.199 190.156 437.727 190.234 438.289 190.234C438.625 190.234 438.961 190.219 439.297 190.188C439.641 190.156 439.965 190.109 440.27 190.047C440.574 189.992 440.855 189.926 441.113 189.848C441.371 189.762 441.59 189.664 441.77 189.555L441.465 188.02C441.332 188.051 441.16 188.09 440.949 188.137C440.746 188.176 440.527 188.215 440.293 188.254C440.051 188.293 439.805 188.328 439.555 188.359C439.305 188.383 439.062 188.395 438.828 188.395C438.508 188.395 438.203 188.355 437.914 188.277C437.633 188.199 437.383 188.062 437.164 187.867C436.945 187.68 436.773 187.426 436.648 187.105C436.523 186.785 436.461 186.379 436.461 185.887V178.996H441.289V177.32H436.461V174.25ZM454.051 177.086C453.129 177.086 452.305 177.289 451.578 177.695C450.859 178.094 450.242 178.641 449.727 179.336L449.715 179.02L449.621 177.32H447.559V190H449.738V181.867C449.879 181.477 450.055 181.125 450.266 180.812C450.484 180.492 450.738 180.223 451.027 180.004C451.348 179.754 451.723 179.566 452.152 179.441C452.582 179.309 453.062 179.242 453.594 179.242C454.008 179.242 454.402 179.266 454.777 179.312C455.16 179.352 455.562 179.418 455.984 179.512L456.277 177.391C456.059 177.297 455.73 177.223 455.293 177.168C454.863 177.113 454.449 177.086 454.051 177.086ZM460.496 177.32V179.207H464.809V188.125H460.496V190H471.113V188.125H466.977V177.32H460.496ZM464.527 173.992C464.527 174.344 464.633 174.637 464.844 174.871C465.062 175.105 465.391 175.223 465.828 175.223C466.258 175.223 466.582 175.105 466.801 174.871C467.02 174.637 467.129 174.344 467.129 173.992C467.129 173.797 467.098 173.617 467.035 173.453C466.973 173.289 466.879 173.152 466.754 173.043C466.652 172.941 466.523 172.863 466.367 172.809C466.211 172.746 466.031 172.715 465.828 172.715C465.625 172.715 465.441 172.746 465.277 172.809C465.121 172.863 464.992 172.941 464.891 173.043C464.766 173.16 464.672 173.301 464.609 173.465C464.555 173.629 464.527 173.805 464.527 173.992ZM480.172 190.234C481.406 190.234 482.441 189.988 483.277 189.496C484.121 188.996 484.754 188.426 485.176 187.785L483.852 186.754C483.453 187.27 482.953 187.684 482.352 187.996C481.75 188.309 481.062 188.465 480.289 188.465C479.703 188.465 479.168 188.355 478.684 188.137C478.199 187.918 477.785 187.617 477.441 187.234C477.105 186.875 476.84 186.461 476.645 185.992C476.457 185.523 476.336 184.98 476.281 184.363V184.281H485.34V183.309C485.34 182.426 485.227 181.605 485 180.848C484.781 180.09 484.445 179.43 483.992 178.867C483.539 178.312 482.969 177.879 482.281 177.566C481.602 177.246 480.805 177.086 479.891 177.086C479.164 177.086 478.453 177.234 477.758 177.531C477.07 177.828 476.457 178.254 475.918 178.809C475.371 179.371 474.934 180.059 474.605 180.871C474.277 181.676 474.113 182.59 474.113 183.613V184.105C474.113 184.988 474.262 185.805 474.559 186.555C474.855 187.305 475.27 187.953 475.801 188.5C476.332 189.047 476.969 189.473 477.711 189.777C478.461 190.082 479.281 190.234 480.172 190.234ZM479.891 178.867C480.445 178.867 480.922 178.969 481.32 179.172C481.727 179.375 482.062 179.641 482.328 179.969C482.594 180.297 482.801 180.688 482.949 181.141C483.098 181.586 483.172 182.004 483.172 182.395V182.5H476.352C476.438 181.914 476.586 181.398 476.797 180.953C477.016 180.5 477.281 180.117 477.594 179.805C477.906 179.5 478.258 179.27 478.648 179.113C479.039 178.949 479.453 178.867 479.891 178.867ZM493.309 190H494.961L500.129 177.32H497.914L494.363 186.883L494.152 187.668L493.953 186.883L490.32 177.32H488.094L493.309 190ZM509 190.234C510.234 190.234 511.27 189.988 512.105 189.496C512.949 188.996 513.582 188.426 514.004 187.785L512.68 186.754C512.281 187.27 511.781 187.684 511.18 187.996C510.578 188.309 509.891 188.465 509.117 188.465C508.531 188.465 507.996 188.355 507.512 188.137C507.027 187.918 506.613 187.617 506.27 187.234C505.934 186.875 505.668 186.461 505.473 185.992C505.285 185.523 505.164 184.98 505.109 184.363V184.281H514.168V183.309C514.168 182.426 514.055 181.605 513.828 180.848C513.609 180.09 513.273 179.43 512.82 178.867C512.367 178.312 511.797 177.879 511.109 177.566C510.43 177.246 509.633 177.086 508.719 177.086C507.992 177.086 507.281 177.234 506.586 177.531C505.898 177.828 505.285 178.254 504.746 178.809C504.199 179.371 503.762 180.059 503.434 180.871C503.105 181.676 502.941 182.59 502.941 183.613V184.105C502.941 184.988 503.09 185.805 503.387 186.555C503.684 187.305 504.098 187.953 504.629 188.5C505.16 189.047 505.797 189.473 506.539 189.777C507.289 190.082 508.109 190.234 509 190.234ZM508.719 178.867C509.273 178.867 509.75 178.969 510.148 179.172C510.555 179.375 510.891 179.641 511.156 179.969C511.422 180.297 511.629 180.688 511.777 181.141C511.926 181.586 512 182.004 512 182.395V182.5H505.18C505.266 181.914 505.414 181.398 505.625 180.953C505.844 180.5 506.109 180.117 506.422 179.805C506.734 179.5 507.086 179.27 507.477 179.113C507.867 178.949 508.281 178.867 508.719 178.867ZM540.652 186.637C540.652 186.84 540.613 187.031 540.535 187.211C540.457 187.391 540.344 187.555 540.195 187.703C539.953 187.945 539.617 188.137 539.188 188.277C538.758 188.41 538.254 188.477 537.676 188.477C537.309 188.477 536.938 188.438 536.562 188.359C536.188 188.281 535.848 188.148 535.543 187.961C535.23 187.773 534.969 187.527 534.758 187.223C534.555 186.918 534.438 186.543 534.406 186.098H532.238C532.238 186.637 532.359 187.156 532.602 187.656C532.852 188.156 533.211 188.594 533.68 188.969C534.141 189.352 534.707 189.66 535.379 189.895C536.051 190.121 536.816 190.234 537.676 190.234C538.426 190.234 539.117 190.145 539.75 189.965C540.383 189.785 540.926 189.531 541.379 189.203C541.832 188.875 542.184 188.48 542.434 188.02C542.691 187.559 542.82 187.047 542.82 186.484C542.82 185.961 542.707 185.5 542.48 185.102C542.262 184.703 541.941 184.352 541.52 184.047C541.098 183.75 540.578 183.496 539.961 183.285C539.344 183.066 538.645 182.875 537.863 182.711C537.27 182.594 536.777 182.473 536.387 182.348C536.004 182.223 535.699 182.082 535.473 181.926C535.238 181.77 535.074 181.594 534.98 181.398C534.887 181.203 534.84 180.98 534.84 180.73C534.84 180.488 534.898 180.254 535.016 180.027C535.133 179.801 535.309 179.602 535.543 179.43C535.77 179.258 536.055 179.121 536.398 179.02C536.75 178.918 537.156 178.867 537.617 178.867C538.062 178.867 538.461 178.93 538.812 179.055C539.172 179.18 539.477 179.344 539.727 179.547C539.977 179.75 540.172 179.984 540.312 180.25C540.453 180.508 540.523 180.773 540.523 181.047H542.691C542.691 180.492 542.57 179.977 542.328 179.5C542.094 179.016 541.758 178.594 541.32 178.234C540.883 177.875 540.352 177.594 539.727 177.391C539.102 177.188 538.398 177.086 537.617 177.086C536.891 177.086 536.223 177.184 535.613 177.379C535.012 177.574 534.492 177.84 534.055 178.176C533.617 178.512 533.277 178.906 533.035 179.359C532.793 179.805 532.672 180.285 532.672 180.801C532.672 181.324 532.789 181.785 533.023 182.184C533.258 182.574 533.59 182.914 534.02 183.203C534.441 183.5 534.949 183.754 535.543 183.965C536.145 184.176 536.809 184.355 537.535 184.504C538.129 184.621 538.625 184.754 539.023 184.902C539.422 185.043 539.742 185.199 539.984 185.371C540.227 185.543 540.398 185.734 540.5 185.945C540.602 186.148 540.652 186.379 540.652 186.637ZM546.031 183.543V183.801C546.031 184.715 546.164 185.562 546.43 186.344C546.695 187.125 547.078 187.805 547.578 188.383C548.07 188.961 548.672 189.414 549.383 189.742C550.102 190.07 550.91 190.234 551.809 190.234C552.699 190.234 553.5 190.07 554.211 189.742C554.922 189.414 555.527 188.961 556.027 188.383C556.52 187.805 556.898 187.125 557.164 186.344C557.43 185.562 557.562 184.715 557.562 183.801V183.543C557.562 182.629 557.43 181.781 557.164 181C556.898 180.211 556.52 179.527 556.027 178.949C555.527 178.371 554.918 177.918 554.199 177.59C553.488 177.254 552.684 177.086 551.785 177.086C550.895 177.086 550.094 177.254 549.383 177.59C548.672 177.918 548.07 178.371 547.578 178.949C547.078 179.527 546.695 180.211 546.43 181C546.164 181.781 546.031 182.629 546.031 183.543ZM548.199 183.801V183.543C548.199 182.926 548.273 182.336 548.422 181.773C548.57 181.203 548.797 180.703 549.102 180.273C549.398 179.844 549.77 179.504 550.215 179.254C550.66 178.996 551.184 178.867 551.785 178.867C552.387 178.867 552.91 178.996 553.355 179.254C553.809 179.504 554.188 179.844 554.492 180.273C554.789 180.703 555.012 181.203 555.16 181.773C555.316 182.336 555.395 182.926 555.395 183.543V183.801C555.395 184.426 555.32 185.023 555.172 185.594C555.023 186.156 554.801 186.652 554.504 187.082C554.199 187.512 553.82 187.852 553.367 188.102C552.922 188.352 552.402 188.477 551.809 188.477C551.207 188.477 550.68 188.352 550.227 188.102C549.773 187.852 549.398 187.512 549.102 187.082C548.797 186.652 548.57 186.156 548.422 185.594C548.273 185.023 548.199 184.426 548.199 183.801ZM562.051 177.32H560.105V190H562.168V179.91C562.215 179.785 562.273 179.668 562.344 179.559C562.422 179.449 562.512 179.352 562.613 179.266C562.746 179.156 562.906 179.074 563.094 179.02C563.289 178.957 563.516 178.926 563.773 178.926C564.008 178.926 564.211 178.957 564.383 179.02C564.562 179.074 564.711 179.164 564.828 179.289C564.953 179.422 565.043 179.59 565.098 179.793C565.16 179.996 565.191 180.23 565.191 180.496V190H567.254V180.508C567.254 180.461 567.254 180.422 567.254 180.391C567.254 180.352 567.254 180.312 567.254 180.273C567.277 180.078 567.324 179.902 567.395 179.746C567.465 179.582 567.562 179.438 567.688 179.312C567.812 179.195 567.969 179.102 568.156 179.031C568.344 178.961 568.566 178.926 568.824 178.926C569.066 178.926 569.277 178.957 569.457 179.02C569.645 179.082 569.801 179.176 569.926 179.301C570.043 179.434 570.133 179.602 570.195 179.805C570.258 180.008 570.289 180.242 570.289 180.508V190H572.352V180.531C572.352 179.922 572.281 179.395 572.141 178.949C572 178.496 571.797 178.129 571.531 177.848C571.289 177.598 570.992 177.41 570.641 177.285C570.289 177.152 569.895 177.086 569.457 177.086C569.137 177.094 568.84 177.137 568.566 177.215C568.301 177.293 568.059 177.398 567.84 177.531C567.668 177.648 567.508 177.785 567.359 177.941C567.211 178.098 567.082 178.266 566.973 178.445C566.887 178.25 566.781 178.074 566.656 177.918C566.539 177.762 566.406 177.629 566.258 177.52C566.055 177.379 565.816 177.273 565.543 177.203C565.277 177.125 564.977 177.086 564.641 177.086C564.047 177.094 563.539 177.223 563.117 177.473C562.703 177.723 562.367 178.07 562.109 178.516L562.051 177.32ZM581.07 190.234C582.305 190.234 583.34 189.988 584.176 189.496C585.02 188.996 585.652 188.426 586.074 187.785L584.75 186.754C584.352 187.27 583.852 187.684 583.25 187.996C582.648 188.309 581.961 188.465 581.188 188.465C580.602 188.465 580.066 188.355 579.582 188.137C579.098 187.918 578.684 187.617 578.34 187.234C578.004 186.875 577.738 186.461 577.543 185.992C577.355 185.523 577.234 184.98 577.18 184.363V184.281H586.238V183.309C586.238 182.426 586.125 181.605 585.898 180.848C585.68 180.09 585.344 179.43 584.891 178.867C584.438 178.312 583.867 177.879 583.18 177.566C582.5 177.246 581.703 177.086 580.789 177.086C580.062 177.086 579.352 177.234 578.656 177.531C577.969 177.828 577.355 178.254 576.816 178.809C576.27 179.371 575.832 180.059 575.504 180.871C575.176 181.676 575.012 182.59 575.012 183.613V184.105C575.012 184.988 575.16 185.805 575.457 186.555C575.754 187.305 576.168 187.953 576.699 188.5C577.23 189.047 577.867 189.473 578.609 189.777C579.359 190.082 580.18 190.234 581.07 190.234ZM580.789 178.867C581.344 178.867 581.82 178.969 582.219 179.172C582.625 179.375 582.961 179.641 583.227 179.969C583.492 180.297 583.699 180.688 583.848 181.141C583.996 181.586 584.07 182.004 584.07 182.395V182.5H577.25C577.336 181.914 577.484 181.398 577.695 180.953C577.914 180.5 578.18 180.117 578.492 179.805C578.805 179.5 579.156 179.27 579.547 179.113C579.938 178.949 580.352 178.867 580.789 178.867ZM595.016 174.25H592.836V177.32H589.508V178.996H592.836V185.887C592.836 186.668 592.938 187.336 593.141 187.891C593.352 188.438 593.637 188.883 593.996 189.227C594.355 189.578 594.777 189.836 595.262 190C595.754 190.156 596.281 190.234 596.844 190.234C597.18 190.234 597.516 190.219 597.852 190.188C598.195 190.156 598.52 190.109 598.824 190.047C599.129 189.992 599.41 189.926 599.668 189.848C599.926 189.762 600.145 189.664 600.324 189.555L600.02 188.02C599.887 188.051 599.715 188.09 599.504 188.137C599.301 188.176 599.082 188.215 598.848 188.254C598.605 188.293 598.359 188.328 598.109 188.359C597.859 188.383 597.617 188.395 597.383 188.395C597.062 188.395 596.758 188.355 596.469 188.277C596.188 188.199 595.938 188.062 595.719 187.867C595.5 187.68 595.328 187.426 595.203 187.105C595.078 186.785 595.016 186.379 595.016 185.887V178.996H599.844V177.32H595.016V174.25ZM606.465 179.207V172H604.297V190H606.465V180.789C606.621 180.539 606.797 180.312 606.992 180.109C607.195 179.898 607.414 179.715 607.648 179.559C607.945 179.355 608.27 179.199 608.621 179.09C608.973 178.98 609.344 178.926 609.734 178.926C610.211 178.918 610.633 178.984 611 179.125C611.367 179.258 611.672 179.461 611.914 179.734C612.141 179.984 612.312 180.301 612.43 180.684C612.547 181.059 612.605 181.496 612.605 181.996V190H614.773V182.02C614.773 181.168 614.668 180.434 614.457 179.816C614.254 179.191 613.961 178.676 613.578 178.27C613.195 177.863 612.73 177.566 612.184 177.379C611.645 177.184 611.043 177.086 610.379 177.086C609.871 177.094 609.391 177.168 608.938 177.309C608.492 177.449 608.082 177.656 607.707 177.93C607.473 178.094 607.25 178.285 607.039 178.504C606.828 178.715 606.637 178.949 606.465 179.207ZM619.051 177.32V179.207H623.363V188.125H619.051V190H629.668V188.125H625.531V177.32H619.051ZM623.082 173.992C623.082 174.344 623.188 174.637 623.398 174.871C623.617 175.105 623.945 175.223 624.383 175.223C624.812 175.223 625.137 175.105 625.355 174.871C625.574 174.637 625.684 174.344 625.684 173.992C625.684 173.797 625.652 173.617 625.59 173.453C625.527 173.289 625.434 173.152 625.309 173.043C625.207 172.941 625.078 172.863 624.922 172.809C624.766 172.746 624.586 172.715 624.383 172.715C624.18 172.715 623.996 172.746 623.832 172.809C623.676 172.863 623.547 172.941 623.445 173.043C623.32 173.16 623.227 173.301 623.164 173.465C623.109 173.629 623.082 173.805 623.082 173.992ZM633.125 190H635.293V180.906C635.441 180.633 635.613 180.383 635.809 180.156C636.012 179.93 636.23 179.73 636.465 179.559C636.754 179.363 637.07 179.211 637.414 179.102C637.758 178.984 638.129 178.926 638.527 178.926C638.988 178.926 639.395 178.98 639.746 179.09C640.105 179.199 640.41 179.375 640.66 179.617C640.902 179.859 641.086 180.176 641.211 180.566C641.336 180.957 641.398 181.434 641.398 181.996V190H643.566V181.949C643.566 181.105 643.461 180.379 643.25 179.77C643.047 179.152 642.754 178.645 642.371 178.246C641.988 177.848 641.523 177.555 640.977 177.367C640.438 177.18 639.836 177.086 639.172 177.086C638.68 177.094 638.211 177.168 637.766 177.309C637.328 177.441 636.922 177.633 636.547 177.883C636.297 178.047 636.059 178.242 635.832 178.469C635.613 178.688 635.41 178.93 635.223 179.195L635.07 177.32H633.125V190ZM647.141 183.555V183.801C647.141 184.707 647.258 185.555 647.492 186.344C647.727 187.125 648.062 187.805 648.5 188.383C648.93 188.961 649.457 189.414 650.082 189.742C650.707 190.07 651.406 190.234 652.18 190.234C652.641 190.234 653.07 190.184 653.469 190.082C653.867 189.988 654.23 189.852 654.559 189.672C654.77 189.555 654.965 189.418 655.145 189.262C655.332 189.105 655.508 188.934 655.672 188.746V189.836C655.672 190.383 655.594 190.867 655.438 191.289C655.281 191.711 655.059 192.062 654.77 192.344C654.473 192.633 654.117 192.852 653.703 193C653.289 193.148 652.824 193.223 652.309 193.223C652.02 193.223 651.73 193.191 651.441 193.129C651.152 193.074 650.863 192.98 650.574 192.848C650.285 192.715 650 192.535 649.719 192.309C649.438 192.09 649.164 191.82 648.898 191.5L647.773 192.801C648.062 193.215 648.406 193.562 648.805 193.844C649.211 194.125 649.633 194.348 650.07 194.512C650.5 194.684 650.926 194.805 651.348 194.875C651.77 194.953 652.145 194.992 652.473 194.992C653.27 194.992 653.996 194.875 654.652 194.641C655.309 194.406 655.875 194.062 656.352 193.609C656.82 193.156 657.184 192.605 657.441 191.957C657.707 191.309 657.84 190.566 657.84 189.73V177.32H655.871L655.766 178.703C655.617 178.516 655.457 178.344 655.285 178.188C655.121 178.031 654.945 177.895 654.758 177.777C654.414 177.551 654.027 177.379 653.598 177.262C653.176 177.145 652.711 177.086 652.203 177.086C651.414 177.086 650.707 177.246 650.082 177.566C649.457 177.887 648.926 178.332 648.488 178.902C648.051 179.473 647.715 180.156 647.48 180.953C647.254 181.742 647.141 182.609 647.141 183.555ZM649.309 183.801V183.555C649.309 182.938 649.371 182.352 649.496 181.797C649.629 181.234 649.836 180.738 650.117 180.309C650.391 179.887 650.742 179.551 651.172 179.301C651.609 179.051 652.133 178.926 652.742 178.926C653.102 178.926 653.43 178.973 653.727 179.066C654.023 179.152 654.293 179.273 654.535 179.43C654.777 179.594 654.992 179.785 655.18 180.004C655.367 180.223 655.531 180.465 655.672 180.73V186.543C655.531 186.816 655.367 187.066 655.18 187.293C654.992 187.52 654.781 187.715 654.547 187.879C654.305 188.043 654.031 188.172 653.727 188.266C653.43 188.352 653.094 188.395 652.719 188.395C652.117 188.395 651.602 188.273 651.172 188.031C650.742 187.781 650.391 187.445 650.117 187.023C649.836 186.602 649.629 186.113 649.496 185.559C649.371 185.004 649.309 184.418 649.309 183.801ZM679.602 190H681.781V178.996H686.668V177.32H681.781V176.43C681.781 175.898 681.848 175.434 681.98 175.035C682.121 174.637 682.324 174.312 682.59 174.062C682.84 173.82 683.152 173.641 683.527 173.523C683.91 173.398 684.348 173.336 684.84 173.336C685.324 173.336 685.777 173.379 686.199 173.465C686.629 173.543 687.004 173.637 687.324 173.746L687.582 171.953C687.379 171.898 687.18 171.852 686.984 171.812C686.789 171.766 686.594 171.723 686.398 171.684C686.102 171.629 685.801 171.586 685.496 171.555C685.191 171.516 684.883 171.496 684.57 171.496C683.82 171.496 683.141 171.602 682.531 171.812C681.922 172.023 681.402 172.336 680.973 172.75C680.535 173.164 680.195 173.68 679.953 174.297C679.719 174.906 679.602 175.617 679.602 176.43V177.32H676.109V178.996H679.602V190ZM699.09 177.086C698.168 177.086 697.344 177.289 696.617 177.695C695.898 178.094 695.281 178.641 694.766 179.336L694.754 179.02L694.66 177.32H692.598V190H694.777V181.867C694.918 181.477 695.094 181.125 695.305 180.812C695.523 180.492 695.777 180.223 696.066 180.004C696.387 179.754 696.762 179.566 697.191 179.441C697.621 179.309 698.102 179.242 698.633 179.242C699.047 179.242 699.441 179.266 699.816 179.312C700.199 179.352 700.602 179.418 701.023 179.512L701.316 177.391C701.098 177.297 700.77 177.223 700.332 177.168C699.902 177.113 699.488 177.086 699.09 177.086ZM704.586 183.543V183.801C704.586 184.715 704.719 185.562 704.984 186.344C705.25 187.125 705.633 187.805 706.133 188.383C706.625 188.961 707.227 189.414 707.938 189.742C708.656 190.07 709.465 190.234 710.363 190.234C711.254 190.234 712.055 190.07 712.766 189.742C713.477 189.414 714.082 188.961 714.582 188.383C715.074 187.805 715.453 187.125 715.719 186.344C715.984 185.562 716.117 184.715 716.117 183.801V183.543C716.117 182.629 715.984 181.781 715.719 181C715.453 180.211 715.074 179.527 714.582 178.949C714.082 178.371 713.473 177.918 712.754 177.59C712.043 177.254 711.238 177.086 710.34 177.086C709.449 177.086 708.648 177.254 707.938 177.59C707.227 177.918 706.625 178.371 706.133 178.949C705.633 179.527 705.25 180.211 704.984 181C704.719 181.781 704.586 182.629 704.586 183.543ZM706.754 183.801V183.543C706.754 182.926 706.828 182.336 706.977 181.773C707.125 181.203 707.352 180.703 707.656 180.273C707.953 179.844 708.324 179.504 708.77 179.254C709.215 178.996 709.738 178.867 710.34 178.867C710.941 178.867 711.465 178.996 711.91 179.254C712.363 179.504 712.742 179.844 713.047 180.273C713.344 180.703 713.566 181.203 713.715 181.773C713.871 182.336 713.949 182.926 713.949 183.543V183.801C713.949 184.426 713.875 185.023 713.727 185.594C713.578 186.156 713.355 186.652 713.059 187.082C712.754 187.512 712.375 187.852 711.922 188.102C711.477 188.352 710.957 188.477 710.363 188.477C709.762 188.477 709.234 188.352 708.781 188.102C708.328 187.852 707.953 187.512 707.656 187.082C707.352 186.652 707.125 186.156 706.977 185.594C706.828 185.023 706.754 184.426 706.754 183.801ZM720.605 177.32H718.66V190H720.723V179.91C720.77 179.785 720.828 179.668 720.898 179.559C720.977 179.449 721.066 179.352 721.168 179.266C721.301 179.156 721.461 179.074 721.648 179.02C721.844 178.957 722.07 178.926 722.328 178.926C722.562 178.926 722.766 178.957 722.938 179.02C723.117 179.074 723.266 179.164 723.383 179.289C723.508 179.422 723.598 179.59 723.652 179.793C723.715 179.996 723.746 180.23 723.746 180.496V190H725.809V180.508C725.809 180.461 725.809 180.422 725.809 180.391C725.809 180.352 725.809 180.312 725.809 180.273C725.832 180.078 725.879 179.902 725.949 179.746C726.02 179.582 726.117 179.438 726.242 179.312C726.367 179.195 726.523 179.102 726.711 179.031C726.898 178.961 727.121 178.926 727.379 178.926C727.621 178.926 727.832 178.957 728.012 179.02C728.199 179.082 728.355 179.176 728.48 179.301C728.598 179.434 728.688 179.602 728.75 179.805C728.812 180.008 728.844 180.242 728.844 180.508V190H730.906V180.531C730.906 179.922 730.836 179.395 730.695 178.949C730.555 178.496 730.352 178.129 730.086 177.848C729.844 177.598 729.547 177.41 729.195 177.285C728.844 177.152 728.449 177.086 728.012 177.086C727.691 177.094 727.395 177.137 727.121 177.215C726.855 177.293 726.613 177.398 726.395 177.531C726.223 177.648 726.062 177.785 725.914 177.941C725.766 178.098 725.637 178.266 725.527 178.445C725.441 178.25 725.336 178.074 725.211 177.918C725.094 177.762 724.961 177.629 724.812 177.52C724.609 177.379 724.371 177.273 724.098 177.203C723.832 177.125 723.531 177.086 723.195 177.086C722.602 177.094 722.094 177.223 721.672 177.473C721.258 177.723 720.922 178.07 720.664 178.516L720.605 177.32ZM753.57 174.25H751.391V177.32H748.062V178.996H751.391V185.887C751.391 186.668 751.492 187.336 751.695 187.891C751.906 188.438 752.191 188.883 752.551 189.227C752.91 189.578 753.332 189.836 753.816 190C754.309 190.156 754.836 190.234 755.398 190.234C755.734 190.234 756.07 190.219 756.406 190.188C756.75 190.156 757.074 190.109 757.379 190.047C757.684 189.992 757.965 189.926 758.223 189.848C758.48 189.762 758.699 189.664 758.879 189.555L758.574 188.02C758.441 188.051 758.27 188.09 758.059 188.137C757.855 188.176 757.637 188.215 757.402 188.254C757.16 188.293 756.914 188.328 756.664 188.359C756.414 188.383 756.172 188.395 755.938 188.395C755.617 188.395 755.312 188.355 755.023 188.277C754.742 188.199 754.492 188.062 754.273 187.867C754.055 187.68 753.883 187.426 753.758 187.105C753.633 186.785 753.57 186.379 753.57 185.887V178.996H758.398V177.32H753.57V174.25ZM765.02 179.207V172H762.852V190H765.02V180.789C765.176 180.539 765.352 180.312 765.547 180.109C765.75 179.898 765.969 179.715 766.203 179.559C766.5 179.355 766.824 179.199 767.176 179.09C767.527 178.98 767.898 178.926 768.289 178.926C768.766 178.918 769.188 178.984 769.555 179.125C769.922 179.258 770.227 179.461 770.469 179.734C770.695 179.984 770.867 180.301 770.984 180.684C771.102 181.059 771.16 181.496 771.16 181.996V190H773.328V182.02C773.328 181.168 773.223 180.434 773.012 179.816C772.809 179.191 772.516 178.676 772.133 178.27C771.75 177.863 771.285 177.566 770.738 177.379C770.199 177.184 769.598 177.086 768.934 177.086C768.426 177.094 767.945 177.168 767.492 177.309C767.047 177.449 766.637 177.656 766.262 177.93C766.027 178.094 765.805 178.285 765.594 178.504C765.383 178.715 765.191 178.949 765.02 179.207ZM782.867 190.234C784.102 190.234 785.137 189.988 785.973 189.496C786.816 188.996 787.449 188.426 787.871 187.785L786.547 186.754C786.148 187.27 785.648 187.684 785.047 187.996C784.445 188.309 783.758 188.465 782.984 188.465C782.398 188.465 781.863 188.355 781.379 188.137C780.895 187.918 780.48 187.617 780.137 187.234C779.801 186.875 779.535 186.461 779.34 185.992C779.152 185.523 779.031 184.98 778.977 184.363V184.281H788.035V183.309C788.035 182.426 787.922 181.605 787.695 180.848C787.477 180.09 787.141 179.43 786.688 178.867C786.234 178.312 785.664 177.879 784.977 177.566C784.297 177.246 783.5 177.086 782.586 177.086C781.859 177.086 781.148 177.234 780.453 177.531C779.766 177.828 779.152 178.254 778.613 178.809C778.066 179.371 777.629 180.059 777.301 180.871C776.973 181.676 776.809 182.59 776.809 183.613V184.105C776.809 184.988 776.957 185.805 777.254 186.555C777.551 187.305 777.965 187.953 778.496 188.5C779.027 189.047 779.664 189.473 780.406 189.777C781.156 190.082 781.977 190.234 782.867 190.234ZM782.586 178.867C783.141 178.867 783.617 178.969 784.016 179.172C784.422 179.375 784.758 179.641 785.023 179.969C785.289 180.297 785.496 180.688 785.645 181.141C785.793 181.586 785.867 182.004 785.867 182.395V182.5H779.047C779.133 181.914 779.281 181.398 779.492 180.953C779.711 180.5 779.977 180.117 780.289 179.805C780.602 179.5 780.953 179.27 781.344 179.113C781.734 178.949 782.148 178.867 782.586 178.867ZM814.52 186.637C814.52 186.84 814.48 187.031 814.402 187.211C814.324 187.391 814.211 187.555 814.062 187.703C813.82 187.945 813.484 188.137 813.055 188.277C812.625 188.41 812.121 188.477 811.543 188.477C811.176 188.477 810.805 188.438 810.43 188.359C810.055 188.281 809.715 188.148 809.41 187.961C809.098 187.773 808.836 187.527 808.625 187.223C808.422 186.918 808.305 186.543 808.273 186.098H806.105C806.105 186.637 806.227 187.156 806.469 187.656C806.719 188.156 807.078 188.594 807.547 188.969C808.008 189.352 808.574 189.66 809.246 189.895C809.918 190.121 810.684 190.234 811.543 190.234C812.293 190.234 812.984 190.145 813.617 189.965C814.25 189.785 814.793 189.531 815.246 189.203C815.699 188.875 816.051 188.48 816.301 188.02C816.559 187.559 816.688 187.047 816.688 186.484C816.688 185.961 816.574 185.5 816.348 185.102C816.129 184.703 815.809 184.352 815.387 184.047C814.965 183.75 814.445 183.496 813.828 183.285C813.211 183.066 812.512 182.875 811.73 182.711C811.137 182.594 810.645 182.473 810.254 182.348C809.871 182.223 809.566 182.082 809.34 181.926C809.105 181.77 808.941 181.594 808.848 181.398C808.754 181.203 808.707 180.98 808.707 180.73C808.707 180.488 808.766 180.254 808.883 180.027C809 179.801 809.176 179.602 809.41 179.43C809.637 179.258 809.922 179.121 810.266 179.02C810.617 178.918 811.023 178.867 811.484 178.867C811.93 178.867 812.328 178.93 812.68 179.055C813.039 179.18 813.344 179.344 813.594 179.547C813.844 179.75 814.039 179.984 814.18 180.25C814.32 180.508 814.391 180.773 814.391 181.047H816.559C816.559 180.492 816.438 179.977 816.195 179.5C815.961 179.016 815.625 178.594 815.188 178.234C814.75 177.875 814.219 177.594 813.594 177.391C812.969 177.188 812.266 177.086 811.484 177.086C810.758 177.086 810.09 177.184 809.48 177.379C808.879 177.574 808.359 177.84 807.922 178.176C807.484 178.512 807.145 178.906 806.902 179.359C806.66 179.805 806.539 180.285 806.539 180.801C806.539 181.324 806.656 181.785 806.891 182.184C807.125 182.574 807.457 182.914 807.887 183.203C808.309 183.5 808.816 183.754 809.41 183.965C810.012 184.176 810.676 184.355 811.402 184.504C811.996 184.621 812.492 184.754 812.891 184.902C813.289 185.043 813.609 185.199 813.852 185.371C814.094 185.543 814.266 185.734 814.367 185.945C814.469 186.148 814.52 186.379 814.52 186.637ZM826.109 190.234C827.344 190.234 828.379 189.988 829.215 189.496C830.059 188.996 830.691 188.426 831.113 187.785L829.789 186.754C829.391 187.27 828.891 187.684 828.289 187.996C827.688 188.309 827 188.465 826.227 188.465C825.641 188.465 825.105 188.355 824.621 188.137C824.137 187.918 823.723 187.617 823.379 187.234C823.043 186.875 822.777 186.461 822.582 185.992C822.395 185.523 822.273 184.98 822.219 184.363V184.281H831.277V183.309C831.277 182.426 831.164 181.605 830.938 180.848C830.719 180.09 830.383 179.43 829.93 178.867C829.477 178.312 828.906 177.879 828.219 177.566C827.539 177.246 826.742 177.086 825.828 177.086C825.102 177.086 824.391 177.234 823.695 177.531C823.008 177.828 822.395 178.254 821.855 178.809C821.309 179.371 820.871 180.059 820.543 180.871C820.215 181.676 820.051 182.59 820.051 183.613V184.105C820.051 184.988 820.199 185.805 820.496 186.555C820.793 187.305 821.207 187.953 821.738 188.5C822.27 189.047 822.906 189.473 823.648 189.777C824.398 190.082 825.219 190.234 826.109 190.234ZM825.828 178.867C826.383 178.867 826.859 178.969 827.258 179.172C827.664 179.375 828 179.641 828.266 179.969C828.531 180.297 828.738 180.688 828.887 181.141C829.035 181.586 829.109 182.004 829.109 182.395V182.5H822.289C822.375 181.914 822.523 181.398 822.734 180.953C822.953 180.5 823.219 180.117 823.531 179.805C823.844 179.5 824.195 179.27 824.586 179.113C824.977 178.949 825.391 178.867 825.828 178.867ZM843.23 177.086C842.309 177.086 841.484 177.289 840.758 177.695C840.039 178.094 839.422 178.641 838.906 179.336L838.895 179.02L838.801 177.32H836.738V190H838.918V181.867C839.059 181.477 839.234 181.125 839.445 180.812C839.664 180.492 839.918 180.223 840.207 180.004C840.527 179.754 840.902 179.566 841.332 179.441C841.762 179.309 842.242 179.242 842.773 179.242C843.188 179.242 843.582 179.266 843.957 179.312C844.34 179.352 844.742 179.418 845.164 179.512L845.457 177.391C845.238 177.297 844.91 177.223 844.473 177.168C844.043 177.113 843.629 177.086 843.23 177.086ZM853.66 190H855.312L860.48 177.32H858.266L854.715 186.883L854.504 187.668L854.305 186.883L850.672 177.32H848.445L853.66 190ZM869.352 190.234C870.586 190.234 871.621 189.988 872.457 189.496C873.301 188.996 873.934 188.426 874.355 187.785L873.031 186.754C872.633 187.27 872.133 187.684 871.531 187.996C870.93 188.309 870.242 188.465 869.469 188.465C868.883 188.465 868.348 188.355 867.863 188.137C867.379 187.918 866.965 187.617 866.621 187.234C866.285 186.875 866.02 186.461 865.824 185.992C865.637 185.523 865.516 184.98 865.461 184.363V184.281H874.52V183.309C874.52 182.426 874.406 181.605 874.18 180.848C873.961 180.09 873.625 179.43 873.172 178.867C872.719 178.312 872.148 177.879 871.461 177.566C870.781 177.246 869.984 177.086 869.07 177.086C868.344 177.086 867.633 177.234 866.938 177.531C866.25 177.828 865.637 178.254 865.098 178.809C864.551 179.371 864.113 180.059 863.785 180.871C863.457 181.676 863.293 182.59 863.293 183.613V184.105C863.293 184.988 863.441 185.805 863.738 186.555C864.035 187.305 864.449 187.953 864.98 188.5C865.512 189.047 866.148 189.473 866.891 189.777C867.641 190.082 868.461 190.234 869.352 190.234ZM869.07 178.867C869.625 178.867 870.102 178.969 870.5 179.172C870.906 179.375 871.242 179.641 871.508 179.969C871.773 180.297 871.98 180.688 872.129 181.141C872.277 181.586 872.352 182.004 872.352 182.395V182.5H865.531C865.617 181.914 865.766 181.398 865.977 180.953C866.195 180.5 866.461 180.117 866.773 179.805C867.086 179.5 867.438 179.27 867.828 179.113C868.219 178.949 868.633 178.867 869.07 178.867ZM886.473 177.086C885.551 177.086 884.727 177.289 884 177.695C883.281 178.094 882.664 178.641 882.148 179.336L882.137 179.02L882.043 177.32H879.98V190H882.16V181.867C882.301 181.477 882.477 181.125 882.688 180.812C882.906 180.492 883.16 180.223 883.449 180.004C883.77 179.754 884.145 179.566 884.574 179.441C885.004 179.309 885.484 179.242 886.016 179.242C886.43 179.242 886.824 179.266 887.199 179.312C887.582 179.352 887.984 179.418 888.406 179.512L888.699 177.391C888.48 177.297 888.152 177.223 887.715 177.168C887.285 177.113 886.871 177.086 886.473 177.086Z" fill="black"/>
<path d="M399.861 146.48C400.126 146.557 400.403 146.404 400.48 146.139L401.732 141.816C401.808 141.551 401.656 141.274 401.39 141.197C401.125 141.12 400.848 141.273 400.771 141.538L399.659 145.381L395.816 144.268C395.551 144.192 395.274 144.344 395.197 144.61C395.12 144.875 395.273 145.152 395.538 145.229L399.861 146.48ZM372.562 97.2413L399.562 146.241L400.438 145.759L373.438 96.7587L372.562 97.2413Z" fill="black"/>
<path d="M458.861 265.48C459.126 265.557 459.403 265.404 459.48 265.139L460.732 260.816C460.808 260.551 460.656 260.274 460.39 260.197C460.125 260.12 459.848 260.273 459.771 260.538L458.659 264.381L454.816 263.268C454.551 263.192 454.274 263.344 454.197 263.61C454.12 263.875 454.273 264.152 454.538 264.229L458.861 265.48ZM431.562 216.241L458.562 265.241L459.438 264.759L432.438 215.759L431.562 216.241Z" fill="black"/>
<path d="M491.861 346.48C492.126 346.557 492.403 346.404 492.48 346.139L493.732 341.816C493.808 341.551 493.656 341.274 493.39 341.197C493.125 341.12 492.848 341.273 492.771 341.538L491.659 345.381L487.816 344.268C487.551 344.192 487.274 344.344 487.197 344.61C487.12 344.875 487.273 345.152 487.538 345.229L491.861 346.48ZM464.562 297.241L491.562 346.241L492.438 345.759L465.438 296.759L464.562 297.241Z" fill="black"/>
<path d="M904.861 346.48C905.126 346.557 905.403 346.404 905.48 346.139L906.732 341.816C906.808 341.551 906.656 341.274 906.39 341.197C906.125 341.12 905.848 341.273 905.771 341.538L904.659 345.381L900.816 344.268C900.551 344.192 900.274 344.344 900.197 344.61C900.12 344.875 900.273 345.152 900.538 345.229L904.861 346.48ZM877.562 297.241L904.562 346.241L905.438 345.759L878.438 296.759L877.562 297.241Z" fill="black"/>
<path d="M794.861 346.48C795.126 346.557 795.403 346.404 795.48 346.139L796.732 341.816C796.808 341.551 796.656 341.274 796.39 341.197C796.125 341.12 795.848 341.273 795.771 341.538L794.659 345.381L790.816 344.268C790.551 344.192 790.274 344.344 790.197 344.61C790.12 344.875 790.273 345.152 790.538 345.229L794.861 346.48ZM767.562 297.241L794.562 346.241L795.438 345.759L768.438 296.759L767.562 297.241Z" fill="black"/>
<path d="M755.861 264.48C756.126 264.557 756.403 264.404 756.48 264.139L757.732 259.816C757.808 259.551 757.656 259.274 757.39 259.197C757.125 259.12 756.848 259.273 756.771 259.538L755.659 263.381L751.816 262.268C751.551 262.192 751.274 262.344 751.197 262.61C751.12 262.875 751.273 263.152 751.538 263.229L755.861 264.48ZM728.562 215.241L755.562 264.241L756.438 263.759L729.438 214.759L728.562 215.241Z" fill="black"/>
<path d="M866.861 263.48C867.126 263.557 867.403 263.404 867.48 263.139L868.732 258.816C868.808 258.551 868.656 258.274 868.39 258.197C868.125 258.12 867.848 258.273 867.771 258.538L866.659 262.381L862.816 261.268C862.551 261.192 862.274 261.344 862.197 261.61C862.12 261.875 862.273 262.152 862.538 262.229L866.861 263.48ZM839.562 214.241L866.562 263.241L867.438 262.759L840.438 213.759L839.562 214.241Z" fill="black"/>
<path d="M707.861 146.48C708.126 146.557 708.403 146.404 708.48 146.139L709.732 141.816C709.808 141.551 709.656 141.274 709.39 141.197C709.125 141.12 708.848 141.273 708.771 141.538L707.659 145.381L703.816 144.268C703.551 144.192 703.274 144.344 703.197 144.61C703.12 144.875 703.273 145.152 703.538 145.229L707.861 146.48ZM680.562 97.2413L707.562 146.241L708.438 145.759L681.438 96.7587L680.562 97.2413Z" fill="black"/>
<path d="M827.861 146.48C828.126 146.557 828.403 146.404 828.48 146.139L829.732 141.816C829.808 141.551 829.656 141.274 829.39 141.197C829.125 141.12 828.848 141.273 828.771 141.538L827.659 145.381L823.816 144.268C823.551 144.192 823.274 144.344 823.197 144.61C823.12 144.875 823.273 145.152 823.538 145.229L827.861 146.48ZM800.562 97.2413L827.562 146.241L828.438 145.759L801.438 96.7587L800.562 97.2413Z" fill="black"/>
<rect x="109" y="41" width="974" height="195" stroke="#ED6E29" stroke-width="8"/>
<path d="M115.395 28.5469C115.395 28.8516 115.332 29.1328 115.207 29.3906C115.082 29.6406 114.902 29.8555 114.668 30.0352C114.434 30.2148 114.145 30.3555 113.801 30.457C113.465 30.5586 113.078 30.6094 112.641 30.6094C112.148 30.6094 111.695 30.5547 111.281 30.4453C110.875 30.3359 110.527 30.1641 110.238 29.9297C109.941 29.6953 109.711 29.3945 109.547 29.0273C109.383 28.6602 109.293 28.2188 109.277 27.7031H106.043C106.043 28.5859 106.211 29.3555 106.547 30.0117C106.891 30.668 107.355 31.2383 107.941 31.7227C108.559 32.2148 109.281 32.5898 110.109 32.8477C110.945 33.0977 111.789 33.2227 112.641 33.2227C113.508 33.2227 114.309 33.1211 115.043 32.918C115.777 32.707 116.41 32.3984 116.941 31.9922C117.473 31.5938 117.887 31.1055 118.184 30.5273C118.488 29.9414 118.641 29.2734 118.641 28.5234C118.641 27.6563 118.441 26.8906 118.043 26.2266C117.645 25.5625 117.109 24.9805 116.438 24.4805C115.992 24.1758 115.504 23.9062 114.973 23.6719C114.441 23.4375 113.883 23.2383 113.297 23.0742C112.75 22.9258 112.258 22.7656 111.82 22.5938C111.391 22.4219 111.023 22.2305 110.719 22.0195C110.414 21.8164 110.18 21.5859 110.016 21.3281C109.859 21.0703 109.781 20.7812 109.781 20.4609C109.781 20.1562 109.84 19.875 109.957 19.6172C110.082 19.3516 110.262 19.1211 110.496 18.9258C110.73 18.7383 111.016 18.5938 111.352 18.4922C111.695 18.3828 112.086 18.3281 112.523 18.3281C113 18.3281 113.414 18.3945 113.766 18.5273C114.125 18.6523 114.426 18.8281 114.668 19.0547C114.902 19.2891 115.078 19.5664 115.195 19.8867C115.32 20.207 115.391 20.5586 115.406 20.9414H118.617C118.617 20.1758 118.469 19.4727 118.172 18.832C117.875 18.1914 117.461 17.6367 116.93 17.168C116.398 16.707 115.762 16.3477 115.02 16.0898C114.285 15.832 113.473 15.7031 112.582 15.7031C111.723 15.7031 110.926 15.8164 110.191 16.043C109.457 16.2617 108.82 16.5781 108.281 16.9922C107.742 17.4062 107.32 17.9062 107.016 18.4922C106.711 19.0781 106.559 19.7305 106.559 20.4492C106.559 21.0742 106.672 21.6523 106.898 22.1836C107.133 22.7148 107.477 23.1992 107.93 23.6367C108.383 24.0742 108.965 24.4766 109.676 24.8438C110.395 25.2109 111.227 25.5234 112.172 25.7812C112.781 25.9453 113.289 26.125 113.695 26.3203C114.109 26.5078 114.445 26.7148 114.703 26.9414C114.953 27.1758 115.129 27.4258 115.23 27.6914C115.34 27.957 115.395 28.2422 115.395 28.5469ZM127.043 17.2148H123.785V20.3203L120.891 20.3203V22.7227L123.785 22.7227V28.4883C123.785 29.3242 123.895 30.043 124.113 30.6445C124.332 31.2383 124.645 31.7266 125.051 32.1094C125.449 32.5 125.93 32.7891 126.492 32.9766C127.062 33.1562 127.695 33.2461 128.391 33.2461C128.75 33.2461 129.113 33.2266 129.48 33.1875C129.855 33.1562 130.215 33.1094 130.559 33.0469C130.902 32.9844 131.227 32.9062 131.531 32.8125C131.836 32.7109 132.102 32.5938 132.328 32.4609L132.012 30.2227C131.863 30.2617 131.684 30.3008 131.473 30.3398C131.27 30.3789 131.051 30.4141 130.816 30.4453C130.574 30.4844 130.32 30.5156 130.055 30.5391C129.797 30.5625 129.543 30.5742 129.293 30.5742C128.949 30.5742 128.637 30.5352 128.355 30.457C128.082 30.3789 127.848 30.2461 127.652 30.0586C127.457 29.8789 127.305 29.6367 127.195 29.332C127.094 29.0195 127.043 28.6328 127.043 28.1719V22.7227H131.777V20.3203H127.043V17.2148ZM143.402 33H146.707V32.8008C146.543 32.4805 146.418 32.0977 146.332 31.6523C146.246 31.207 146.203 30.6445 146.203 29.9648V24.5273C146.203 23.793 146.066 23.1484 145.793 22.5938C145.52 22.0313 145.141 21.5664 144.656 21.1992C144.172 20.832 143.598 20.5547 142.934 20.3672C142.277 20.1797 141.566 20.0859 140.801 20.0859C139.949 20.0859 139.191 20.1953 138.527 20.4141C137.871 20.625 137.316 20.9141 136.863 21.2813C136.402 21.6484 136.051 22.0742 135.809 22.5586C135.574 23.043 135.457 23.5547 135.457 24.0938L138.715 24.0938C138.715 23.8672 138.746 23.6602 138.809 23.4727C138.879 23.2852 138.984 23.125 139.125 22.9922C139.281 22.8438 139.484 22.7305 139.734 22.6523C139.984 22.5664 140.281 22.5234 140.625 22.5234C141.016 22.5234 141.355 22.5742 141.645 22.6758C141.941 22.7695 142.188 22.9063 142.383 23.0859C142.57 23.2578 142.711 23.4648 142.805 23.707C142.898 23.9414 142.945 24.207 142.945 24.5039V25.2539H141.129C140.191 25.2539 139.359 25.3398 138.633 25.5117C137.914 25.6758 137.309 25.918 136.816 26.2383C136.27 26.5898 135.859 27.0391 135.586 27.5859C135.312 28.125 135.176 28.7461 135.176 29.4492C135.176 29.9961 135.285 30.5039 135.504 30.9727C135.723 31.4336 136.027 31.832 136.418 32.168C136.809 32.5039 137.273 32.7656 137.812 32.9531C138.359 33.1406 138.957 33.2344 139.605 33.2344C140.004 33.2344 140.375 33.1953 140.719 33.1172C141.062 33.0469 141.379 32.9453 141.668 32.8125C141.949 32.6875 142.207 32.5391 142.441 32.3672C142.676 32.1953 142.883 32.0117 143.062 31.8164C143.102 32.043 143.148 32.2578 143.203 32.4609C143.258 32.6641 143.324 32.8438 143.402 33ZM140.297 30.7148C139.992 30.7148 139.723 30.6797 139.488 30.6094C139.262 30.5313 139.07 30.4297 138.914 30.3047C138.758 30.1719 138.637 30.0117 138.551 29.8242C138.473 29.6289 138.434 29.418 138.434 29.1914C138.434 28.9023 138.488 28.6367 138.598 28.3945C138.707 28.1445 138.875 27.9297 139.102 27.75C139.328 27.5781 139.621 27.4453 139.98 27.3516C140.34 27.25 140.773 27.1992 141.281 27.1992H142.945V29.3789C142.852 29.543 142.723 29.707 142.559 29.8711C142.395 30.0273 142.199 30.168 141.973 30.293C141.746 30.418 141.492 30.5195 141.211 30.5977C140.93 30.6758 140.625 30.7148 140.297 30.7148ZM155.871 17.2148H152.613V20.3203H149.719V22.7227H152.613V28.4883C152.613 29.3242 152.723 30.043 152.941 30.6445C153.16 31.2383 153.473 31.7266 153.879 32.1094C154.277 32.5 154.758 32.7891 155.32 32.9766C155.891 33.1563 156.523 33.2461 157.219 33.2461C157.578 33.2461 157.941 33.2266 158.309 33.1875C158.684 33.1563 159.043 33.1094 159.387 33.0469C159.73 32.9844 160.055 32.9063 160.359 32.8125C160.664 32.7109 160.93 32.5938 161.156 32.4609L160.84 30.2227C160.691 30.2617 160.512 30.3008 160.301 30.3398C160.098 30.3789 159.879 30.4141 159.645 30.4453C159.402 30.4844 159.148 30.5156 158.883 30.5391C158.625 30.5625 158.371 30.5742 158.121 30.5742C157.777 30.5742 157.465 30.5352 157.184 30.457C156.91 30.3789 156.676 30.2461 156.48 30.0586C156.285 29.8789 156.133 29.6367 156.023 29.332C155.922 29.0195 155.871 28.6328 155.871 28.1719V22.7227H160.605V20.3203H155.871V17.2148ZM170.461 33.2344C171.688 33.2344 172.75 32.9961 173.648 32.5195C174.547 32.043 175.203 31.5117 175.617 30.9258L173.988 29.168C173.613 29.6523 173.125 30.0156 172.523 30.2578C171.922 30.5 171.301 30.6211 170.66 30.6211C170.207 30.6211 169.789 30.5508 169.406 30.4102C169.023 30.2695 168.684 30.0703 168.387 29.8125C168.098 29.5625 167.867 29.2852 167.695 28.9805C167.523 28.668 167.383 28.2578 167.273 27.75V27.7148H175.875V26.332C175.875 25.4023 175.746 24.5547 175.488 23.7891C175.23 23.0156 174.855 22.3555 174.363 21.8086C173.863 21.2617 173.254 20.8398 172.535 20.543C171.824 20.2383 171.012 20.0859 170.098 20.0859C169.215 20.0859 168.398 20.2461 167.648 20.5664C166.898 20.8867 166.25 21.3359 165.703 21.9141C165.156 22.4922 164.73 23.1836 164.426 23.9883C164.121 24.7852 163.969 25.668 163.969 26.6367V27.1055C163.969 27.957 164.121 28.7578 164.426 29.5078C164.738 30.25 165.18 30.8945 165.75 31.4414C166.32 31.9961 167.004 32.4336 167.801 32.7539C168.598 33.0742 169.484 33.2344 170.461 33.2344ZM170.074 22.7227C170.488 22.7227 170.852 22.7891 171.164 22.9219C171.484 23.0469 171.754 23.2188 171.973 23.4375C172.191 23.6641 172.363 23.9297 172.488 24.2344C172.613 24.5391 172.676 24.8633 172.676 25.207V25.4648H167.332C167.41 25.0508 167.527 24.6758 167.684 24.3398C167.84 24.0039 168.035 23.7148 168.27 23.4727C168.496 23.2305 168.762 23.0469 169.066 22.9219C169.371 22.7891 169.707 22.7227 170.074 22.7227ZM181.875 33H185.145V22.7227H189.715V20.3203H185.145V19.6289C185.145 19.2539 185.191 18.918 185.285 18.6211C185.387 18.3242 185.539 18.0742 185.742 17.8711C185.969 17.6289 186.273 17.4453 186.656 17.3203C187.039 17.1953 187.504 17.1328 188.051 17.1328C188.559 17.1328 189 17.1563 189.375 17.2031C189.75 17.25 190.086 17.3047 190.383 17.3672L190.594 14.8125C190.328 14.7656 190.07 14.7227 189.82 14.6836C189.578 14.6445 189.336 14.6094 189.094 14.5781C188.852 14.5469 188.602 14.5234 188.344 14.5078C188.094 14.4844 187.832 14.4727 187.559 14.4727C186.691 14.4727 185.906 14.5859 185.203 14.8125C184.5 15.0313 183.902 15.3594 183.41 15.7969C182.918 16.2344 182.539 16.7734 182.273 17.4141C182.008 18.0547 181.875 18.793 181.875 19.6289V20.3203H178.547V22.7227H181.875V33ZM201.41 33H204.363V20.3203H201.094V29.2148C200.992 29.418 200.871 29.6016 200.73 29.7656C200.59 29.9297 200.43 30.0703 200.25 30.1875C200.039 30.3203 199.793 30.4219 199.512 30.4922C199.238 30.5625 198.93 30.5977 198.586 30.5977C198.203 30.5977 197.879 30.5508 197.613 30.457C197.348 30.3633 197.133 30.207 196.969 29.9883C196.805 29.7773 196.684 29.4961 196.605 29.1445C196.535 28.793 196.5 28.3594 196.5 27.8438V20.3203H193.242V27.8203C193.242 28.7813 193.348 29.6055 193.559 30.293C193.777 30.9727 194.082 31.5313 194.473 31.9688C194.863 32.4141 195.332 32.7383 195.879 32.9414C196.426 33.1445 197.027 33.2461 197.684 33.2461C198.402 33.2461 199.062 33.0664 199.664 32.707C200.273 32.3477 200.793 31.8516 201.223 31.2188L201.41 33ZM208.23 15V17.6602L212.027 17.6602V30.3516H208.23V33H218.953V30.3516H215.32V15H208.23ZM237.059 15V17.6602H240.855V30.3516H237.059V33H247.781V30.3516H244.148V15H237.059ZM250.348 26.543V26.7891C250.348 27.7188 250.48 28.5781 250.746 29.3672C251.012 30.1484 251.402 30.8281 251.918 31.4063C252.426 31.9844 253.051 32.4375 253.793 32.7656C254.543 33.0859 255.395 33.2461 256.348 33.2461C257.293 33.2461 258.137 33.0859 258.879 32.7656C259.621 32.4375 260.246 31.9844 260.754 31.4063C261.262 30.8281 261.648 30.1484 261.914 29.3672C262.18 28.5781 262.312 27.7188 262.312 26.7891V26.543C262.312 25.6211 262.18 24.7695 261.914 23.9883C261.648 23.1992 261.262 22.5156 260.754 21.9375C260.238 21.3594 259.609 20.9063 258.867 20.5781C258.125 20.25 257.277 20.0859 256.324 20.0859C255.371 20.0859 254.523 20.25 253.781 20.5781C253.047 20.9063 252.426 21.3594 251.918 21.9375C251.402 22.5156 251.012 23.1992 250.746 23.9883C250.48 24.7695 250.348 25.6211 250.348 26.543ZM253.605 26.7891V26.543C253.605 26.0273 253.656 25.5391 253.758 25.0781C253.859 24.6172 254.02 24.2109 254.238 23.8594C254.457 23.5078 254.738 23.2305 255.082 23.0273C255.426 22.8242 255.84 22.7227 256.324 22.7227C256.816 22.7227 257.234 22.8242 257.578 23.0273C257.922 23.2305 258.203 23.5078 258.422 23.8594C258.633 24.2109 258.789 24.6172 258.891 25.0781C258.992 25.5391 259.043 26.0273 259.043 26.543V26.7891C259.043 27.3203 258.992 27.8203 258.891 28.2891C258.789 28.75 258.633 29.1523 258.422 29.4961C258.203 29.8477 257.922 30.125 257.578 30.3281C257.234 30.5313 256.824 30.6328 256.348 30.6328C255.855 30.6328 255.434 30.5313 255.082 30.3281C254.738 30.125 254.457 29.8477 254.238 29.4961C254.02 29.1523 253.859 28.75 253.758 28.2891C253.656 27.8203 253.605 27.3203 253.605 26.7891ZM264.879 26.5664V26.8125C264.879 27.7344 264.996 28.5898 265.23 29.3789C265.473 30.1602 265.816 30.8359 266.262 31.4063C266.707 31.9766 267.242 32.4258 267.867 32.7539C268.5 33.0742 269.211 33.2344 270 33.2344C270.398 33.2344 270.77 33.1914 271.113 33.1055C271.465 33.0195 271.785 32.8984 272.074 32.7422C272.27 32.6328 272.453 32.5078 272.625 32.3672C272.797 32.2266 272.961 32.0703 273.117 31.8984V32.625C273.117 33.0547 273.055 33.4414 272.93 33.7852C272.812 34.1289 272.641 34.418 272.414 34.6523C272.164 34.9102 271.852 35.1055 271.477 35.2383C271.109 35.3711 270.688 35.4375 270.211 35.4375C269.914 35.4375 269.625 35.4063 269.344 35.3438C269.07 35.2891 268.805 35.2031 268.547 35.0859C268.281 34.9688 268.027 34.8164 267.785 34.6289C267.543 34.4492 267.316 34.2383 267.105 33.9961L265.641 35.9766C265.914 36.3281 266.242 36.6289 266.625 36.8789C267.008 37.1367 267.414 37.3477 267.844 37.5117C268.273 37.6758 268.707 37.7969 269.145 37.875C269.582 37.9531 269.992 37.9922 270.375 37.9922C271.266 37.9922 272.078 37.8711 272.812 37.6289C273.555 37.3945 274.191 37.0469 274.723 36.5859C275.246 36.125 275.652 35.5586 275.941 34.8867C276.238 34.2148 276.387 33.4492 276.387 32.5898V20.3203H273.422L273.293 21.5273C273.137 21.332 272.965 21.1563 272.777 21C272.59 20.8359 272.387 20.6953 272.168 20.5781C271.879 20.4141 271.555 20.293 271.195 20.2148C270.844 20.1289 270.453 20.0859 270.023 20.0859C269.227 20.0859 268.512 20.2422 267.879 20.5547C267.246 20.8672 266.707 21.3086 266.262 21.8789C265.816 22.4492 265.473 23.1328 265.23 23.9297C264.996 24.7266 264.879 25.6055 264.879 26.5664ZM268.148 26.8125V26.5664C268.148 26.0352 268.203 25.5391 268.312 25.0781C268.422 24.6094 268.59 24.1992 268.816 23.8477C269.035 23.5039 269.312 23.2344 269.648 23.0391C269.984 22.8359 270.383 22.7344 270.844 22.7344C271.094 22.7344 271.324 22.7578 271.535 22.8047C271.754 22.8516 271.953 22.918 272.133 23.0039C272.344 23.1055 272.531 23.2383 272.695 23.4023C272.859 23.5664 273 23.7578 273.117 23.9766V29.3438C273.008 29.5391 272.879 29.7148 272.73 29.8711C272.582 30.0273 272.41 30.1602 272.215 30.2695C272.027 30.3711 271.816 30.4492 271.582 30.5039C271.355 30.5586 271.102 30.5859 270.82 30.5859C270.359 30.5859 269.961 30.4883 269.625 30.293C269.289 30.0977 269.012 29.8281 268.793 29.4844C268.574 29.1484 268.41 28.7539 268.301 28.3008C268.199 27.8398 268.148 27.3438 268.148 26.8125ZM280.488 20.3203V22.9805H284.098V30.3516H280.488V33H290.824V30.3516H287.391V20.3203H280.488ZM283.863 17.0742C283.863 17.3242 283.906 17.5586 283.992 17.7773C284.086 17.9883 284.215 18.168 284.379 18.3164C284.543 18.4727 284.738 18.5938 284.965 18.6797C285.199 18.7656 285.457 18.8086 285.738 18.8086C286.316 18.8086 286.773 18.6484 287.109 18.3281C287.453 18 287.625 17.582 287.625 17.0742C287.625 16.5664 287.453 16.1523 287.109 15.832C286.773 15.5039 286.316 15.3398 285.738 15.3398C285.457 15.3398 285.199 15.3828 284.965 15.4688C284.738 15.5547 284.543 15.6719 284.379 15.8203C284.215 15.9766 284.086 16.1641 283.992 16.3828C283.906 16.5938 283.863 16.8242 283.863 17.0742ZM299.648 30.6328C299.125 30.6328 298.691 30.5273 298.348 30.3164C298.012 30.1055 297.746 29.8242 297.551 29.4727C297.348 29.1289 297.207 28.7305 297.129 28.2773C297.051 27.8164 297.012 27.3398 297.012 26.8477V26.4961C297.012 26.0117 297.051 25.543 297.129 25.0898C297.215 24.6367 297.359 24.2344 297.562 23.8828C297.758 23.5313 298.023 23.25 298.359 23.0391C298.695 22.8281 299.121 22.7227 299.637 22.7227C299.988 22.7227 300.312 22.7852 300.609 22.9102C300.906 23.0273 301.16 23.1875 301.371 23.3906C301.582 23.5938 301.742 23.8359 301.852 24.1172C301.961 24.3984 302.008 24.6953 301.992 25.0078H305.062C305.078 24.2578 304.953 23.582 304.688 22.9805C304.422 22.3711 304.051 21.8516 303.574 21.4219C303.09 21 302.516 20.6719 301.852 20.4375C301.188 20.2031 300.465 20.0859 299.684 20.0859C298.707 20.0859 297.848 20.2539 297.105 20.5898C296.371 20.9258 295.754 21.3828 295.254 21.9609C294.754 22.5391 294.379 23.2188 294.129 24C293.879 24.7734 293.754 25.6055 293.754 26.4961V26.8477C293.754 27.7383 293.879 28.5742 294.129 29.3555C294.387 30.1289 294.766 30.8047 295.266 31.3828C295.758 31.9609 296.375 32.418 297.117 32.7539C297.859 33.082 298.723 33.2461 299.707 33.2461C300.434 33.2461 301.121 33.1328 301.77 32.9063C302.426 32.6719 303 32.3516 303.492 31.9453C303.984 31.5391 304.371 31.0547 304.652 30.4922C304.941 29.9297 305.078 29.3203 305.062 28.6641H301.992C302.008 28.9609 301.953 29.2305 301.828 29.4727C301.711 29.7148 301.543 29.9219 301.324 30.0938C301.105 30.2656 300.852 30.3984 300.562 30.4922C300.273 30.5859 299.969 30.6328 299.648 30.6328Z" fill="#ED6E29"/>
<defs>
<linearGradient id="paint0_linear" x1="1073" y1="70" x2="223" y2="70" gradientUnits="userSpaceOnUse">
<stop stop-color="#6E7D2E"/>
<stop offset="1" stop-color="#93B942"/>
</linearGradient>
<linearGradient id="paint1_linear" x1="1074" y1="269" x2="224" y2="269" gradientUnits="userSpaceOnUse">
<stop stop-color="#583F83"/>
<stop offset="1" stop-color="#AC62C6"/>
</linearGradient>
<linearGradient id="paint2_linear" x1="646" y1="352" x2="646" y2="410" gradientUnits="userSpaceOnUse">
<stop stop-color="white" stop-opacity="0.37"/>
<stop offset="1" stop-color="white" stop-opacity="0"/>
</linearGradient>
<linearGradient id="paint3_linear" x1="646" y1="352" x2="646" y2="410" gradientUnits="userSpaceOnUse">
<stop stop-color="white" stop-opacity="0"/>
<stop offset="1" stop-color="#4A4646" stop-opacity="0.13"/>
</linearGradient>
<linearGradient id="paint4_linear" x1="646" y1="152" x2="646" y2="210" gradientUnits="userSpaceOnUse">
<stop stop-color="white" stop-opacity="0.37"/>
<stop offset="1" stop-color="white" stop-opacity="0"/>
</linearGradient>
<linearGradient id="paint5_linear" x1="646" y1="152" x2="646" y2="210" gradientUnits="userSpaceOnUse">
<stop stop-color="white" stop-opacity="0"/>
<stop offset="1" stop-color="#4A4646" stop-opacity="0.13"/>
</linearGradient>
</defs>
</svg>
