<svg viewBox="0 0 300 200" fill="none" xmlns="http://www.w3.org/2000/svg">
<rect width="300" height="200" fill="#F0F0F3"/>
<g filter="url(#filter0_dd)">
<rect x="15" y="23" width="83" height="99" rx="5" fill="#F0F0F3"/>
</g>
<g filter="url(#filter1_ii)">
<rect x="17" y="35" width="64" height="10" rx="4" fill="#EEEEEE"/>
</g>
<g filter="url(#filter2_dd)">
<rect x="83" y="35" width="13" height="9" rx="4" fill="#F0F0F3"/>
</g>
<g filter="url(#filter3_ii)">
<rect x="17" y="27.7724" width="5.54478" height="5.54478" rx="2.77239" transform="rotate(-30 17 27.7724)" fill="#FB7575"/>
</g>
<g filter="url(#filter4_ii)">
<rect x="24.2128" y="27.7724" width="5.54478" height="5.54478" rx="2.77239" transform="rotate(-30 24.2128 27.7724)" fill="#F2994A"/>
</g>
<g filter="url(#filter5_ii)">
<rect x="31.4257" y="27.7724" width="5.54478" height="5.54478" rx="2.77239" transform="rotate(-30 31.4257 27.7724)" fill="#27AE60"/>
</g>
<mask id="mask0" mask-type="alpha" maskUnits="userSpaceOnUse" x="16" y="91" width="80" height="31">
<rect x="16" y="91" width="80" height="31" fill="url(#paint0_linear)"/>
</mask>
<g mask="url(#mask0)">
<g filter="url(#filter6_ii)">
<rect x="16.7692" y="95" width="78.4615" height="25" rx="4" fill="#EEEEEE"/>
</g>
</g>
<path d="M39.994 109C39.95 109 39.914 108.988 39.886 108.964C39.858 108.936 39.844 108.9 39.844 108.856V104.95C39.844 104.906 39.858 104.87 39.886 104.842C39.914 104.814 39.95 104.8 39.994 104.8H40.468C40.552 104.8 40.612 104.838 40.648 104.914L41.806 107.074L42.976 104.914C43.016 104.838 43.076 104.8 43.156 104.8H43.624C43.668 104.8 43.704 104.814 43.732 104.842C43.76 104.87 43.774 104.906 43.774 104.95V108.856C43.774 108.9 43.76 108.936 43.732 108.964C43.704 108.988 43.668 109 43.624 109H43.12C43.08 109 43.046 108.986 43.018 108.958C42.99 108.93 42.976 108.896 42.976 108.856V106.258L42.136 107.86C42.084 107.948 42.016 107.992 41.932 107.992H41.686C41.602 107.992 41.534 107.948 41.482 107.86L40.642 106.258V108.856C40.642 108.896 40.628 108.93 40.6 108.958C40.576 108.986 40.542 109 40.498 109H39.994ZM45.5413 109.06C45.3373 109.06 45.1493 109.02 44.9773 108.94C44.8093 108.856 44.6753 108.744 44.5753 108.604C44.4793 108.464 44.4313 108.31 44.4313 108.142C44.4313 107.87 44.5413 107.65 44.7613 107.482C44.9813 107.314 45.2833 107.2 45.6673 107.14L46.4893 107.02V106.894C46.4893 106.718 46.4453 106.586 46.3573 106.498C46.2693 106.41 46.1273 106.366 45.9313 106.366C45.7993 106.366 45.6913 106.392 45.6073 106.444C45.5273 106.492 45.4633 106.54 45.4153 106.588C45.3673 106.64 45.3353 106.674 45.3193 106.69C45.3033 106.738 45.2733 106.762 45.2293 106.762H44.7673C44.7313 106.762 44.6993 106.75 44.6713 106.726C44.6473 106.702 44.6353 106.67 44.6353 106.63C44.6393 106.53 44.6873 106.416 44.7793 106.288C44.8753 106.16 45.0213 106.05 45.2173 105.958C45.4133 105.866 45.6533 105.82 45.9373 105.82C46.4093 105.82 46.7533 105.926 46.9693 106.138C47.1853 106.35 47.2933 106.628 47.2933 106.972V108.856C47.2933 108.896 47.2793 108.93 47.2513 108.958C47.2273 108.986 47.1933 109 47.1493 109H46.6633C46.6233 109 46.5893 108.986 46.5613 108.958C46.5333 108.93 46.5193 108.896 46.5193 108.856V108.622C46.4313 108.75 46.3053 108.856 46.1413 108.94C45.9813 109.02 45.7813 109.06 45.5413 109.06ZM45.7453 108.49C45.9653 108.49 46.1453 108.418 46.2853 108.274C46.4253 108.13 46.4953 107.92 46.4953 107.644V107.518L45.8953 107.614C45.6633 107.65 45.4873 107.708 45.3673 107.788C45.2513 107.868 45.1933 107.966 45.1933 108.082C45.1933 108.21 45.2473 108.31 45.3553 108.382C45.4633 108.454 45.5933 108.49 45.7453 108.49ZM48.183 105.364C48.143 105.364 48.109 105.35 48.081 105.322C48.053 105.294 48.039 105.26 48.039 105.22V104.788C48.039 104.748 48.053 104.714 48.081 104.686C48.109 104.658 48.143 104.644 48.183 104.644H48.729C48.769 104.644 48.803 104.658 48.831 104.686C48.863 104.714 48.879 104.748 48.879 104.788V105.22C48.879 105.26 48.865 105.294 48.837 105.322C48.809 105.35 48.773 105.364 48.729 105.364H48.183ZM48.207 109C48.167 109 48.133 108.986 48.105 108.958C48.077 108.93 48.063 108.896 48.063 108.856V106.024C48.063 105.984 48.077 105.95 48.105 105.922C48.133 105.894 48.167 105.88 48.207 105.88H48.705C48.749 105.88 48.783 105.894 48.807 105.922C48.835 105.946 48.849 105.98 48.849 106.024V108.856C48.849 108.896 48.835 108.93 48.807 108.958C48.783 108.986 48.749 109 48.705 109H48.207ZM49.789 109C49.749 109 49.715 108.986 49.687 108.958C49.659 108.93 49.645 108.896 49.645 108.856V106.024C49.645 105.984 49.659 105.95 49.687 105.922C49.715 105.894 49.749 105.88 49.789 105.88H50.281C50.321 105.88 50.355 105.894 50.383 105.922C50.411 105.95 50.425 105.984 50.425 106.024V106.27C50.661 105.97 50.995 105.82 51.427 105.82C51.795 105.82 52.087 105.942 52.303 106.186C52.519 106.426 52.627 106.754 52.627 107.17V108.856C52.627 108.896 52.613 108.93 52.585 108.958C52.561 108.986 52.527 109 52.483 109H51.955C51.915 109 51.881 108.986 51.853 108.958C51.825 108.93 51.811 108.896 51.811 108.856V107.206C51.811 106.97 51.753 106.788 51.637 106.66C51.525 106.528 51.361 106.462 51.145 106.462C50.933 106.462 50.765 106.528 50.641 106.66C50.521 106.792 50.461 106.974 50.461 107.206V108.856C50.461 108.896 50.447 108.93 50.419 108.958C50.395 108.986 50.361 109 50.317 109H49.789ZM56.0531 109C55.6891 109 55.4151 108.906 55.2311 108.718C55.0511 108.526 54.9611 108.246 54.9611 107.878V106.516H54.4871C54.4471 106.516 54.4131 106.502 54.3851 106.474C54.3571 106.442 54.3431 106.406 54.3431 106.366V106.024C54.3431 105.984 54.3571 105.95 54.3851 105.922C54.4131 105.894 54.4471 105.88 54.4871 105.88H54.9611V104.884C54.9611 104.84 54.9751 104.806 55.0031 104.782C55.0311 104.754 55.0651 104.74 55.1051 104.74H55.5911C55.6351 104.74 55.6691 104.754 55.6931 104.782C55.7211 104.806 55.7351 104.84 55.7351 104.884V105.88H56.4851C56.5291 105.88 56.5631 105.894 56.5871 105.922C56.6151 105.946 56.6291 105.98 56.6291 106.024V106.366C56.6291 106.41 56.6151 106.446 56.5871 106.474C56.5591 106.502 56.5251 106.516 56.4851 106.516H55.7351V107.818C55.7351 107.99 55.7651 108.12 55.8251 108.208C55.8851 108.296 55.9851 108.34 56.1251 108.34H56.5391C56.5791 108.34 56.6131 108.354 56.6411 108.382C56.6691 108.41 56.6831 108.444 56.6831 108.484V108.856C56.6831 108.896 56.6691 108.93 56.6411 108.958C56.6171 108.986 56.5831 109 56.5391 109H56.0531ZM57.3653 109C57.3253 109 57.2913 108.986 57.2633 108.958C57.2353 108.93 57.2213 108.896 57.2213 108.856V104.884C57.2213 104.84 57.2353 104.806 57.2633 104.782C57.2913 104.754 57.3253 104.74 57.3653 104.74H57.8993C57.9433 104.74 57.9773 104.754 58.0013 104.782C58.0293 104.806 58.0433 104.84 58.0433 104.884V106.252C58.2833 105.964 58.6073 105.82 59.0153 105.82C59.3833 105.82 59.6773 105.942 59.8973 106.186C60.1173 106.426 60.2273 106.754 60.2273 107.17V108.856C60.2273 108.896 60.2133 108.93 60.1853 108.958C60.1613 108.986 60.1273 109 60.0833 109H59.5433C59.5033 109 59.4693 108.986 59.4413 108.958C59.4133 108.93 59.3993 108.896 59.3993 108.856V107.206C59.3993 106.97 59.3413 106.788 59.2253 106.66C59.1133 106.528 58.9493 106.462 58.7333 106.462C58.5213 106.462 58.3533 106.528 58.2293 106.66C58.1053 106.792 58.0433 106.974 58.0433 107.206V108.856C58.0433 108.896 58.0293 108.93 58.0013 108.958C57.9773 108.986 57.9433 109 57.8993 109H57.3653ZM61.1328 109C61.0928 109 61.0588 108.986 61.0308 108.958C61.0028 108.93 60.9888 108.896 60.9888 108.856V106.03C60.9888 105.99 61.0028 105.956 61.0308 105.928C61.0588 105.896 61.0928 105.88 61.1328 105.88H61.6188C61.6628 105.88 61.6988 105.894 61.7268 105.922C61.7548 105.95 61.7688 105.986 61.7688 106.03V106.276C61.8648 106.148 61.9848 106.05 62.1288 105.982C62.2768 105.914 62.4448 105.88 62.6328 105.88H62.8788C62.9228 105.88 62.9568 105.894 62.9808 105.922C63.0088 105.946 63.0228 105.98 63.0228 106.024V106.456C63.0228 106.496 63.0088 106.53 62.9808 106.558C62.9568 106.586 62.9228 106.6 62.8788 106.6H62.4108C62.2228 106.6 62.0748 106.654 61.9668 106.762C61.8588 106.87 61.8048 107.018 61.8048 107.206V108.856C61.8048 108.896 61.7908 108.93 61.7628 108.958C61.7348 108.986 61.6988 109 61.6548 109H61.1328ZM64.7937 109.06C64.3497 109.06 63.9957 108.932 63.7317 108.676C63.4717 108.416 63.3337 108.052 63.3177 107.584L63.3117 107.434L63.3177 107.284C63.3377 106.828 63.4777 106.47 63.7377 106.21C64.0017 105.95 64.3537 105.82 64.7937 105.82C65.2657 105.82 65.6297 105.964 65.8857 106.252C66.1457 106.54 66.2757 106.924 66.2757 107.404V107.53C66.2757 107.57 66.2617 107.604 66.2337 107.632C66.2057 107.66 66.1697 107.674 66.1257 107.674H64.1337V107.722C64.1417 107.942 64.2017 108.128 64.3137 108.28C64.4297 108.428 64.5877 108.502 64.7877 108.502C65.0237 108.502 65.2137 108.41 65.3577 108.226C65.3937 108.182 65.4217 108.154 65.4417 108.142C65.4657 108.13 65.4997 108.124 65.5437 108.124H66.0597C66.0957 108.124 66.1257 108.136 66.1497 108.16C66.1777 108.18 66.1917 108.206 66.1917 108.238C66.1917 108.334 66.1337 108.448 66.0177 108.58C65.9057 108.708 65.7437 108.82 65.5317 108.916C65.3197 109.012 65.0737 109.06 64.7937 109.06ZM65.4597 107.17V107.152C65.4597 106.916 65.3997 106.726 65.2797 106.582C65.1637 106.438 65.0017 106.366 64.7937 106.366C64.5857 106.366 64.4237 106.438 64.3077 106.582C64.1917 106.726 64.1337 106.916 64.1337 107.152V107.17H65.4597ZM67.8186 109.06C67.6146 109.06 67.4266 109.02 67.2546 108.94C67.0866 108.856 66.9526 108.744 66.8526 108.604C66.7566 108.464 66.7086 108.31 66.7086 108.142C66.7086 107.87 66.8186 107.65 67.0386 107.482C67.2586 107.314 67.5606 107.2 67.9446 107.14L68.7666 107.02V106.894C68.7666 106.718 68.7226 106.586 68.6346 106.498C68.5466 106.41 68.4046 106.366 68.2086 106.366C68.0766 106.366 67.9686 106.392 67.8846 106.444C67.8046 106.492 67.7406 106.54 67.6926 106.588C67.6446 106.64 67.6126 106.674 67.5966 106.69C67.5806 106.738 67.5506 106.762 67.5066 106.762H67.0446C67.0086 106.762 66.9766 106.75 66.9486 106.726C66.9246 106.702 66.9126 106.67 66.9126 106.63C66.9166 106.53 66.9646 106.416 67.0566 106.288C67.1526 106.16 67.2986 106.05 67.4946 105.958C67.6906 105.866 67.9306 105.82 68.2146 105.82C68.6866 105.82 69.0306 105.926 69.2466 106.138C69.4626 106.35 69.5706 106.628 69.5706 106.972V108.856C69.5706 108.896 69.5566 108.93 69.5286 108.958C69.5046 108.986 69.4706 109 69.4266 109H68.9406C68.9006 109 68.8666 108.986 68.8386 108.958C68.8106 108.93 68.7966 108.896 68.7966 108.856V108.622C68.7086 108.75 68.5826 108.856 68.4186 108.94C68.2586 109.02 68.0586 109.06 67.8186 109.06ZM68.0226 108.49C68.2426 108.49 68.4226 108.418 68.5626 108.274C68.7026 108.13 68.7726 107.92 68.7726 107.644V107.518L68.1726 107.614C67.9406 107.65 67.7646 107.708 67.6446 107.788C67.5286 107.868 67.4706 107.966 67.4706 108.082C67.4706 108.21 67.5246 108.31 67.6326 108.382C67.7406 108.454 67.8706 108.49 68.0226 108.49ZM71.4983 109.06C71.0943 109.06 70.7843 108.93 70.5683 108.67C70.3523 108.41 70.2363 108.064 70.2203 107.632L70.2143 107.434L70.2203 107.242C70.2323 106.822 70.3463 106.48 70.5623 106.216C70.7823 105.952 71.0943 105.82 71.4983 105.82C71.8863 105.82 72.1943 105.952 72.4223 106.216V104.884C72.4223 104.84 72.4363 104.806 72.4643 104.782C72.4923 104.754 72.5263 104.74 72.5663 104.74H73.0763C73.1203 104.74 73.1543 104.754 73.1783 104.782C73.2063 104.806 73.2203 104.84 73.2203 104.884V108.856C73.2203 108.896 73.2063 108.93 73.1783 108.958C73.1543 108.986 73.1203 109 73.0763 109H72.6023C72.5623 109 72.5283 108.986 72.5003 108.958C72.4723 108.93 72.4583 108.896 72.4583 108.856V108.634C72.2303 108.918 71.9103 109.06 71.4983 109.06ZM71.7203 108.418C71.9523 108.418 72.1243 108.344 72.2363 108.196C72.3483 108.048 72.4103 107.866 72.4223 107.65C72.4263 107.602 72.4283 107.524 72.4283 107.416C72.4283 107.312 72.4263 107.236 72.4223 107.188C72.4143 106.988 72.3503 106.818 72.2303 106.678C72.1143 106.534 71.9443 106.462 71.7203 106.462C71.2883 106.462 71.0583 106.728 71.0303 107.26L71.0243 107.44L71.0303 107.62C71.0583 108.152 71.2883 108.418 71.7203 108.418Z" fill="#745FF2"/>
<g filter="url(#filter7_dd)">
<rect x="132" y="91" width="66" height="35" rx="5" fill="#F0F0F3"/>
</g>
<g filter="url(#filter8_ii)">
<rect x="134" y="93" width="62" height="31" rx="4" fill="#EEEEEE"/>
</g>
<path d="M145.934 110.06C145.578 110.06 145.272 110.006 145.016 109.898C144.76 109.79 144.566 109.648 144.434 109.472C144.302 109.296 144.232 109.106 144.224 108.902C144.224 108.866 144.236 108.836 144.26 108.812C144.284 108.788 144.314 108.776 144.35 108.776H144.884C144.932 108.776 144.968 108.786 144.992 108.806C145.02 108.822 145.046 108.85 145.07 108.89C145.11 109.026 145.202 109.14 145.346 109.232C145.49 109.324 145.686 109.37 145.934 109.37C146.218 109.37 146.432 109.324 146.576 109.232C146.72 109.136 146.792 109.004 146.792 108.836C146.792 108.724 146.754 108.632 146.678 108.56C146.606 108.488 146.496 108.426 146.348 108.374C146.204 108.322 145.988 108.258 145.7 108.182C145.228 108.07 144.882 107.922 144.662 107.738C144.446 107.55 144.338 107.284 144.338 106.94C144.338 106.708 144.4 106.502 144.524 106.322C144.652 106.142 144.834 106 145.07 105.896C145.31 105.792 145.588 105.74 145.904 105.74C146.232 105.74 146.516 105.798 146.756 105.914C146.996 106.03 147.178 106.176 147.302 106.352C147.43 106.524 147.498 106.696 147.506 106.868C147.506 106.904 147.494 106.934 147.47 106.958C147.446 106.982 147.416 106.994 147.38 106.994H146.822C146.738 106.994 146.68 106.956 146.648 106.88C146.624 106.752 146.544 106.646 146.408 106.562C146.272 106.474 146.104 106.43 145.904 106.43C145.68 106.43 145.504 106.472 145.376 106.556C145.248 106.64 145.184 106.762 145.184 106.922C145.184 107.034 145.216 107.126 145.28 107.198C145.344 107.27 145.444 107.334 145.58 107.39C145.72 107.446 145.92 107.508 146.18 107.576C146.532 107.656 146.812 107.746 147.02 107.846C147.232 107.946 147.388 108.072 147.488 108.224C147.588 108.376 147.638 108.57 147.638 108.806C147.638 109.062 147.566 109.286 147.422 109.478C147.282 109.666 147.082 109.81 146.822 109.91C146.566 110.01 146.27 110.06 145.934 110.06ZM149.597 110.06C149.153 110.06 148.799 109.932 148.535 109.676C148.275 109.416 148.137 109.052 148.121 108.584L148.115 108.434L148.121 108.284C148.141 107.828 148.281 107.47 148.541 107.21C148.805 106.95 149.157 106.82 149.597 106.82C150.069 106.82 150.433 106.964 150.689 107.252C150.949 107.54 151.079 107.924 151.079 108.404V108.53C151.079 108.57 151.065 108.604 151.037 108.632C151.009 108.66 150.973 108.674 150.929 108.674H148.937V108.722C148.945 108.942 149.005 109.128 149.117 109.28C149.233 109.428 149.391 109.502 149.591 109.502C149.827 109.502 150.017 109.41 150.161 109.226C150.197 109.182 150.225 109.154 150.245 109.142C150.269 109.13 150.303 109.124 150.347 109.124H150.863C150.899 109.124 150.929 109.136 150.953 109.16C150.981 109.18 150.995 109.206 150.995 109.238C150.995 109.334 150.937 109.448 150.821 109.58C150.709 109.708 150.547 109.82 150.335 109.916C150.123 110.012 149.877 110.06 149.597 110.06ZM150.263 108.17V108.152C150.263 107.916 150.203 107.726 150.083 107.582C149.967 107.438 149.805 107.366 149.597 107.366C149.389 107.366 149.227 107.438 149.111 107.582C148.995 107.726 148.937 107.916 148.937 108.152V108.17H150.263ZM151.86 110C151.82 110 151.786 109.986 151.758 109.958C151.73 109.93 151.716 109.896 151.716 109.856V107.03C151.716 106.99 151.73 106.956 151.758 106.928C151.786 106.896 151.82 106.88 151.86 106.88H152.346C152.39 106.88 152.426 106.894 152.454 106.922C152.482 106.95 152.496 106.986 152.496 107.03V107.276C152.592 107.148 152.712 107.05 152.856 106.982C153.004 106.914 153.172 106.88 153.36 106.88H153.606C153.65 106.88 153.684 106.894 153.708 106.922C153.736 106.946 153.75 106.98 153.75 107.024V107.456C153.75 107.496 153.736 107.53 153.708 107.558C153.684 107.586 153.65 107.6 153.606 107.6H153.138C152.95 107.6 152.802 107.654 152.694 107.762C152.586 107.87 152.532 108.018 152.532 108.206V109.856C152.532 109.896 152.518 109.93 152.49 109.958C152.462 109.986 152.426 110 152.382 110H151.86ZM155.322 110C155.262 110 155.216 109.988 155.184 109.964C155.152 109.936 155.126 109.898 155.106 109.85L153.984 107.066L153.972 107.012C153.972 106.976 153.984 106.946 154.008 106.922C154.036 106.894 154.068 106.88 154.104 106.88H154.59C154.666 106.88 154.718 106.918 154.746 106.994L155.544 109.1L156.342 106.994C156.354 106.966 156.372 106.94 156.396 106.916C156.424 106.892 156.458 106.88 156.498 106.88H156.99C157.022 106.88 157.05 106.894 157.074 106.922C157.102 106.946 157.116 106.976 157.116 107.012C157.116 107.036 157.114 107.054 157.11 107.066L155.982 109.85C155.962 109.898 155.936 109.936 155.904 109.964C155.872 109.988 155.826 110 155.766 110H155.322ZM157.784 106.364C157.744 106.364 157.71 106.35 157.682 106.322C157.654 106.294 157.64 106.26 157.64 106.22V105.788C157.64 105.748 157.654 105.714 157.682 105.686C157.71 105.658 157.744 105.644 157.784 105.644H158.33C158.37 105.644 158.404 105.658 158.432 105.686C158.464 105.714 158.48 105.748 158.48 105.788V106.22C158.48 106.26 158.466 106.294 158.438 106.322C158.41 106.35 158.374 106.364 158.33 106.364H157.784ZM157.808 110C157.768 110 157.734 109.986 157.706 109.958C157.678 109.93 157.664 109.896 157.664 109.856V107.024C157.664 106.984 157.678 106.95 157.706 106.922C157.734 106.894 157.768 106.88 157.808 106.88H158.306C158.35 106.88 158.384 106.894 158.408 106.922C158.436 106.946 158.45 106.98 158.45 107.024V109.856C158.45 109.896 158.436 109.93 158.408 109.958C158.384 109.986 158.35 110 158.306 110H157.808ZM160.596 110.06C160.156 110.06 159.804 109.938 159.54 109.694C159.28 109.45 159.142 109.112 159.126 108.68L159.12 108.44L159.126 108.2C159.142 107.768 159.28 107.43 159.54 107.186C159.804 106.942 160.156 106.82 160.596 106.82C160.908 106.82 161.172 106.876 161.388 106.988C161.608 107.1 161.77 107.238 161.874 107.402C161.982 107.562 162.04 107.714 162.048 107.858C162.052 107.898 162.038 107.932 162.006 107.96C161.978 107.988 161.944 108.002 161.904 108.002H161.376C161.336 108.002 161.304 107.994 161.28 107.978C161.26 107.958 161.24 107.926 161.22 107.882C161.16 107.726 161.08 107.614 160.98 107.546C160.884 107.478 160.76 107.444 160.608 107.444C160.404 107.444 160.244 107.51 160.128 107.642C160.012 107.77 159.95 107.966 159.942 108.23L159.936 108.452L159.942 108.65C159.958 109.174 160.18 109.436 160.608 109.436C160.764 109.436 160.89 109.402 160.986 109.334C161.082 109.266 161.16 109.154 161.22 108.998C161.24 108.954 161.26 108.924 161.28 108.908C161.304 108.888 161.336 108.878 161.376 108.878H161.904C161.944 108.878 161.978 108.892 162.006 108.92C162.038 108.948 162.052 108.982 162.048 109.022C162.04 109.162 161.984 109.312 161.88 109.472C161.776 109.632 161.616 109.77 161.4 109.886C161.184 110.002 160.916 110.06 160.596 110.06ZM164.017 110.06C163.573 110.06 163.219 109.932 162.955 109.676C162.695 109.416 162.557 109.052 162.541 108.584L162.535 108.434L162.541 108.284C162.561 107.828 162.701 107.47 162.961 107.21C163.225 106.95 163.577 106.82 164.017 106.82C164.489 106.82 164.853 106.964 165.109 107.252C165.369 107.54 165.499 107.924 165.499 108.404V108.53C165.499 108.57 165.485 108.604 165.457 108.632C165.429 108.66 165.393 108.674 165.349 108.674H163.357V108.722C163.365 108.942 163.425 109.128 163.537 109.28C163.653 109.428 163.811 109.502 164.011 109.502C164.247 109.502 164.437 109.41 164.581 109.226C164.617 109.182 164.645 109.154 164.665 109.142C164.689 109.13 164.723 109.124 164.767 109.124H165.283C165.319 109.124 165.349 109.136 165.373 109.16C165.401 109.18 165.415 109.206 165.415 109.238C165.415 109.334 165.357 109.448 165.241 109.58C165.129 109.708 164.967 109.82 164.755 109.916C164.543 110.012 164.297 110.06 164.017 110.06ZM164.683 108.17V108.152C164.683 107.916 164.623 107.726 164.503 107.582C164.387 107.438 164.225 107.366 164.017 107.366C163.809 107.366 163.647 107.438 163.531 107.582C163.415 107.726 163.357 107.916 163.357 108.152V108.17H164.683ZM168.199 110C168.139 110 168.091 109.984 168.055 109.952C168.019 109.92 167.997 109.876 167.989 109.82L167.275 105.974L167.269 105.926C167.269 105.89 167.281 105.86 167.305 105.836C167.333 105.812 167.363 105.8 167.395 105.8H167.923C168.023 105.8 168.079 105.84 168.091 105.92L168.589 108.638L169.129 106.88C169.169 106.78 169.235 106.73 169.327 106.73H169.651C169.751 106.73 169.815 106.78 169.843 106.88L170.389 108.632L170.887 105.92C170.895 105.876 170.911 105.846 170.935 105.83C170.963 105.81 171.003 105.8 171.055 105.8H171.583C171.615 105.8 171.643 105.812 171.667 105.836C171.691 105.86 171.703 105.89 171.703 105.926C171.703 105.946 171.701 105.962 171.697 105.974L170.983 109.82C170.963 109.94 170.893 110 170.773 110H170.371C170.315 110 170.269 109.986 170.233 109.958C170.197 109.93 170.173 109.894 170.161 109.85L169.489 107.846L168.817 109.85C168.777 109.95 168.705 110 168.601 110H168.199ZM173.598 110.06C173.13 110.06 172.768 109.94 172.512 109.7C172.256 109.456 172.118 109.124 172.098 108.704L172.092 108.44L172.098 108.176C172.118 107.76 172.258 107.43 172.518 107.186C172.778 106.942 173.138 106.82 173.598 106.82C174.058 106.82 174.418 106.942 174.678 107.186C174.938 107.43 175.078 107.76 175.098 108.176C175.102 108.224 175.104 108.312 175.104 108.44C175.104 108.568 175.102 108.656 175.098 108.704C175.078 109.124 174.94 109.456 174.684 109.7C174.428 109.94 174.066 110.06 173.598 110.06ZM173.598 109.466C173.81 109.466 173.974 109.4 174.09 109.268C174.206 109.132 174.27 108.934 174.282 108.674C174.286 108.634 174.288 108.556 174.288 108.44C174.288 108.324 174.286 108.246 174.282 108.206C174.27 107.946 174.206 107.75 174.09 107.618C173.974 107.482 173.81 107.414 173.598 107.414C173.386 107.414 173.222 107.482 173.106 107.618C172.99 107.75 172.926 107.946 172.914 108.206L172.908 108.44L172.914 108.674C172.926 108.934 172.99 109.132 173.106 109.268C173.222 109.4 173.386 109.466 173.598 109.466ZM175.913 110C175.873 110 175.839 109.986 175.811 109.958C175.783 109.93 175.769 109.896 175.769 109.856V107.03C175.769 106.99 175.783 106.956 175.811 106.928C175.839 106.896 175.873 106.88 175.913 106.88H176.399C176.443 106.88 176.479 106.894 176.507 106.922C176.535 106.95 176.549 106.986 176.549 107.03V107.276C176.645 107.148 176.765 107.05 176.909 106.982C177.057 106.914 177.225 106.88 177.413 106.88H177.659C177.703 106.88 177.737 106.894 177.761 106.922C177.789 106.946 177.803 106.98 177.803 107.024V107.456C177.803 107.496 177.789 107.53 177.761 107.558C177.737 107.586 177.703 107.6 177.659 107.6H177.191C177.003 107.6 176.855 107.654 176.747 107.762C176.639 107.87 176.585 108.018 176.585 108.206V109.856C176.585 109.896 176.571 109.93 176.543 109.958C176.515 109.986 176.479 110 176.435 110H175.913ZM178.421 110C178.381 110 178.347 109.986 178.319 109.958C178.291 109.93 178.277 109.896 178.277 109.856V105.884C178.277 105.84 178.291 105.806 178.319 105.782C178.347 105.754 178.381 105.74 178.421 105.74H178.907C178.951 105.74 178.985 105.754 179.009 105.782C179.037 105.806 179.051 105.84 179.051 105.884V107.936L180.059 106.982C180.071 106.974 180.091 106.958 180.119 106.934C180.143 106.914 180.167 106.9 180.191 106.892C180.215 106.884 180.245 106.88 180.281 106.88H180.839C180.879 106.88 180.911 106.892 180.935 106.916C180.959 106.94 180.971 106.972 180.971 107.012C180.971 107.048 180.951 107.084 180.911 107.12L179.675 108.278L181.061 109.766C181.101 109.806 181.121 109.84 181.121 109.868C181.121 109.908 181.107 109.94 181.079 109.964C181.055 109.988 181.025 110 180.989 110H180.419C180.363 110 180.321 109.994 180.293 109.982C180.269 109.966 180.237 109.938 180.197 109.898L179.051 108.692V109.856C179.051 109.896 179.037 109.93 179.009 109.958C178.985 109.986 178.951 110 178.907 110H178.421ZM182.767 110.06C182.323 110.06 181.969 109.932 181.705 109.676C181.445 109.416 181.307 109.052 181.291 108.584L181.285 108.434L181.291 108.284C181.311 107.828 181.451 107.47 181.711 107.21C181.975 106.95 182.327 106.82 182.767 106.82C183.239 106.82 183.603 106.964 183.859 107.252C184.119 107.54 184.249 107.924 184.249 108.404V108.53C184.249 108.57 184.235 108.604 184.207 108.632C184.179 108.66 184.143 108.674 184.099 108.674H182.107V108.722C182.115 108.942 182.175 109.128 182.287 109.28C182.403 109.428 182.561 109.502 182.761 109.502C182.997 109.502 183.187 109.41 183.331 109.226C183.367 109.182 183.395 109.154 183.415 109.142C183.439 109.13 183.473 109.124 183.517 109.124H184.033C184.069 109.124 184.099 109.136 184.123 109.16C184.151 109.18 184.165 109.206 184.165 109.238C184.165 109.334 184.107 109.448 183.991 109.58C183.879 109.708 183.717 109.82 183.505 109.916C183.293 110.012 183.047 110.06 182.767 110.06ZM183.433 108.17V108.152C183.433 107.916 183.373 107.726 183.253 107.582C183.137 107.438 182.975 107.366 182.767 107.366C182.559 107.366 182.397 107.438 182.281 107.582C182.165 107.726 182.107 107.916 182.107 108.152V108.17H183.433ZM185.03 110C184.99 110 184.956 109.986 184.928 109.958C184.9 109.93 184.886 109.896 184.886 109.856V107.03C184.886 106.99 184.9 106.956 184.928 106.928C184.956 106.896 184.99 106.88 185.03 106.88H185.516C185.56 106.88 185.596 106.894 185.624 106.922C185.652 106.95 185.666 106.986 185.666 107.03V107.276C185.762 107.148 185.882 107.05 186.026 106.982C186.174 106.914 186.342 106.88 186.53 106.88H186.776C186.82 106.88 186.854 106.894 186.878 106.922C186.906 106.946 186.92 106.98 186.92 107.024V107.456C186.92 107.496 186.906 107.53 186.878 107.558C186.854 107.586 186.82 107.6 186.776 107.6H186.308C186.12 107.6 185.972 107.654 185.864 107.762C185.756 107.87 185.702 108.018 185.702 108.206V109.856C185.702 109.896 185.688 109.93 185.66 109.958C185.632 109.986 185.596 110 185.552 110H185.03Z" fill="#745FF2"/>
<g style="mix-blend-mode:color" filter="url(#filter9_d)">
<rect x="132" y="91" width="66" height="35" rx="5" fill="#745FF2"/>
</g>
<mask id="mask1" mask-type="alpha" maskUnits="userSpaceOnUse" x="225" y="0" width="75" height="200">
<rect x="225" width="75" height="200" fill="#C4C4C4"/>
</mask>
<g mask="url(#mask1)">
<g filter="url(#filter10_ii)">
<rect x="237" y="-18" width="83" height="237" rx="4" fill="#EEEEEE"/>
</g>
<path d="M250.886 108C250.846 108 250.812 107.986 250.784 107.958C250.756 107.93 250.742 107.896 250.742 107.856V103.95C250.742 103.906 250.754 103.87 250.778 103.842C250.806 103.814 250.842 103.8 250.886 103.8H251.348C251.396 103.8 251.432 103.81 251.456 103.83C251.48 103.846 251.502 103.868 251.522 103.896L253.25 106.584V103.95C253.25 103.906 253.262 103.87 253.286 103.842C253.314 103.814 253.35 103.8 253.394 103.8H253.898C253.942 103.8 253.978 103.814 254.006 103.842C254.034 103.87 254.048 103.906 254.048 103.95V107.85C254.048 107.894 254.034 107.93 254.006 107.958C253.978 107.986 253.944 108 253.904 108H253.436C253.368 108 253.31 107.968 253.262 107.904L251.54 105.276V107.856C251.54 107.9 251.526 107.936 251.498 107.964C251.47 107.988 251.434 108 251.39 108H250.886ZM256.257 108.06C255.813 108.06 255.459 107.932 255.195 107.676C254.935 107.416 254.797 107.052 254.781 106.584L254.775 106.434L254.781 106.284C254.801 105.828 254.941 105.47 255.201 105.21C255.465 104.95 255.817 104.82 256.257 104.82C256.729 104.82 257.093 104.964 257.349 105.252C257.609 105.54 257.739 105.924 257.739 106.404V106.53C257.739 106.57 257.725 106.604 257.697 106.632C257.669 106.66 257.633 106.674 257.589 106.674H255.597V106.722C255.605 106.942 255.665 107.128 255.777 107.28C255.893 107.428 256.051 107.502 256.251 107.502C256.487 107.502 256.677 107.41 256.821 107.226C256.857 107.182 256.885 107.154 256.905 107.142C256.929 107.13 256.963 107.124 257.007 107.124H257.523C257.559 107.124 257.589 107.136 257.613 107.16C257.641 107.18 257.655 107.206 257.655 107.238C257.655 107.334 257.597 107.448 257.481 107.58C257.369 107.708 257.207 107.82 256.995 107.916C256.783 108.012 256.537 108.06 256.257 108.06ZM256.923 106.17V106.152C256.923 105.916 256.863 105.726 256.743 105.582C256.627 105.438 256.465 105.366 256.257 105.366C256.049 105.366 255.887 105.438 255.771 105.582C255.655 105.726 255.597 105.916 255.597 106.152V106.17H256.923ZM259.774 108C259.41 108 259.136 107.906 258.952 107.718C258.772 107.526 258.682 107.246 258.682 106.878V105.516H258.208C258.168 105.516 258.134 105.502 258.106 105.474C258.078 105.442 258.064 105.406 258.064 105.366V105.024C258.064 104.984 258.078 104.95 258.106 104.922C258.134 104.894 258.168 104.88 258.208 104.88H258.682V103.884C258.682 103.84 258.696 103.806 258.724 103.782C258.752 103.754 258.786 103.74 258.826 103.74H259.312C259.356 103.74 259.39 103.754 259.414 103.782C259.442 103.806 259.456 103.84 259.456 103.884V104.88H260.206C260.25 104.88 260.284 104.894 260.308 104.922C260.336 104.946 260.35 104.98 260.35 105.024V105.366C260.35 105.41 260.336 105.446 260.308 105.474C260.28 105.502 260.246 105.516 260.206 105.516H259.456V106.818C259.456 106.99 259.486 107.12 259.546 107.208C259.606 107.296 259.706 107.34 259.846 107.34H260.26C260.3 107.34 260.334 107.354 260.362 107.382C260.39 107.41 260.404 107.444 260.404 107.484V107.856C260.404 107.896 260.39 107.93 260.362 107.958C260.338 107.986 260.304 108 260.26 108H259.774ZM261.788 108C261.736 108 261.694 107.988 261.662 107.964C261.634 107.936 261.61 107.898 261.59 107.85L260.732 105.066C260.728 105.054 260.726 105.036 260.726 105.012C260.726 104.976 260.738 104.946 260.762 104.922C260.79 104.894 260.82 104.88 260.852 104.88H261.296C261.34 104.88 261.376 104.892 261.404 104.916C261.432 104.94 261.45 104.966 261.458 104.994L262.046 106.98L262.67 105.012C262.682 104.976 262.702 104.946 262.73 104.922C262.762 104.894 262.802 104.88 262.85 104.88H263.15C263.198 104.88 263.236 104.894 263.264 104.922C263.296 104.946 263.318 104.976 263.33 105.012L263.954 106.98L264.542 104.994C264.546 104.966 264.562 104.94 264.59 104.916C264.622 104.892 264.658 104.88 264.698 104.88H265.142C265.178 104.88 265.208 104.894 265.232 104.922C265.26 104.946 265.274 104.976 265.274 105.012L265.262 105.066L264.404 107.85C264.388 107.898 264.364 107.936 264.332 107.964C264.304 107.988 264.264 108 264.212 108H263.822C263.718 108 263.652 107.95 263.624 107.85L263 105.954L262.376 107.85C262.344 107.95 262.276 108 262.172 108H261.788ZM267.15 108.06C266.682 108.06 266.32 107.94 266.064 107.7C265.808 107.456 265.67 107.124 265.65 106.704L265.644 106.44L265.65 106.176C265.67 105.76 265.81 105.43 266.07 105.186C266.33 104.942 266.69 104.82 267.15 104.82C267.61 104.82 267.97 104.942 268.23 105.186C268.49 105.43 268.63 105.76 268.65 106.176C268.654 106.224 268.656 106.312 268.656 106.44C268.656 106.568 268.654 106.656 268.65 106.704C268.63 107.124 268.492 107.456 268.236 107.7C267.98 107.94 267.618 108.06 267.15 108.06ZM267.15 107.466C267.362 107.466 267.526 107.4 267.642 107.268C267.758 107.132 267.822 106.934 267.834 106.674C267.838 106.634 267.84 106.556 267.84 106.44C267.84 106.324 267.838 106.246 267.834 106.206C267.822 105.946 267.758 105.75 267.642 105.618C267.526 105.482 267.362 105.414 267.15 105.414C266.938 105.414 266.774 105.482 266.658 105.618C266.542 105.75 266.478 105.946 266.466 106.206L266.46 106.44L266.466 106.674C266.478 106.934 266.542 107.132 266.658 107.268C266.774 107.4 266.938 107.466 267.15 107.466ZM269.465 108C269.425 108 269.391 107.986 269.363 107.958C269.335 107.93 269.321 107.896 269.321 107.856V105.03C269.321 104.99 269.335 104.956 269.363 104.928C269.391 104.896 269.425 104.88 269.465 104.88H269.951C269.995 104.88 270.031 104.894 270.059 104.922C270.087 104.95 270.101 104.986 270.101 105.03V105.276C270.197 105.148 270.317 105.05 270.461 104.982C270.609 104.914 270.777 104.88 270.965 104.88H271.211C271.255 104.88 271.289 104.894 271.313 104.922C271.341 104.946 271.355 104.98 271.355 105.024V105.456C271.355 105.496 271.341 105.53 271.313 105.558C271.289 105.586 271.255 105.6 271.211 105.6H270.743C270.555 105.6 270.407 105.654 270.299 105.762C270.191 105.87 270.137 106.018 270.137 106.206V107.856C270.137 107.896 270.123 107.93 270.095 107.958C270.067 107.986 270.031 108 269.987 108H269.465ZM271.973 108C271.933 108 271.899 107.986 271.871 107.958C271.843 107.93 271.829 107.896 271.829 107.856V103.884C271.829 103.84 271.843 103.806 271.871 103.782C271.899 103.754 271.933 103.74 271.973 103.74H272.459C272.503 103.74 272.537 103.754 272.561 103.782C272.589 103.806 272.603 103.84 272.603 103.884V105.936L273.611 104.982C273.623 104.974 273.643 104.958 273.671 104.934C273.695 104.914 273.719 104.9 273.743 104.892C273.767 104.884 273.797 104.88 273.833 104.88H274.391C274.431 104.88 274.463 104.892 274.487 104.916C274.511 104.94 274.523 104.972 274.523 105.012C274.523 105.048 274.503 105.084 274.463 105.12L273.227 106.278L274.613 107.766C274.653 107.806 274.673 107.84 274.673 107.868C274.673 107.908 274.659 107.94 274.631 107.964C274.607 107.988 274.577 108 274.541 108H273.971C273.915 108 273.873 107.994 273.845 107.982C273.821 107.966 273.789 107.938 273.749 107.898L272.603 106.692V107.856C272.603 107.896 272.589 107.93 272.561 107.958C272.537 107.986 272.503 108 272.459 108H271.973Z" fill="#745FF2"/>
</g>
<g filter="url(#filter11_ii)">
<rect x="138" y="163" width="54" height="26" rx="4" fill="#EEEEEE"/>
</g>
<path d="M157.491 178.06C156.939 178.06 156.511 177.918 156.207 177.634C155.907 177.35 155.747 176.95 155.727 176.434C155.723 176.326 155.721 176.15 155.721 175.906C155.721 175.658 155.723 175.478 155.727 175.366C155.747 174.854 155.909 174.456 156.213 174.172C156.521 173.884 156.947 173.74 157.491 173.74C157.847 173.74 158.157 173.802 158.421 173.926C158.685 174.046 158.889 174.212 159.033 174.424C159.177 174.632 159.253 174.868 159.261 175.132V175.144C159.261 175.176 159.247 175.204 159.219 175.228C159.195 175.248 159.167 175.258 159.135 175.258H158.565C158.517 175.258 158.481 175.248 158.457 175.228C158.433 175.208 158.413 175.17 158.397 175.114C158.333 174.862 158.227 174.686 158.079 174.586C157.931 174.482 157.733 174.43 157.485 174.43C156.909 174.43 156.609 174.752 156.585 175.396C156.581 175.504 156.579 175.67 156.579 175.894C156.579 176.118 156.581 176.288 156.585 176.404C156.609 177.048 156.909 177.37 157.485 177.37C157.733 177.37 157.931 177.318 158.079 177.214C158.231 177.11 158.337 176.934 158.397 176.686C158.409 176.63 158.427 176.592 158.451 176.572C158.479 176.552 158.517 176.542 158.565 176.542H159.135C159.171 176.542 159.201 176.554 159.225 176.578C159.253 176.602 159.265 176.632 159.261 176.668C159.253 176.932 159.177 177.17 159.033 177.382C158.889 177.59 158.685 177.756 158.421 177.88C158.157 178 157.847 178.06 157.491 178.06ZM160.807 178.06C160.603 178.06 160.415 178.02 160.243 177.94C160.075 177.856 159.941 177.744 159.841 177.604C159.745 177.464 159.697 177.31 159.697 177.142C159.697 176.87 159.807 176.65 160.027 176.482C160.247 176.314 160.549 176.2 160.933 176.14L161.755 176.02V175.894C161.755 175.718 161.711 175.586 161.623 175.498C161.535 175.41 161.393 175.366 161.197 175.366C161.065 175.366 160.957 175.392 160.873 175.444C160.793 175.492 160.729 175.54 160.681 175.588C160.633 175.64 160.601 175.674 160.585 175.69C160.569 175.738 160.539 175.762 160.495 175.762H160.033C159.997 175.762 159.965 175.75 159.937 175.726C159.913 175.702 159.901 175.67 159.901 175.63C159.905 175.53 159.953 175.416 160.045 175.288C160.141 175.16 160.287 175.05 160.483 174.958C160.679 174.866 160.919 174.82 161.203 174.82C161.675 174.82 162.019 174.926 162.235 175.138C162.451 175.35 162.559 175.628 162.559 175.972V177.856C162.559 177.896 162.545 177.93 162.517 177.958C162.493 177.986 162.459 178 162.415 178H161.929C161.889 178 161.855 177.986 161.827 177.958C161.799 177.93 161.785 177.896 161.785 177.856V177.622C161.697 177.75 161.571 177.856 161.407 177.94C161.247 178.02 161.047 178.06 160.807 178.06ZM161.011 177.49C161.231 177.49 161.411 177.418 161.551 177.274C161.691 177.13 161.761 176.92 161.761 176.644V176.518L161.161 176.614C160.929 176.65 160.753 176.708 160.633 176.788C160.517 176.868 160.459 176.966 160.459 177.082C160.459 177.21 160.513 177.31 160.621 177.382C160.729 177.454 160.859 177.49 161.011 177.49ZM164.679 178.06C164.239 178.06 163.887 177.938 163.623 177.694C163.363 177.45 163.225 177.112 163.209 176.68L163.203 176.44L163.209 176.2C163.225 175.768 163.363 175.43 163.623 175.186C163.887 174.942 164.239 174.82 164.679 174.82C164.991 174.82 165.255 174.876 165.471 174.988C165.691 175.1 165.853 175.238 165.957 175.402C166.065 175.562 166.123 175.714 166.131 175.858C166.135 175.898 166.121 175.932 166.089 175.96C166.061 175.988 166.027 176.002 165.987 176.002H165.459C165.419 176.002 165.387 175.994 165.363 175.978C165.343 175.958 165.323 175.926 165.303 175.882C165.243 175.726 165.163 175.614 165.063 175.546C164.967 175.478 164.843 175.444 164.691 175.444C164.487 175.444 164.327 175.51 164.211 175.642C164.095 175.77 164.033 175.966 164.025 176.23L164.019 176.452L164.025 176.65C164.041 177.174 164.263 177.436 164.691 177.436C164.847 177.436 164.973 177.402 165.069 177.334C165.165 177.266 165.243 177.154 165.303 176.998C165.323 176.954 165.343 176.924 165.363 176.908C165.387 176.888 165.419 176.878 165.459 176.878H165.987C166.027 176.878 166.061 176.892 166.089 176.92C166.121 176.948 166.135 176.982 166.131 177.022C166.123 177.162 166.067 177.312 165.963 177.472C165.859 177.632 165.699 177.77 165.483 177.886C165.267 178.002 164.999 178.06 164.679 178.06ZM166.906 178C166.866 178 166.832 177.986 166.804 177.958C166.776 177.93 166.762 177.896 166.762 177.856V173.884C166.762 173.84 166.776 173.806 166.804 173.782C166.832 173.754 166.866 173.74 166.906 173.74H167.44C167.484 173.74 167.518 173.754 167.542 173.782C167.57 173.806 167.584 173.84 167.584 173.884V175.252C167.824 174.964 168.148 174.82 168.556 174.82C168.924 174.82 169.218 174.942 169.438 175.186C169.658 175.426 169.768 175.754 169.768 176.17V177.856C169.768 177.896 169.754 177.93 169.726 177.958C169.702 177.986 169.668 178 169.624 178H169.084C169.044 178 169.01 177.986 168.982 177.958C168.954 177.93 168.94 177.896 168.94 177.856V176.206C168.94 175.97 168.882 175.788 168.766 175.66C168.654 175.528 168.49 175.462 168.274 175.462C168.062 175.462 167.894 175.528 167.77 175.66C167.646 175.792 167.584 175.974 167.584 176.206V177.856C167.584 177.896 167.57 177.93 167.542 177.958C167.518 177.986 167.484 178 167.44 178H166.906ZM171.874 178.06C171.43 178.06 171.076 177.932 170.812 177.676C170.552 177.416 170.414 177.052 170.398 176.584L170.392 176.434L170.398 176.284C170.418 175.828 170.558 175.47 170.818 175.21C171.082 174.95 171.434 174.82 171.874 174.82C172.346 174.82 172.71 174.964 172.966 175.252C173.226 175.54 173.356 175.924 173.356 176.404V176.53C173.356 176.57 173.342 176.604 173.314 176.632C173.286 176.66 173.25 176.674 173.206 176.674H171.214V176.722C171.222 176.942 171.282 177.128 171.394 177.28C171.51 177.428 171.668 177.502 171.868 177.502C172.104 177.502 172.294 177.41 172.438 177.226C172.474 177.182 172.502 177.154 172.522 177.142C172.546 177.13 172.58 177.124 172.624 177.124H173.14C173.176 177.124 173.206 177.136 173.23 177.16C173.258 177.18 173.272 177.206 173.272 177.238C173.272 177.334 173.214 177.448 173.098 177.58C172.986 177.708 172.824 177.82 172.612 177.916C172.4 178.012 172.154 178.06 171.874 178.06ZM172.54 176.17V176.152C172.54 175.916 172.48 175.726 172.36 175.582C172.244 175.438 172.082 175.366 171.874 175.366C171.666 175.366 171.504 175.438 171.388 175.582C171.272 175.726 171.214 175.916 171.214 176.152V176.17H172.54Z" fill="#745FF2"/>
<path d="M103 107H128" stroke="#745FF2"/>
<path d="M105 105L103 107L105 109" stroke="#745FF2"/>
<path d="M126 105L128 107L126 109" stroke="#745FF2"/>
<path d="M205 107H230" stroke="#745FF2"/>
<path d="M207 105L205 107L207 109" stroke="#745FF2"/>
<path d="M228 105L230 107L228 109" stroke="#745FF2"/>
<path d="M165 157V132" stroke="#745FF2"/>
<path d="M163 155L165 157L167 155" stroke="#745FF2"/>
<path d="M163 134L165 132L167 134" stroke="#745FF2"/>
<defs>
<filter id="filter0_dd" x="11" y="19" width="91.5" height="107.5" filterUnits="userSpaceOnUse" color-interpolation-filters="sRGB">
<feFlood flood-opacity="0" result="BackgroundImageFix"/>
<feColorMatrix in="SourceAlpha" type="matrix" values="0 0 0 0 0 0 0 0 0 0 0 0 0 0 0 0 0 0 127 0"/>
<feOffset dx="1.5" dy="1.5"/>
<feGaussianBlur stdDeviation="1.5"/>
<feColorMatrix type="matrix" values="0 0 0 0 0.682353 0 0 0 0 0.682353 0 0 0 0 0.752941 0 0 0 0.4 0"/>
<feBlend mode="normal" in2="BackgroundImageFix" result="effect1_dropShadow"/>
<feColorMatrix in="SourceAlpha" type="matrix" values="0 0 0 0 0 0 0 0 0 0 0 0 0 0 0 0 0 0 127 0"/>
<feOffset dx="-1" dy="-1"/>
<feGaussianBlur stdDeviation="1.5"/>
<feColorMatrix type="matrix" values="0 0 0 0 1 0 0 0 0 1 0 0 0 0 1 0 0 0 1 0"/>
<feBlend mode="normal" in2="effect1_dropShadow" result="effect2_dropShadow"/>
<feBlend mode="normal" in="SourceGraphic" in2="effect2_dropShadow" result="shape"/>
</filter>
<filter id="filter1_ii" x="16" y="34" width="66" height="12" filterUnits="userSpaceOnUse" color-interpolation-filters="sRGB">
<feFlood flood-opacity="0" result="BackgroundImageFix"/>
<feBlend mode="normal" in="SourceGraphic" in2="BackgroundImageFix" result="shape"/>
<feColorMatrix in="SourceAlpha" type="matrix" values="0 0 0 0 0 0 0 0 0 0 0 0 0 0 0 0 0 0 127 0" result="hardAlpha"/>
<feOffset dx="1" dy="1"/>
<feGaussianBlur stdDeviation="1"/>
<feComposite in2="hardAlpha" operator="arithmetic" k2="-1" k3="1"/>
<feColorMatrix type="matrix" values="0 0 0 0 0.682353 0 0 0 0 0.682353 0 0 0 0 0.752941 0 0 0 0.2 0"/>
<feBlend mode="normal" in2="shape" result="effect1_innerShadow"/>
<feColorMatrix in="SourceAlpha" type="matrix" values="0 0 0 0 0 0 0 0 0 0 0 0 0 0 0 0 0 0 127 0" result="hardAlpha"/>
<feOffset dx="-1" dy="-1"/>
<feGaussianBlur stdDeviation="0.5"/>
<feComposite in2="hardAlpha" operator="arithmetic" k2="-1" k3="1"/>
<feColorMatrix type="matrix" values="0 0 0 0 1 0 0 0 0 1 0 0 0 0 1 0 0 0 0.7 0"/>
<feBlend mode="normal" in2="effect1_innerShadow" result="effect2_innerShadow"/>
</filter>
<filter id="filter2_dd" x="79" y="31" width="21.5" height="17.5" filterUnits="userSpaceOnUse" color-interpolation-filters="sRGB">
<feFlood flood-opacity="0" result="BackgroundImageFix"/>
<feColorMatrix in="SourceAlpha" type="matrix" values="0 0 0 0 0 0 0 0 0 0 0 0 0 0 0 0 0 0 127 0"/>
<feOffset dx="1.5" dy="1.5"/>
<feGaussianBlur stdDeviation="1.5"/>
<feColorMatrix type="matrix" values="0 0 0 0 0.682353 0 0 0 0 0.682353 0 0 0 0 0.752941 0 0 0 0.27 0"/>
<feBlend mode="normal" in2="BackgroundImageFix" result="effect1_dropShadow"/>
<feColorMatrix in="SourceAlpha" type="matrix" values="0 0 0 0 0 0 0 0 0 0 0 0 0 0 0 0 0 0 127 0"/>
<feOffset dx="-1" dy="-1"/>
<feGaussianBlur stdDeviation="1.5"/>
<feColorMatrix type="matrix" values="0 0 0 0 1 0 0 0 0 1 0 0 0 0 1 0 0 0 0.89 0"/>
<feBlend mode="normal" in2="effect1_dropShadow" result="effect2_dropShadow"/>
<feBlend mode="normal" in="SourceGraphic" in2="effect2_dropShadow" result="shape"/>
</filter>
<filter id="filter3_ii" x="17.5143" y="25.5143" width="7.04571" height="7.04571" filterUnits="userSpaceOnUse" color-interpolation-filters="sRGB">
<feFlood flood-opacity="0" result="BackgroundImageFix"/>
<feBlend mode="normal" in="SourceGraphic" in2="BackgroundImageFix" result="shape"/>
<feColorMatrix in="SourceAlpha" type="matrix" values="0 0 0 0 0 0 0 0 0 0 0 0 0 0 0 0 0 0 127 0" result="hardAlpha"/>
<feOffset dx="1" dy="1"/>
<feGaussianBlur stdDeviation="0.5"/>
<feComposite in2="hardAlpha" operator="arithmetic" k2="-1" k3="1"/>
<feColorMatrix type="matrix" values="0 0 0 0 0.829167 0 0 0 0 0.449132 0 0 0 0 0.449132 0 0 0 1 0"/>
<feBlend mode="normal" in2="shape" result="effect1_innerShadow"/>
<feColorMatrix in="SourceAlpha" type="matrix" values="0 0 0 0 0 0 0 0 0 0 0 0 0 0 0 0 0 0 127 0" result="hardAlpha"/>
<feOffset dx="-0.5" dy="-0.5"/>
<feGaussianBlur stdDeviation="0.5"/>
<feComposite in2="hardAlpha" operator="arithmetic" k2="-1" k3="1"/>
<feColorMatrix type="matrix" values="0 0 0 0 1 0 0 0 0 0.720833 0 0 0 0 0.720833 0 0 0 1 0"/>
<feBlend mode="normal" in2="effect1_innerShadow" result="effect2_innerShadow"/>
</filter>
<filter id="filter4_ii" x="24.7271" y="25.5143" width="6.54571" height="6.54571" filterUnits="userSpaceOnUse" color-interpolation-filters="sRGB">
<feFlood flood-opacity="0" result="BackgroundImageFix"/>
<feBlend mode="normal" in="SourceGraphic" in2="BackgroundImageFix" result="shape"/>
<feColorMatrix in="SourceAlpha" type="matrix" values="0 0 0 0 0 0 0 0 0 0 0 0 0 0 0 0 0 0 127 0" result="hardAlpha"/>
<feOffset dx="0.5" dy="0.5"/>
<feGaussianBlur stdDeviation="0.5"/>
<feComposite in2="hardAlpha" operator="arithmetic" k2="-1" k3="1"/>
<feColorMatrix type="matrix" values="0 0 0 0 0.8125 0 0 0 0 0.516578 0 0 0 0 0.253906 0 0 0 1 0"/>
<feBlend mode="normal" in2="shape" result="effect1_innerShadow"/>
<feColorMatrix in="SourceAlpha" type="matrix" values="0 0 0 0 0 0 0 0 0 0 0 0 0 0 0 0 0 0 127 0" result="hardAlpha"/>
<feOffset dx="-0.5" dy="-0.5"/>
<feGaussianBlur stdDeviation="0.5"/>
<feComposite in2="hardAlpha" operator="arithmetic" k2="-1" k3="1"/>
<feColorMatrix type="matrix" values="0 0 0 0 0.983333 0 0 0 0 0.77496 0 0 0 0 0.59 0 0 0 1 0"/>
<feBlend mode="normal" in2="effect1_innerShadow" result="effect2_innerShadow"/>
</filter>
<filter id="filter5_ii" x="31.94" y="25.5143" width="6.54571" height="6.54571" filterUnits="userSpaceOnUse" color-interpolation-filters="sRGB">
<feFlood flood-opacity="0" result="BackgroundImageFix"/>
<feBlend mode="normal" in="SourceGraphic" in2="BackgroundImageFix" result="shape"/>
<feColorMatrix in="SourceAlpha" type="matrix" values="0 0 0 0 0 0 0 0 0 0 0 0 0 0 0 0 0 0 127 0" result="hardAlpha"/>
<feOffset dx="0.5" dy="0.5"/>
<feGaussianBlur stdDeviation="0.5"/>
<feComposite in2="hardAlpha" operator="arithmetic" k2="-1" k3="1"/>
<feColorMatrix type="matrix" values="0 0 0 0 0.0986111 0 0 0 0 0.591667 0 0 0 0 0.30679 0 0 0 1 0"/>
<feBlend mode="normal" in2="shape" result="effect1_innerShadow"/>
<feColorMatrix in="SourceAlpha" type="matrix" values="0 0 0 0 0 0 0 0 0 0 0 0 0 0 0 0 0 0 127 0" result="hardAlpha"/>
<feOffset dx="-0.5" dy="-0.5"/>
<feGaussianBlur stdDeviation="0.5"/>
<feComposite in2="hardAlpha" operator="arithmetic" k2="-1" k3="1"/>
<feColorMatrix type="matrix" values="0 0 0 0 0.25875 0 0 0 0 0.8625 0 0 0 0 0.513667 0 0 0 1 0"/>
<feBlend mode="normal" in2="effect1_innerShadow" result="effect2_innerShadow"/>
</filter>
<filter id="filter6_ii" x="15.7692" y="94" width="80.4615" height="27" filterUnits="userSpaceOnUse" color-interpolation-filters="sRGB">
<feFlood flood-opacity="0" result="BackgroundImageFix"/>
<feBlend mode="normal" in="SourceGraphic" in2="BackgroundImageFix" result="shape"/>
<feColorMatrix in="SourceAlpha" type="matrix" values="0 0 0 0 0 0 0 0 0 0 0 0 0 0 0 0 0 0 127 0" result="hardAlpha"/>
<feOffset dx="1" dy="1"/>
<feGaussianBlur stdDeviation="1"/>
<feComposite in2="hardAlpha" operator="arithmetic" k2="-1" k3="1"/>
<feColorMatrix type="matrix" values="0 0 0 0 0.682353 0 0 0 0 0.682353 0 0 0 0 0.752941 0 0 0 0.2 0"/>
<feBlend mode="normal" in2="shape" result="effect1_innerShadow"/>
<feColorMatrix in="SourceAlpha" type="matrix" values="0 0 0 0 0 0 0 0 0 0 0 0 0 0 0 0 0 0 127 0" result="hardAlpha"/>
<feOffset dx="-1" dy="-1"/>
<feGaussianBlur stdDeviation="0.5"/>
<feComposite in2="hardAlpha" operator="arithmetic" k2="-1" k3="1"/>
<feColorMatrix type="matrix" values="0 0 0 0 1 0 0 0 0 1 0 0 0 0 1 0 0 0 1 0"/>
<feBlend mode="normal" in2="effect1_innerShadow" result="effect2_innerShadow"/>
</filter>
<filter id="filter7_dd" x="128" y="87" width="74.5" height="43.5" filterUnits="userSpaceOnUse" color-interpolation-filters="sRGB">
<feFlood flood-opacity="0" result="BackgroundImageFix"/>
<feColorMatrix in="SourceAlpha" type="matrix" values="0 0 0 0 0 0 0 0 0 0 0 0 0 0 0 0 0 0 127 0"/>
<feOffset dx="1.5" dy="1.5"/>
<feGaussianBlur stdDeviation="1.5"/>
<feColorMatrix type="matrix" values="0 0 0 0 0.682353 0 0 0 0 0.682353 0 0 0 0 0.752941 0 0 0 0.4 0"/>
<feBlend mode="normal" in2="BackgroundImageFix" result="effect1_dropShadow"/>
<feColorMatrix in="SourceAlpha" type="matrix" values="0 0 0 0 0 0 0 0 0 0 0 0 0 0 0 0 0 0 127 0"/>
<feOffset dx="-1" dy="-1"/>
<feGaussianBlur stdDeviation="1.5"/>
<feColorMatrix type="matrix" values="0 0 0 0 1 0 0 0 0 1 0 0 0 0 1 0 0 0 1 0"/>
<feBlend mode="normal" in2="effect1_dropShadow" result="effect2_dropShadow"/>
<feBlend mode="normal" in="SourceGraphic" in2="effect2_dropShadow" result="shape"/>
</filter>
<filter id="filter8_ii" x="133" y="92" width="64" height="33" filterUnits="userSpaceOnUse" color-interpolation-filters="sRGB">
<feFlood flood-opacity="0" result="BackgroundImageFix"/>
<feBlend mode="normal" in="SourceGraphic" in2="BackgroundImageFix" result="shape"/>
<feColorMatrix in="SourceAlpha" type="matrix" values="0 0 0 0 0 0 0 0 0 0 0 0 0 0 0 0 0 0 127 0" result="hardAlpha"/>
<feOffset dx="1" dy="1"/>
<feGaussianBlur stdDeviation="1"/>
<feComposite in2="hardAlpha" operator="arithmetic" k2="-1" k3="1"/>
<feColorMatrix type="matrix" values="0 0 0 0 0.682353 0 0 0 0 0.682353 0 0 0 0 0.752941 0 0 0 0.2 0"/>
<feBlend mode="normal" in2="shape" result="effect1_innerShadow"/>
<feColorMatrix in="SourceAlpha" type="matrix" values="0 0 0 0 0 0 0 0 0 0 0 0 0 0 0 0 0 0 127 0" result="hardAlpha"/>
<feOffset dx="-1" dy="-1"/>
<feGaussianBlur stdDeviation="0.5"/>
<feComposite in2="hardAlpha" operator="arithmetic" k2="-1" k3="1"/>
<feColorMatrix type="matrix" values="0 0 0 0 1 0 0 0 0 1 0 0 0 0 1 0 0 0 1 0"/>
<feBlend mode="normal" in2="effect1_innerShadow" result="effect2_innerShadow"/>
</filter>
<filter id="filter9_d" x="129" y="88" width="72" height="41" filterUnits="userSpaceOnUse" color-interpolation-filters="sRGB">
<feFlood flood-opacity="0" result="BackgroundImageFix"/>
<feColorMatrix in="SourceAlpha" type="matrix" values="0 0 0 0 0 0 0 0 0 0 0 0 0 0 0 0 0 0 127 0"/>
<feOffset/>
<feGaussianBlur stdDeviation="1.5"/>
<feColorMatrix type="matrix" values="0 0 0 0 0.452992 0 0 0 0 0.372083 0 0 0 0 0.95 0 0 0 1 0"/>
<feBlend mode="normal" in2="BackgroundImageFix" result="effect1_dropShadow"/>
<feBlend mode="normal" in="SourceGraphic" in2="effect1_dropShadow" result="shape"/>
</filter>
<filter id="filter10_ii" x="236" y="-19" width="85" height="239" filterUnits="userSpaceOnUse" color-interpolation-filters="sRGB">
<feFlood flood-opacity="0" result="BackgroundImageFix"/>
<feBlend mode="normal" in="SourceGraphic" in2="BackgroundImageFix" result="shape"/>
<feColorMatrix in="SourceAlpha" type="matrix" values="0 0 0 0 0 0 0 0 0 0 0 0 0 0 0 0 0 0 127 0" result="hardAlpha"/>
<feOffset dx="1" dy="1"/>
<feGaussianBlur stdDeviation="1"/>
<feComposite in2="hardAlpha" operator="arithmetic" k2="-1" k3="1"/>
<feColorMatrix type="matrix" values="0 0 0 0 0.682353 0 0 0 0 0.682353 0 0 0 0 0.752941 0 0 0 0.2 0"/>
<feBlend mode="normal" in2="shape" result="effect1_innerShadow"/>
<feColorMatrix in="SourceAlpha" type="matrix" values="0 0 0 0 0 0 0 0 0 0 0 0 0 0 0 0 0 0 127 0" result="hardAlpha"/>
<feOffset dx="-1" dy="-1"/>
<feGaussianBlur stdDeviation="0.5"/>
<feComposite in2="hardAlpha" operator="arithmetic" k2="-1" k3="1"/>
<feColorMatrix type="matrix" values="0 0 0 0 1 0 0 0 0 1 0 0 0 0 1 0 0 0 0.7 0"/>
<feBlend mode="normal" in2="effect1_innerShadow" result="effect2_innerShadow"/>
</filter>
<filter id="filter11_ii" x="137" y="162" width="56" height="28" filterUnits="userSpaceOnUse" color-interpolation-filters="sRGB">
<feFlood flood-opacity="0" result="BackgroundImageFix"/>
<feBlend mode="normal" in="SourceGraphic" in2="BackgroundImageFix" result="shape"/>
<feColorMatrix in="SourceAlpha" type="matrix" values="0 0 0 0 0 0 0 0 0 0 0 0 0 0 0 0 0 0 127 0" result="hardAlpha"/>
<feOffset dx="1" dy="1"/>
<feGaussianBlur stdDeviation="1"/>
<feComposite in2="hardAlpha" operator="arithmetic" k2="-1" k3="1"/>
<feColorMatrix type="matrix" values="0 0 0 0 0.682353 0 0 0 0 0.682353 0 0 0 0 0.752941 0 0 0 0.2 0"/>
<feBlend mode="normal" in2="shape" result="effect1_innerShadow"/>
<feColorMatrix in="SourceAlpha" type="matrix" values="0 0 0 0 0 0 0 0 0 0 0 0 0 0 0 0 0 0 127 0" result="hardAlpha"/>
<feOffset dx="-1" dy="-1"/>
<feGaussianBlur stdDeviation="0.5"/>
<feComposite in2="hardAlpha" operator="arithmetic" k2="-1" k3="1"/>
<feColorMatrix type="matrix" values="0 0 0 0 1 0 0 0 0 1 0 0 0 0 1 0 0 0 0.7 0"/>
<feBlend mode="normal" in2="effect1_innerShadow" result="effect2_innerShadow"/>
</filter>
<linearGradient id="paint0_linear" x1="56" y1="104" x2="56" y2="119" gradientUnits="userSpaceOnUse">
<stop stop-opacity="0"/>
<stop offset="1"/>
</linearGradient>
</defs>
</svg>
